<?xml version="1.0" encoding="iso-8859-1"?>
<!-- Generator: Adobe Illustrator 17.1.0, SVG Export Plug-In . SVG Version: 6.00 Build 0)  -->
<!DOCTYPE svg PUBLIC "-//W3C//DTD SVG 1.1//EN" "http://www.w3.org/Graphics/SVG/1.1/DTD/svg11.dtd">
<svg version="1.1" id="Capa_1" xmlns="http://www.w3.org/2000/svg" xmlns:xlink="http://www.w3.org/1999/xlink" x="0px" y="0px"
	 viewBox="0 0 442.006 442.006" style="enable-background:new 0 0 442.006 442.006;" xml:space="preserve">
<path d="M439.075,57.292L384.725,2.93C382.849,1.054,380.306,0,377.653,0c-0.001,0-0.001,0-0.001,0
	c-2.652,0-5.195,1.054-7.071,2.929l-40.159,40.159c-1.694,1.694-2.653,3.845-2.877,6.057l-49.117,10.992
	c-1.78,0.292-3.502,1.07-4.953,2.339L46.895,260.573c-3.927-3.316-9.81-3.125-13.513,0.575L2.934,291.583
	c-1.876,1.875-2.931,4.419-2.931,7.072c0,2.652,1.054,5.196,2.929,7.072l133.351,133.35c1.876,1.876,4.421,2.929,7.073,2.929
	c2.653,0,5.197-1.055,7.072-2.932l30.429-30.455c3.697-3.701,3.891-9.578,0.579-13.505l197.671-226.146
	c1.296-1.312,2.228-2.979,2.644-4.843l11.128-49.67c2.203-0.228,4.345-1.186,6.034-2.874l40.16-40.147
	c1.875-1.875,2.93-4.418,2.93-7.071C442.003,61.711,440.95,59.167,439.075,57.292z M143.351,417.861L24.146,298.657l16.303-16.296
	l119.194,119.193L143.351,417.861z M167.285,380.912L61.096,274.723L279.599,83.687l78.698,78.699L167.285,380.912z
	 M366.209,142.014l-66.21-66.21l40.036-8.96l35.142,35.142L366.209,142.014z M391.844,90.368l-0.694-0.694l-39.515-39.515
	l26.017-26.016L417.86,64.36L391.844,90.368z"/>
<g>
</g>
<g>
</g>
<g>
</g>
<g>
</g>
<g>
</g>
<g>
</g>
<g>
</g>
<g>
</g>
<g>
</g>
<g>
</g>
<g>
</g>
<g>
</g>
<g>
</g>
<g>
</g>
<g>
</g>
</svg>
