<svg id="Layer_1" height="512" viewBox="0 0 512 512" width="512" xmlns="http://www.w3.org/2000/svg" data-name="Layer 1"><path d="m401.9 360.968a6 6 0 0 0 -10.353 0l-39.979 68.248a52.338 52.338 0 0 0 82.161 63.457 52.35 52.35 0 0 0 8.15-63.456zm23.34 123.219a40.333 40.333 0 0 1 -63.322-48.907l34.8-59.409 34.8 59.409a40.348 40.348 0 0 1 -6.278 48.907z"/><path d="m410.808 442h-7.808v-8.216a6 6 0 0 0 -12 0v8.216h-8.368a6 6 0 0 0 0 12h8.368v7.96a6 6 0 1 0 12 0v-7.96h7.808a6 6 0 0 0 0-12z"/><path d="m376.362 350.158a31.4 31.4 0 0 0 22.215-53.618l-33.227-33.228a29.1 29.1 0 0 0 -1.769-39.156l-28.825-28.825a42.847 42.847 0 0 0 -4.308-55.473l-125.26-125.258a29.35 29.35 0 0 0 -41.512 0l-92.132 92.13a29.389 29.389 0 0 0 0 41.513l125.261 125.257a42.851 42.851 0 0 0 55.472 4.306l28.823 28.829a29.093 29.093 0 0 0 39.868 1.159l33.176 33.177a31.317 31.317 0 0 0 22.218 9.187zm-296.334-210.4a17.377 17.377 0 0 1 0-24.544l92.133-92.131a17.355 17.355 0 0 1 24.543 0l5.666 5.666-116.67 116.675zm168.794 125.26a30.818 30.818 0 0 1 -43.533 0l-111.109-111.109 116.674-116.676 111.11 111.11a30.818 30.818 0 0 1 0 43.533zm23.992 16.359-11.691-11.69 65.509-65.511 11.691 11.692zm40.9 16.773a17.083 17.083 0 0 1 -24.132 0l-8.288-8.288 65.509-65.51 8.288 8.289a17.083 17.083 0 0 1 0 24.13zm43.234-26.265 33.14 33.139a19.418 19.418 0 1 1 -27.461 27.462l-33.14-33.139z"/><path d="m305.681 164.231a6 6 0 1 0 -8.485 8.485l2.38 2.38a6 6 0 0 0 8.485-8.485z"/><path d="m224.706 83.257a6 6 0 1 0 -8.484 8.484l65.07 65.071a6 6 0 1 0 8.484-8.485z"/></svg>