<svg id="Capa_1" enable-background="new 0 0 512 512" height="512" viewBox="0 0 512 512" width="512" xmlns="http://www.w3.org/2000/svg"><g><path d="m384.605 0h-83.62c-11.467 0-21.19 7.601-24.402 18.028h-52.188c-4.142 0-7.5 3.357-7.5 7.5 0 13.401-10.916 24.305-24.333 24.305-13.401 0-24.304-10.903-24.304-24.305 0-4.143-3.358-7.5-7.5-7.5s-7.5 3.357-7.5 7.5c0 19.108 13.708 35.067 31.804 38.578v29.542c-15.813 3.45-27.694 17.564-27.694 34.409 0 .908.043 1.809.112 2.705h-54.348c-14.436 0-26.18 11.744-26.18 26.181v239.67c0 14.998 12.189 27.2 27.172 27.2 14.982 0 27.172-12.202 27.172-27.2v-6.561h26.867v20.139c-4.528 1.931-7.71 6.425-7.71 11.65v25.2c0 6.979 5.679 12.658 12.659 12.658h21.951v44.8c0 4.143 3.358 7.5 7.5 7.5s7.5-3.357 7.5-7.5v-44.8h21.98c6.98 0 12.659-5.679 12.659-12.658v-25.2c0-5.225-3.182-9.72-7.71-11.65v-20.139h26.867v6.561c0 14.998 12.189 27.2 27.172 27.2s27.172-12.202 27.172-27.2v-54.737c0-4.143-3.358-7.5-7.5-7.5s-7.5 3.357-7.5 7.5v54.737c0 6.728-5.46 12.2-12.172 12.2s-12.172-5.473-12.172-12.2v-8.845c0-7.012-5.717-12.716-12.744-12.716h-31.379c-7.027 0-12.744 5.704-12.744 12.716v21.414h-38.829v-21.414c0-7.012-5.717-12.716-12.744-12.716h-31.407c-7.011 0-12.715 5.704-12.715 12.716v8.845c0 6.728-5.46 12.2-12.172 12.2s-12.172-5.473-12.172-12.2v-35.927h20.732c4.142 0 7.5-3.357 7.5-7.5s-3.358-7.5-7.5-7.5h-20.734v-20.009h37.57c4.142 0 7.5-3.357 7.5-7.5s-3.358-7.5-7.5-7.5h-37.57v-20.007h20.732c4.142 0 7.5-3.357 7.5-7.5s-3.358-7.5-7.5-7.5h-20.732v-20.008h201.25v51.603c0 4.143 3.358 7.5 7.5 7.5s7.5-3.357 7.5-7.5v-150.322c0-14.437-11.757-26.181-26.208-26.181h-54.323c.07-.899.114-1.8.114-2.705 0-16.848-11.893-30.963-27.722-34.411v-29.538c15.681-3.039 28.063-15.41 31.106-31.079h45.415c3.211 10.427 12.935 18.028 24.402 18.028h70.382c6.962 0 12.625 5.651 12.625 12.598v181.929c0 4.143 3.358 7.5 7.5 7.5s7.5-3.357 7.5-7.5v-181.93c0-15.218-12.393-27.598-27.625-27.598h-70.382c-5.805 0-10.528-4.723-10.528-10.528s4.723-10.528 10.528-10.528h83.62c19.544 0 35.444 15.9 35.444 35.445v441.85h-21.056v-212.102c0-4.143-3.358-7.5-7.5-7.5s-7.5 3.357-7.5 7.5v214.13c0 7.152 5.819 12.972 12.971 12.972h25.115c7.152 0 12.971-5.819 12.971-12.972v-443.878c-.001-27.815-22.63-50.445-50.445-50.445zm-164.904 444.7h-54.249v-20.518h54.249zm73.5-287.757v83.719h-201.25v-20.008h20.732c4.142 0 7.5-3.357 7.5-7.5s-3.358-7.5-7.5-7.5h-20.732v-20.008h37.57c4.142 0 7.5-3.357 7.5-7.5s-3.358-7.5-7.5-7.5h-37.57v-13.703c0-6.165 5.016-11.181 11.18-11.181h63.55.031 51.572c.014 0 .028.002.042.002.009 0 .017-.002.026-.002h63.64c6.181.001 11.209 5.016 11.209 11.181zm-80.417-28.885c0 .905-.084 1.807-.208 2.705h-40.007c-.119-.891-.201-1.79-.201-2.705 0-11.15 9.059-20.223 20.194-20.223 11.15 0 20.222 9.072 20.222 20.223z"/></g></svg>