<svg id="Capa_1" enable-background="new 0 0 512 512" height="512" viewBox="0 0 512 512" width="512" xmlns="http://www.w3.org/2000/svg"><path d="m346 105.427v-15.427h22.5c4.142 0 7.5-3.357 7.5-7.5v-75c0-4.143-3.358-7.5-7.5-7.5h-225c-4.142 0-7.5 3.357-7.5 7.5v75c0 4.143 3.358 7.5 7.5 7.5h22.5v15.414c-33.703 3.743-60 32.401-60 67.086v272c0 37.22 30.28 67.5 67.5 67.5h165c37.22 0 67.5-30.28 67.5-67.5v-272c0-34.684-26.298-63.329-60-67.073zm-195-90.427h210v60h-210zm22.5 105c4.142 0 7.5-3.357 7.5-7.5v-22.5h150v15h-127.5c-4.142 0-7.5 3.357-7.5 7.5s3.358 7.5 7.5 7.5h135c28.949 0 52.5 23.552 52.5 52.5v22.5h-15v-22.5c0-20.678-16.822-37.5-37.5-37.5h-165c-20.678 0-37.5 16.822-37.5 37.5v22.5h-15v-22.5c0-28.948 23.551-52.5 52.5-52.5zm-22.5 257h210v67.5c0 12.406-10.093 22.5-22.5 22.5h-165c-12.407 0-22.5-10.094-22.5-22.5zm-30-15v-152h270v152zm240-167h-210v-22.5c0-12.406 10.093-22.5 22.5-22.5h165c12.407 0 22.5 10.094 22.5 22.5zm-22.5 302h-165c-28.949 0-52.5-23.552-52.5-52.5v-67.5h15v67.5c0 20.678 16.822 37.5 37.5 37.5h165c20.678 0 37.5-16.822 37.5-37.5v-67.5h15v67.5c0 28.948-23.551 52.5-52.5 52.5z"/></svg>