<svg height="512" viewBox="0 0 64 64" width="512" xmlns="http://www.w3.org/2000/svg"><path d="m61 48h-40a3 3 0 0 0 0 6h21.4a12.955 12.955 0 0 0 8.6 3c6.065 0 11-3.589 11-8a1 1 0 0 0 -1-1zm-10 7a10.72 10.72 0 0 1 -7.492-2.706 1 1 0 0 0 -.708-.294h-21.8a1 1 0 0 1 0-2h38.875c-.716 2.834-4.423 5-8.875 5z"/><path d="m49 13h-6.72l-9.77-5.86a1 1 0 0 0 -.51-.14h-26a4 4 0 0 0 -4 4v18a4 4 0 0 0 4 4h26a1 1 0 0 0 .51-.14l9.77-5.86h6.72c2.07 0 3-3.52 3-7s-.93-7-3-7zm-37-4h1.99l.01 5h2l-.01-5h1.01v2h2v-2h1.99l.01 5h2l-.01-5h2.01v7h-13zm29 16.43-9.28 5.57h-25.72a2.006 2.006 0 0 1 -2-2v-7.76a21.928 21.928 0 0 1 5.26.73 24.8 24.8 0 0 0 6.73.81 24.823 24.823 0 0 0 6.74-.81 23.159 23.159 0 0 1 6.27-.75 23.277 23.277 0 0 1 6.27.75 23.932 23.932 0 0 0 5.73.79zm0-4.67a22.105 22.105 0 0 1 -5.27-.73 24.678 24.678 0 0 0 -6.73-.81 24.823 24.823 0 0 0 -6.74.81 23.159 23.159 0 0 1 -6.27.75 23.132 23.132 0 0 1 -6.26-.75 23.932 23.932 0 0 0 -5.73-.79v-8.24a2.006 2.006 0 0 1 2-2h4v8a1 1 0 0 0 1 1h15a1 1 0 0 0 1-1v-8h4.72l9.28 5.57zm5.8 4.24h-3.8v-10h3.8a14.025 14.025 0 0 0 -.8 5 14.025 14.025 0 0 0 .8 5zm2.2-.09c-.37-.47-1-2.15-1-4.91s.63-4.44 1-4.91c.37.47 1 2.15 1 4.91s-.63 4.44-1 4.91z"/><path d="m51.22 29.375c-.534.666-5.22 6.6-5.22 9.625a6 6 0 0 0 12 0c0-3.025-4.686-8.959-5.22-9.625a1.033 1.033 0 0 0 -1.56 0zm4.78 9.625a4 4 0 0 1 -8 0c0-1.521 2.208-4.972 4-7.365 1.792 2.393 4 5.844 4 7.365z"/><path d="m53 38h2v2h-2z"/></svg>