<?xml version="1.0" encoding="iso-8859-1"?>
<!-- Generator: Adobe Illustrator 19.0.0, SVG Export Plug-In . SVG Version: 6.00 Build 0)  -->
<svg version="1.1" id="Capa_1" xmlns="http://www.w3.org/2000/svg" xmlns:xlink="http://www.w3.org/1999/xlink" x="0px" y="0px"
	 viewBox="0 0 512 512" style="enable-background:new 0 0 512 512;" xml:space="preserve">
<g>
	<g>
		<path d="M349.997,187.994c-9.586,0-19.119,0.858-28.488,2.52c1.645-9.32,2.491-18.852,2.49-28.514
			c-0.001-43.275-16.851-83.957-47.444-114.551C245.957,16.85,205.274-0.001,162,0C118.728,0,78.046,16.852,47.449,47.449
			C16.853,78.046,0.001,118.727,0,161.999c-0.001,43.274,16.851,83.958,47.449,114.557C78.043,307.149,118.725,323.999,162,324
			c0.002,0,0.001,0,0.004,0c43.273,0,83.958-16.85,114.552-47.444c18.393-18.393,31.81-40.434,39.593-64.489
			c11.024-2.694,22.39-4.072,33.849-4.072c78.301,0,142.003,63.703,142.003,142.003c0,74.938-58.351,136.497-132.003,141.646V285
			c0-5.523-4.478-10-10-10c-5.522,0-10,4.477-10,10v206.643c-73.652-5.149-132.003-66.707-132.003-141.646c0-5.523-4.478-10-10-10
			c-5.522,0-10,4.477-10,10c0,89.329,72.674,162.003,162.003,162.003S512,439.326,512,349.998
			C512,260.668,439.326,187.994,349.997,187.994z M262.413,262.414C235.596,289.231,199.935,304,162,304
			c-37.934-0.001-73.592-14.77-100.408-41.586C34.77,235.592,19.999,199.931,20,162c0.001-34.577,12.28-67.263,34.768-93.089
			l170.227,170.227c1.953,1.953,4.512,2.929,7.071,2.929c2.559,0,5.118-0.976,7.071-2.929c3.905-3.905,3.905-10.237,0-14.142
			L68.911,54.768C94.738,32.28,127.424,20,162,20c37.932-0.001,73.592,14.77,100.413,41.591C289.231,88.408,303.999,124.067,304,162
			C304.001,199.935,289.232,235.595,262.413,262.414z"/>
	</g>
</g>
<g>
	<g>
		<path d="M357.069,237.93C355.21,236.07,352.63,235,350,235c-2.641,0-5.21,1.07-7.07,2.93c-1.87,1.86-2.93,4.44-2.93,7.07
			s1.06,5.21,2.93,7.07c1.86,1.86,4.43,2.93,7.07,2.93c2.63,0,5.21-1.07,7.069-2.93c1.86-1.86,2.931-4.44,2.931-7.07
			S358.93,239.79,357.069,237.93z"/>
	</g>
</g>
<g>
	<g>
		<path d="M134.06,51.386c-1.718-5.25-7.367-8.113-12.613-6.398c-0.094,0.031-0.262,0.088-0.354,0.122
			c-5.197,1.871-7.893,7.6-6.022,12.796c1.469,4.078,5.312,6.616,9.409,6.616c1.093,0,2.203-0.181,3.291-0.56
			C132.952,62.204,135.764,56.599,134.06,51.386z"/>
	</g>
</g>
<g>
	<g>
		<path d="M249.555,74.449c-24.436-24.437-58.26-37.617-92.813-36.155c-5.518,0.233-9.802,4.896-9.568,10.414
			s4.878,9.799,10.414,9.569c28.951-1.22,57.335,9.824,77.825,30.314c1.953,1.953,4.512,2.929,7.071,2.929s5.118-0.977,7.071-2.929
			C253.46,84.686,253.46,78.354,249.555,74.449z"/>
	</g>
</g>
<g>
</g>
<g>
</g>
<g>
</g>
<g>
</g>
<g>
</g>
<g>
</g>
<g>
</g>
<g>
</g>
<g>
</g>
<g>
</g>
<g>
</g>
<g>
</g>
<g>
</g>
<g>
</g>
<g>
</g>
</svg>
