<svg id="color_line" height="512" viewBox="0 0 74 74" width="512" xmlns="http://www.w3.org/2000/svg" data-name="color line"><path d="m50.05 30.97-12.24 10-17.49-21.44 12.23-9.98a13.83 13.83 0 1 1 17.5 21.42z" fill="#fe7058"/><path d="m37.81 40.97-12.23 9.98a13.834 13.834 0 0 1 -17.5-21.43l12.24-9.99z" fill="#eeefee"/><path d="m55.03 18.66a13.687 13.687 0 0 0 -2.27-3.98 13.827 13.827 0 0 0 -19.46-1.96l-11.13 9.08-1.85-2.27 12.23-9.98a13.827 13.827 0 0 1 19.46 1.96 13.659 13.659 0 0 1 3.02 7.15z" fill="#ea6453"/><path d="m22.17 21.8-1.1.9-12.24 9.99a13.783 13.783 0 0 0 -4.98 12.31 13.827 13.827 0 0 1 4.23-15.48l12.24-9.99z" fill="#e1e6e9"/><g fill="#323c6b"><path d="m27.75 10.095a.5.5 0 0 1 -.316-.888l.313-.255a.5.5 0 0 1 .632.775l-.312.255a.5.5 0 0 1 -.317.113z"/><path d="m30.317 8a.5.5 0 0 1 -.317-.887l.341-.279a17.28 17.28 0 0 1 8.977-3.768.5.5 0 0 1 .114.993 16.283 16.283 0 0 0 -8.458 3.549l-.341.279a.5.5 0 0 1 -.316.113z"/><path d="m37.81 41.47h-.05a.5.5 0 0 1 -.337-.182l-17.49-21.44a.5.5 0 0 1 .071-.7l12.23-9.98a14.33 14.33 0 0 1 18.132 22.189l-12.24 10a.5.5 0 0 1 -.316.113zm-16.787-21.87 16.858 20.666 11.852-9.684a13.33 13.33 0 1 0 -16.867-20.645z"/><path d="m16.847 54.56a14.33 14.33 0 0 1 -9.083-25.427l12.236-9.99a.5.5 0 0 1 .7.071l17.5 21.44a.5.5 0 0 1 -.071.7l-12.229 9.983a14.27 14.27 0 0 1 -9.053 3.223zm3.4-34.326-11.847 9.673a13.334 13.334 0 0 0 16.864 20.656l11.842-9.663z"/></g><path d="m69.42 58.949a13.814 13.814 0 0 1 -16.48 10.52l-15.42-3.4 5.95-27.01 15.42 3.4a13.835 13.835 0 0 1 10.53 16.49z" fill="#eeefee"/><path d="m43.47 39.059-5.95 27.01-15.43-3.4a13.83 13.83 0 1 1 5.96-27.01z" fill="#fe7058"/><path d="m69.48 53.25a13.826 13.826 0 0 0 -9.53-7.6l-17.1-3.77.62-2.82 15.42 3.4a13.836 13.836 0 0 1 10.59 10.79z" fill="#e1e6e9"/><path d="m43.47 39.06-.62 2.82-13.74-3.03a13.845 13.845 0 0 0 -16.55 16.23 13.836 13.836 0 0 1 15.49-19.42z" fill="#ea6453"/><path d="m55.931 73.3a16.442 16.442 0 0 1 -2.313-.187.5.5 0 1 1 .14-.99 15.5 15.5 0 0 0 2.172.177 16.029 16.029 0 0 0 4.735-.737.5.5 0 0 1 .3.955 17.024 17.024 0 0 1 -5.034.782z" fill="#323c6b"/><path d="m51.719 72.776a.511.511 0 0 1 -.108-.012l-.469-.1a.5.5 0 1 1 .215-.977l.469.1a.5.5 0 0 1 -.107.988z" fill="#323c6b"/><path d="m55.956 70.3a14.445 14.445 0 0 1 -3.124-.343l-15.419-3.4a.5.5 0 0 1 -.381-.6l5.95-27.01a.5.5 0 0 1 .219-.314.509.509 0 0 1 .376-.067l15.423 3.405a14.332 14.332 0 0 1 -3.044 28.329zm-17.84-4.612 14.931 3.292a13.313 13.313 0 0 0 15.885-10.139 13.35 13.35 0 0 0 -10.15-15.894l-14.931-3.292z" fill="#323c6b"/><path d="m37.52 66.569a.5.5 0 0 1 -.107-.012l-15.43-3.4a14.33 14.33 0 1 1 6.174-27.987l15.42 3.4a.5.5 0 0 1 .38.6l-5.95 27.01a.5.5 0 0 1 -.488.393zm-12.442-30.735a13.33 13.33 0 0 0 -11.244 20.508 13.231 13.231 0 0 0 8.366 5.839l14.942 3.292 5.732-26.033-14.932-3.293a13.335 13.335 0 0 0 -2.864-.313z" fill="#323c6b"/><path d="m33.652 61.221a.622.622 0 0 1 -.283 1.212l-7.962-1.747a.622.622 0 1 1 .283-1.212z" fill="#fff"/><path d="m23.415 58.969a.622.622 0 0 1 -.279 1.212l-.306-.067a.622.622 0 1 1 .27-1.214l.306.067z" fill="#fff"/></svg>