<?xml version="1.0" encoding="iso-8859-1"?>
<!-- Generator: Adobe Illustrator 19.0.0, SVG Export Plug-In . SVG Version: 6.00 Build 0)  -->
<svg version="1.1" id="Capa_1" xmlns="http://www.w3.org/2000/svg" xmlns:xlink="http://www.w3.org/1999/xlink" x="0px" y="0px"
	 viewBox="0 0 511.999 511.999" style="enable-background:new 0 0 511.999 511.999;" xml:space="preserve">
<path style="fill:#D0F0FE;" d="M283.235,438.927H173.493c-16.241,0-29.455-13.214-29.455-29.456c0-5.044,1.316-10.04,3.808-14.449
	c1.526-2.701,1.232-6.063-0.74-8.458c-1.973-2.394-5.215-3.327-8.159-2.348c-26.823,8.935-44.846,33.935-44.846,62.211
	c0,36.156,29.416,65.572,65.572,65.572h172.025c4.143,0,7.5-3.357,7.5-7.5v-9.61C339.198,464.032,314.093,438.927,283.235,438.927z"
	/>
<path style="fill:#A6D3E8;" d="M283.235,438.927h-24.498c26.862,0,48.715,25.104,48.715,55.962v9.61c0,4.143-2.923,7.5-6.529,7.5
	h30.774c4.143,0,7.5-3.357,7.5-7.5v-9.61C339.198,464.032,314.093,438.927,283.235,438.927z"/>
<path style="fill:#E7E7F2;" d="M244.726,335.877c-0.84-1.803-2.362-3.197-4.231-3.878l-54.89-19.979
	c-3.898-1.415-8.197,0.591-9.613,4.483l-19.247,52.88c-0.68,1.869-0.59,3.933,0.251,5.735c0.84,1.803,2.362,3.197,4.232,3.878
	l54.89,19.979c0.847,0.307,1.713,0.454,2.564,0.454c3.064,0,5.94-1.892,7.049-4.937l19.247-52.88
	C245.657,339.743,245.567,337.679,244.726,335.877z"/>
<path style="fill:#BCBCCE;" d="M244.726,335.877c-0.84-1.803-2.362-3.197-4.231-3.878l-22.382-8.147l-0.052,0.143
	c0.741,0.58,1.279,1.525,1.535,2.735c0.344,1.622,0.156,3.584-0.524,5.453l-19.247,52.88c-1.108,3.045-3.26,5.201-5.307,5.57
	c-0.568,0.103-1.129,0.067-1.657-0.124l23.258,8.465c0.847,0.307,1.713,0.454,2.564,0.454c3.064,0,5.94-1.892,7.049-4.937
	l19.247-52.88C245.657,339.743,245.567,337.679,244.726,335.877z"/>
<path style="fill:#50D399;" d="M417.194,73.874c-0.84-1.803-2.362-3.197-4.232-3.878L221.899,0.455
	c-3.898-1.418-8.197,0.591-9.613,4.482l-14.798,40.656c-0.099,0.271-0.182,0.548-0.248,0.828l-54.22,227.648
	c-4.801,20.152,6.26,40.692,25.727,47.778l78.346,28.516c4.591,1.671,9.302,2.468,13.946,2.468c15.051,0,29.384-8.376,36.474-22.53
	l104.794-209.242c0.129-0.258,0.243-0.522,0.342-0.793l14.798-40.656C418.124,77.74,418.035,75.676,417.194,73.874z"/>
<g>
	<path style="fill:#32A873;" d="M417.194,73.874c-0.84-1.803-2.362-3.197-4.232-3.878l-26.615-9.687
		c1.618,0.589,2.899,1.896,3.562,3.634c0.663,1.738,0.653,3.765-0.027,5.634l-14.798,40.656c-0.099,0.271-0.211,0.536-0.335,0.795
		L273.352,321.507c-6.86,14.238-19.854,23.101-33.12,23.751c-4.093,0.201-8.21-0.38-12.184-1.826l19.043,6.931
		c4.591,1.671,9.302,2.468,13.946,2.468c15.051,0,29.384-8.376,39.974-22.53l104.794-209.242c-3.371-0.258-3.257-0.522-3.158-0.793
		l14.798-40.656C418.124,77.74,418.035,75.676,417.194,73.874z"/>
	<path style="fill:#32A873;" d="M212.286,4.937l-14.798,40.656c-0.099,0.271-0.182,0.548-0.248,0.828l-1.548,6.499l203.622,74.113
		l2.992-5.974c0.129-0.258,0.243-0.522,0.342-0.793l14.798-40.656c0.68-1.869,0.59-3.933-0.251-5.735
		c-0.838-1.798-2.355-3.19-4.218-3.872L221.887,0.451C217.992-0.959,213.7,1.049,212.286,4.937z"/>
</g>
<path style="fill:#268E5C;" d="M417.194,73.874c-0.105-0.225-0.22-0.443-0.346-0.655c-0.071-0.119-0.152-0.231-0.229-0.346
	c-0.06-0.089-0.114-0.181-0.177-0.268c-0.106-0.145-0.223-0.281-0.339-0.417c-0.042-0.049-0.079-0.102-0.122-0.15
	c-0.145-0.162-0.299-0.314-0.457-0.462c-0.019-0.018-0.036-0.038-0.056-0.056c-0.717-0.658-1.562-1.176-2.493-1.518l-26.617-9.688
	c1.612,0.591,2.889,1.895,3.55,3.629c0.663,1.738,0.653,3.765-0.027,5.634l-14.798,40.656c-0.099,0.271-0.211,0.536-0.335,0.795
	l-2.895,6.01l27.459,9.994l2.992-5.974c0.129-0.258,0.243-0.522,0.342-0.793l14.798-40.656
	C418.124,77.74,418.035,75.676,417.194,73.874z"/>
<circle style="fill:#FFFFFF;" cx="255.317" cy="205.879" r="56.36"/>
<path style="fill:#E36F91;" d="M235.684,186.892l12.989,4.727l4.727-12.988c0.831-2.284,3.357-3.461,5.64-2.63l12.633,4.598
	c2.284,0.831,3.461,3.357,2.63,5.64l-4.727,12.988l12.988,4.727c2.284,0.831,3.461,3.356,2.63,5.64l-4.598,12.633
	c-0.831,2.284-3.357,3.461-5.64,2.63l-12.988-4.727l-4.728,12.989c-0.831,2.284-3.357,3.461-5.64,2.63l-12.633-4.598
	c-2.284-0.831-3.461-3.356-2.63-5.64l4.727-12.989l-12.989-4.727c-2.284-0.831-3.461-3.357-2.63-5.64l4.598-12.632
	C230.875,187.238,233.4,186.061,235.684,186.892z"/>
<g>
	<path style="fill:#268E5C;" d="M368.59,92.829c3.893,1.417,8.196-0.59,9.613-4.483l9.964-27.375l-14.095-5.13l-9.964,27.375
		C362.69,87.109,364.697,91.412,368.59,92.829z"/>
	<path style="fill:#268E5C;" d="M241.213,46.468c3.893,1.417,8.196-0.59,9.613-4.482l9.964-27.375l-14.095-5.13l-9.964,27.375
		C235.313,40.748,237.32,45.051,241.213,46.468z"/>
	<path style="fill:#268E5C;" d="M304.902,69.648c3.893,1.417,8.196-0.59,9.613-4.483l9.964-27.375l-14.095-5.13l-9.964,27.375
		C299.002,63.928,301.009,68.231,304.902,69.648z"/>
	<path style="fill:#268E5C;" d="M273.057,58.059c3.893,1.417,8.196-0.59,9.613-4.483l9.964-27.376l-14.095-5.13l-9.964,27.376
		C267.158,52.339,269.165,56.642,273.057,58.059z"/>
	<path style="fill:#268E5C;" d="M336.745,81.239c3.893,1.417,8.196-0.59,9.613-4.482l9.964-27.376l-14.095-5.13l-9.964,27.376
		C330.846,75.519,332.853,79.823,336.745,81.239z"/>
</g>
<g>
</g>
<g>
</g>
<g>
</g>
<g>
</g>
<g>
</g>
<g>
</g>
<g>
</g>
<g>
</g>
<g>
</g>
<g>
</g>
<g>
</g>
<g>
</g>
<g>
</g>
<g>
</g>
<g>
</g>
</svg>
