<svg height="512pt" viewBox="-46 0 512 512" width="512pt" xmlns="http://www.w3.org/2000/svg"><g fill-rule="evenodd"><path d="m86 90h88c8.800781 0 16-7.199219 16-16v-48c0-8.800781-7.199219-16-16-16h-88c-8.800781 0-16 7.199219-16 16v48c0 8.800781 7.199219 16 16 16zm0 0" fill="#808080"/><path d="m174 90h-88c0 16.113281-3.566406 29.191406-9.15625 40.515625h106.316406c-5.59375-11.324219-9.160156-24.402344-9.160156-40.515625zm0 0" fill="#e6e6e6"/><path d="m183.15625 130.515625h-106.3125c-20.207031 40.9375-66.84375 58.914063-66.84375 114.296875v225.1875c0 17.601562 14.402344 32 32 32h176c17.601562 0 32-14.398438 32-32v-225.1875c0-55.382812-46.632812-73.359375-66.84375-114.296875zm0 0" fill="#ae5e3c"/><path d="m136 296.804688c0-3.519532 2.878906-6.398438 6.398438-6.398438h19.199218c3.519532 0 6.402344 2.878906 6.402344 6.398438v25.601562h25.597656c3.519532 0 6.402344 2.878906 6.402344 6.398438v19.199218c0 3.523438-2.882812 6.402344-6.402344 6.402344h-25.597656v25.597656c0 3.523438-2.882812 6.402344-6.402344 6.402344h-19.199218c-3.519532 0-6.398438-2.878906-6.398438-6.402344v-25.597656h-25.601562c-3.519532 0-6.398438-2.878906-6.398438-6.402344v-19.199218c0-3.519532 2.878906-6.398438 6.398438-6.398438h25.601562zm114 135.191406v-187.183594h-196.003906v187.183594zm0 0" fill="#ffe7c3"/><path d="m142.398438 290.40625c-3.519532 0-6.398438 2.878906-6.398438 6.398438v25.601562h-25.601562c-3.519532 0-6.398438 2.878906-6.398438 6.398438v19.199218c0 3.523438 2.878906 6.402344 6.398438 6.402344h25.601562v25.597656c0 3.523438 2.878906 6.402344 6.398438 6.402344h19.199218c3.519532 0 6.402344-2.878906 6.402344-6.402344v-25.597656h25.597656c3.519532 0 6.402344-2.878906 6.402344-6.402344v-19.199218c0-3.519532-2.882812-6.398438-6.402344-6.398438h-25.597656v-25.601562c0-3.519532-2.882812-6.398438-6.402344-6.398438zm0 0" fill="#fd4848"/><path d="m330.003906 110h60v-70c0-16.5-13.5-30-30-30s-30 13.5-30 30zm0 0" fill="#808080"/><path d="m390.003906 110h-64c-8.800781 0-16 7.199219-16 16s7.199219 16 16 16h68c8.796875 0 16-7.199219 16-16s-7.199218-16-16-16zm0 0" fill="#808080"/><path d="m390.003906 142h-60v229.753906c0 44.914063 15 90.332032 15 130.246094h30c0-39.914062 15-85.332031 15-130.246094zm0 0" fill="#e6e6e6"/></g><path d="m51.214844 175.609375c2.703125 0 5.398437-1.089844 7.371094-3.238281l.277343-.304688c3.742188-4.058594 3.484375-10.386718-.574219-14.128906-4.058593-3.742188-10.386718-3.488281-14.132812.574219l-.308594.335937c-3.734375 4.070313-3.460937 10.398438.605469 14.128906 1.921875 1.761719 4.34375 2.632813 6.761719 2.632813zm0 0"/><path d="m184.34375 97.847656c9.203125-4.007812 15.65625-13.1875 15.65625-23.847656v-48c0-14.335938-11.664062-26-26-26h-88c-14.335938 0-26 11.664062-26 26v48c0 10.65625 6.445312 19.828125 15.640625 23.839844-.902344 9.886718-3.515625 19.394531-7.8125 28.351562-3.132813 6.511719 1.796875 14.324219 9.015625 14.324219h100.367188c7.945312 13.9375 18.382812 25.242187 28.164062 35.828125 16.480469 17.835938 30.957031 33.523438 34.019531 58.46875h-185.398437c-5.523438 0-10 4.480469-10 10v187.183594c0 5.523437 4.476562 10 10 10h186.003906v28.003906c0 12.132812-9.867188 22-22 22h-176c-12.132812 0-22-9.867188-22-22v-225.1875c0-18.550781 5.496094-33.433594 18.378906-49.765625 3.421875-4.335937 2.679688-10.625-1.65625-14.042969-4.339844-3.421875-10.625-2.679687-14.046875 1.65625-10.558593 13.386719-22.675781 32.546875-22.675781 62.152344v225.1875c0 23.15625 18.839844 42 42 42h176c23.160156 0 42-18.84375 42-42v-225.1875c0-38.816406-20.300781-60.789062-39.933594-82.039062-17.058594-18.460938-33.230468-35.988282-35.722656-64.925782zm-104.34375-71.847656c0-3.253906 2.746094-6 6-6h88c3.25 0 6 2.746094 6 6v48c0 3.25-2.75 6-6 6h-88c-3.253906 0-6-2.75-6-6zm11.441406 94.515625c2.050782-6.664063 3.429688-13.511719 4.09375-20.515625h68.90625c.667969 7.410156 2.074219 14.210938 4.027344 20.515625zm-27.445312 301.480469v-167.183594h176.003906v167.183594zm0 0"/><path d="m150.234375 482c5.523437 0 10-4.480469 10-10 0-5.523438-4.476563-10-10-10h-.238281c-5.523438 0-10 4.476562-10 10 0 5.519531 4.476562 10 10 10zm0 0"/><path d="m220 481.996094c5.523438 0 10-4.476563 10-10 0-5.523438-4.476562-10-10-10h-41.035156c-5.523438 0-10 4.476562-10 10 0 5.523437 4.476562 10 10 10zm0 0"/><path d="m193.597656 312.40625h-15.597656v-15.601562c0-9.042969-7.359375-16.398438-16.402344-16.398438h-19.199218c-9.042969 0-16.398438 7.355469-16.398438 16.398438v15.601562h-15.601562c-9.042969 0-16.398438 7.355469-16.398438 16.398438v19.199218c0 9.042969 7.355469 16.402344 16.398438 16.402344h15.601562v15.597656c0 9.042969 7.355469 16.398438 16.398438 16.398438h19.199218c9.042969 0 16.402344-7.355469 16.402344-16.398438v-15.597656h15.597656c9.042969 0 16.402344-7.359375 16.402344-16.402344v-19.199218c0-9.042969-7.359375-16.398438-16.402344-16.398438zm-3.597656 32h-22c-5.523438 0-10 4.476562-10 10v22h-12v-22c0-5.523438-4.480469-10-10-10h-22v-12h22c5.519531 0 10-4.480469 10-10v-22h12v22c0 5.519531 4.476562 10 10 10h22zm0 0"/><path d="m420.003906 126c0-12.269531-8.550781-22.578125-20-25.292969v-60.707031c0-22.054688-17.945312-40-40-40-22.058594 0-40 17.945312-40 40v60.707031c-11.453125 2.714844-20 13.023438-20 25.292969 0 14.335938 11.660156 26 26 26h54v219.753906c0 22.269532-3.910156 45.136719-7.6875 67.253906-3.144531 18.386719-6.144531 35.921876-7.042968 52.992188h-10.542969c-.898438-17.070312-3.894531-34.605469-7.039063-52.992188-3.78125-22.117187-7.6875-44.984374-7.6875-67.253906v-160.789062c0-5.523438-4.476562-10-10-10-5.523437 0-10 4.476562-10 10v160.789062c0 23.96875 4.054688 47.683594 7.972656 70.621094 3.613282 21.140625 7.027344 41.105469 7.027344 59.625 0 5.523438 4.476563 10 10 10h30c5.523438 0 10-4.476562 10-10 0-18.519531 3.410156-38.484375 7.023438-59.625 3.921875-22.9375 7.976562-46.652344 7.976562-70.621094v-220.460937c11.449219-2.714844 20-13.023438 20-25.292969zm-80-86c0-11.027344 8.972656-20 20-20s20 8.972656 20 20v60h-40zm-20 86c0-3.253906 2.746094-6 6-6h68c3.25 0 6 2.746094 6 6 0 3.25-2.75 6-6 6h-68c-3.253906 0-6-2.75-6-6zm0 0"/><path d="m330.003906 192.234375c5.523438 0 10-4.476563 10-10v-.269531c0-5.523438-4.476562-10-10-10-5.523437 0-10 4.476562-10 10v.269531c0 5.523437 4.476563 10 10 10zm0 0"/></svg>