<svg height="512pt" viewBox="-26 0 512 512.00135" width="512pt" xmlns="http://www.w3.org/2000/svg"><path d="m267.378906 151.15625c-8.234375 64.773438-61.34375 112.859375-124.144531 117-8.488281.570312-17.167969.332031-25.929687-.78125-8.761719-1.113281-17.226563-3.054688-25.300782-5.730469-59.769531-19.722656-99.152344-79.574219-90.917968-144.34375 8.234374-64.773437 61.34375-112.863281 124.144531-117.003906 8.488281-.570313 17.167969-.328125 25.929687.785156 8.761719 1.113281 17.226563 3.054688 25.300782 5.730469 59.769531 19.722656 99.152343 79.570312 90.917968 144.34375zm0 0" fill="#c9f0ff"/><path d="m267.378906 151.15625c-8.234375 64.769531-61.347656 112.863281-124.148437 117-8.488281.570312-17.160157.328125-25.929688-.78125-8.761719-1.113281-17.21875-3.054688-25.292969-5.730469-23.214843-7.660156-43.359374-21.371093-58.824218-39.078125 11.703125 8.992188 24.984375 16.128906 39.472656 20.914063 8.066406 2.671875 16.535156 4.613281 25.296875 5.730469 8.757813 1.105468 17.441406 1.351562 25.929687.777343 62.800782-4.136719 115.914063-52.230469 124.148438-117 5.035156-39.625-7.75-77.410156-32.113281-105.292969 36.59375 28.117188 57.695312 74.382813 51.460937 123.460938zm0 0" fill="#9ae7fd"/><path d="m176.460938 6.8125-33.226563 261.347656c-8.488281.570313-17.167969.328125-25.929687-.785156-8.761719-1.113281-17.226563-3.054688-25.300782-5.730469l33.226563-261.347656c8.488281-.570313 17.167969-.328125 25.929687.785156 8.761719 1.113281 17.226563 3.054688 25.300782 5.730469zm0 0" fill="#64dcfc"/><path d="m145.972656 246.648438-2.742187 21.507812c-8.488281.570312-17.160157.328125-25.929688-.78125-8.761719-1.113281-17.21875-3.054688-25.292969-5.730469l1.660157-13.0625c1.414062.234375 2.847656.441407 4.285156.628907 8.757813 1.105468 17.441406 1.347656 25.929687.777343 7.523438-.496093 14.902344-1.621093 22.089844-3.339843zm0 0" fill="#00d1fc"/><path d="m458.042969 363.980469c10.945312 60.066406-22.816407 117.925781-77.628907 139.351562-7.40625 2.902344-15.210937 5.140625-23.335937 6.621094s-16.21875 2.140625-24.171875 2.035156c-58.847656-.707031-110.851562-42.9375-121.800781-103-10.945313-60.0625 22.816406-117.925781 77.628906-139.347656 7.40625-2.90625 15.210937-5.140625 23.335937-6.625 8.125-1.480469 16.21875-2.140625 24.171876-2.035156 58.847656.707031 110.851562 42.9375 121.800781 103zm0 0" fill="#c9f0ff"/><path d="m458.042969 363.980469c10.945312 60.0625-22.820313 117.929687-77.632813 139.347656-7.40625 2.90625-15.207031 5.140625-23.335937 6.628906-8.125 1.476563-16.214844 2.136719-24.167969 2.035157-22.851562-.277344-44.683594-6.8125-63.46875-18.230469 12.972656 4.714843 26.828125 7.324219 41.09375 7.5 7.945312.101562 16.042969-.554688 24.167969-2.035157 8.121093-1.488281 15.929687-3.722656 23.335937-6.628906 54.8125-21.417968 88.578125-79.285156 77.628906-139.347656-6.695312-36.742188-28.761718-66.816406-58.355468-84.792969 40.5625 14.730469 72.433594 50.015625 80.734375 95.523438zm0 0" fill="#9ae7fd"/><path d="m336.242188 260.980469 44.171874 242.351562c-7.40625 2.902344-15.210937 5.140625-23.335937 6.621094s-16.21875 2.140625-24.171875 2.035156l-44.171875-242.347656c7.40625-2.90625 15.210937-5.140625 23.335937-6.625 8.125-1.480469 16.21875-2.140625 24.171876-2.035156zm0 0" fill="#64dcfc"/><path d="m376.777344 483.386719 3.632812 19.941406c-7.40625 2.90625-15.207031 5.136719-23.335937 6.628906-8.125 1.476563-16.214844 2.136719-24.167969 2.03125l-2.207031-12.113281c1.328125-.191406 2.664062-.410156 3.996093-.648438 8.121094-1.488281 15.933594-3.722656 23.335938-6.628906 6.566406-2.566406 12.828125-5.65625 18.746094-9.210937zm0 0" fill="#00d1fc"/></svg>