<svg id="Capa_1" enable-background="new 0 0 512 512" height="512" viewBox="0 0 512 512" width="512" xmlns="http://www.w3.org/2000/svg"><g><g><path d="m464.863 351.213c-4.204 0-7.611-3.407-7.611-7.612v-57.274c0-4.204 3.407-7.612 7.611-7.612s7.612 3.407 7.612 7.612v57.274c-.001 4.205-3.408 7.612-7.612 7.612z" fill="#365e7d"/></g><g><path d="m336.782 512h-137.656c-27.738 0-50.305-22.567-50.305-50.305v-49.617c0-4.204 3.407-7.612 7.611-7.612s7.611 3.407 7.611 7.612v49.617c0 19.345 15.737 35.082 35.082 35.082h137.655c19.345 0 35.082-15.737 35.082-35.082v-256.041c0-27.738 22.567-50.305 50.305-50.305s50.305 22.567 50.305 50.305v49.499c0 4.204-3.407 7.612-7.612 7.612s-7.611-3.407-7.611-7.612v-49.499c0-19.345-15.737-35.082-35.082-35.082s-35.082 15.737-35.082 35.082v256.041c.002 27.738-22.565 50.305-50.303 50.305z" fill="#365e7d"/></g><path d="m219.67 389.199h-126.475c-28.898 0-52.826-22.447-54.67-51.286l-15.194-237.613c-2.235-34.954 25.513-64.533 60.539-64.533h145.126c35.026 0 62.774 29.579 60.539 64.533l-15.194 237.612c-1.845 28.84-25.773 51.287-54.671 51.287z" fill="#bed8fb"/><path d="m228.996 35.767h-23.211c35.026 0 62.774 29.579 60.539 64.533l-15.194 237.613c-1.844 28.839-25.772 51.286-54.67 51.286h23.211c28.898 0 52.826-22.447 54.67-51.286l15.193-237.613c2.236-34.954-25.512-64.533-60.538-64.533z" fill="#9dc6fb"/><path d="m199.502 320.372h-86.139c-13.39 0-24.244-10.855-24.244-24.244v-167.29c0-13.39 10.855-24.244 24.244-24.244h86.139c13.39 0 24.244 10.855 24.244 24.244v167.29c0 13.39-10.854 24.244-24.244 24.244z" fill="#f6f6f6"/><path d="m199.502 104.593h-19.69c13.39 0 24.244 10.854 24.244 24.244v167.29c0 13.389-10.855 24.244-24.244 24.244h19.69c13.39 0 24.244-10.855 24.244-24.244v-167.29c0-13.389-10.854-24.244-24.244-24.244z" fill="#dddaec"/><path d="m209.081 35.767h-105.296v-14.723c0-11.622 9.421-21.044 21.043-21.044h63.209c11.622 0 21.044 9.422 21.044 21.044z" fill="#407093"/><path d="m188.037 0h-20.685c11.622 0 21.044 9.421 21.044 21.044v14.723h20.685v-14.723c0-11.623-9.422-21.044-21.044-21.044z" fill="#365e7d"/><path d="m179.479 422.226h-46.092c-8.512 0-16.126-5.293-19.091-13.271l-7.342-19.756h98.958l-7.342 19.756c-2.966 7.978-10.58 13.271-19.091 13.271z" fill="#407093"/><path d="m186.047 389.199-7.342 19.756c-2.965 7.978-10.579 13.271-19.091 13.271h19.864c8.512 0 16.126-5.293 19.091-13.271l7.342-19.756z" fill="#365e7d"/><g><g><path d="m133.222 170.572c-4.204 0-7.611-3.407-7.611-7.611v-24.421c0-4.204 3.407-7.612 7.611-7.612s7.611 3.407 7.611 7.612v24.421c0 4.204-3.407 7.611-7.611 7.611z" fill="#da4a54"/></g><g><path d="m145.433 158.362h-24.421c-4.204 0-7.612-3.407-7.612-7.611s3.407-7.611 7.612-7.611h24.421c4.204 0 7.611 3.407 7.611 7.611s-3.407 7.611-7.611 7.611z" fill="#da4a54"/></g></g><g><g><path d="m191.441 195.513h-41.834c-4.204 0-7.611-3.407-7.611-7.611s3.407-7.611 7.611-7.611h41.834c4.204 0 7.611 3.407 7.611 7.611s-3.407 7.611-7.611 7.611z" fill="#365e7d"/></g><g><path d="m191.441 233.362h-41.834c-4.204 0-7.611-3.407-7.611-7.611s3.407-7.611 7.611-7.611h41.834c4.204 0 7.611 3.407 7.611 7.611s-3.407 7.611-7.611 7.611z" fill="#365e7d"/></g><g><path d="m191.441 271.211h-41.834c-4.204 0-7.611-3.407-7.611-7.611s3.407-7.612 7.611-7.612h41.834c4.204 0 7.611 3.407 7.611 7.612s-3.407 7.611-7.611 7.611z" fill="#365e7d"/></g></g><path d="m475.452 296.477h-21.178c-2.903 0-5.396-2.063-5.939-4.914l-7.296-38.292c-.71-3.726 2.146-7.178 5.939-7.178h35.771c3.793 0 6.649 3.452 5.939 7.178l-7.296 38.292c-.545 2.851-3.038 4.914-5.94 4.914z" fill="#407093"/></g></svg>