<svg height="464pt" viewBox="-4 0 464 464" width="464pt" xmlns="http://www.w3.org/2000/svg"><path d="m304 80h96v39.769531h-96zm0 0" fill="#cfdfe8"/><path d="m312 112h80c17.671875 0 32 14.328125 32 32v304c0 8.835938-7.164062 16-16 16h-112c-8.835938 0-16-7.164062-16-16v-304c0-17.671875 14.328125-32 32-32zm0 0" fill="#32b1cc"/><path d="m216 32-18.800781 216-5.519531 64-7.679688 88h-144l-7.679688-88-5.519531-64-18.800781-216zm0 0" fill="#2d75bb"/><path d="m40 400h144v32c0 17.671875-14.328125 32-32 32h-80c-17.671875 0-32-14.328125-32-32zm0 0" fill="#32b1cc"/><path d="m76 400h72v16c0 8.835938-7.164062 16-16 16h-40c-8.835938 0-16-7.164062-16-16zm0 0" fill="#fff"/><path d="m216 32h-208l-8-32h224zm0 0" fill="#32b1cc"/><path d="m336 32h32v48h-32zm0 0" fill="#7d8d9c"/><path d="m456 32h-160v-32h32l112 16zm0 0" fill="#32b1cc"/><path d="m280 160h144v288c0 8.835938-7.164062 16-16 16h-112c-8.835938 0-16-7.164062-16-16zm0 0" fill="#cfdfe8"/><path d="m280 192h144v176h-144zm0 0" fill="#2d75bb"/><g fill="#7fcac9"><path d="m112 120c0 17.671875-14.328125 32-32 32s-32-14.328125-32-32 32-56 32-56 32 38.328125 32 56zm0 0"/><path d="m168 192c0 13.253906-10.746094 24-24 24s-24-10.746094-24-24c0-13.257812 24-48 24-48s24 34.742188 24 48zm0 0"/><path d="m392.726562 295.273438c0 22.492187-18.234374 40.726562-40.726562 40.726562s-40.726562-18.234375-40.726562-40.726562c0-22.472657 40.726562-71.273438 40.726562-71.273438s40.726562 48.800781 40.726562 71.273438zm0 0"/></g><path d="m197.199219 248-5.519531 64h-159.359376l-5.519531-64zm0 0" fill="#ffd782"/><path d="m160 288h-96c-4.417969 0-8-3.582031-8-8s3.582031-8 8-8h96c4.417969 0 8 3.582031 8 8s-3.582031 8-8 8zm0 0" fill="#7fcac9"/><path d="m352 440h-40c-4.417969 0-8-3.582031-8-8v-32c0-4.417969 3.582031-8 8-8s8 3.582031 8 8v24h32c4.417969 0 8 3.582031 8 8s-3.582031 8-8 8zm0 0" fill="#2d75bb"/><path d="m392 440h-8c-4.417969 0-8-3.582031-8-8s3.582031-8 8-8h8c4.417969 0 8 3.582031 8 8s-3.582031 8-8 8zm0 0" fill="#2d75bb"/><path d="m152 376c-2.570312 0-4.984375-1.238281-6.484375-3.324219-1.503906-2.085937-1.910156-4.765625-1.101563-7.203125l8-24c1.398438-4.199218 5.933594-6.46875 10.128907-5.074218 4.199219 1.398437 6.46875 5.933593 5.074219 10.128906l-8 24c-1.09375 3.277344-4.164063 5.484375-7.617188 5.472656zm0 0" fill="#7fcac9"/></svg>