<svg id="Capa_1" enable-background="new 0 0 512 512" height="512" viewBox="0 0 512 512" width="512" xmlns="http://www.w3.org/2000/svg"><g><path d="m271 32.578c0 17.417-5.347 35.556-15 49.911-9.653-14.355-15-32.494-15-49.911l-15 47.053v86.369h30 30v-83.525z" fill="#edf5ff"/><path d="m286 82.475-15-49.896c0 17.417-5.347 35.556-15 49.911v83.51h30z" fill="#d5e8fe"/><path d="m226 346v82.211l15 51.211c0-17.417 5.347-34.556 15-48.911 9.653 14.355 15 31.494 15 48.911l15-51.211v-82.211h-30z" fill="#edf5ff"/><path d="m286 428.211v-82.211h-30v84.511c9.653 14.355 15 31.494 15 48.911z" fill="#d5e8fe"/><path d="m507.605 95.395c-16.274-16.275-25.605-39.804-25.605-62.817v-17.578c0-8.291-6.709-15-15-15h-181c-8.291 0-15 6.709-15 15v17.578 103.422c0 8.291-6.709 15-15 15s-15-6.709-15-15v-103.422-17.578c0-8.291-6.709-15-15-15h-181c-8.291 0-15 6.709-15 15v17.578c0 23.013-9.331 46.542-25.605 62.816-2.813 2.813-4.395 6.622-4.395 10.606v301c0 3.984 1.582 7.793 4.395 10.605 16.274 16.275 25.605 38.804 25.605 61.817v17.578c0 8.291 6.709 15 15 15h181c8.291 0 15-6.709 15-15v-17.578-103.422c0-8.291 6.709-15 15-15s15 6.709 15 15v103.422 17.578c0 8.291 6.709 15 15 15h181c8.291 0 15-6.709 15-15v-17.578c0-23.013 9.331-45.542 25.605-61.816 2.813-2.813 4.395-6.622 4.395-10.606v-301c0-3.984-1.582-7.793-4.395-10.605z" fill="#d5e8fe"/><path d="m271 376v103.422 17.578c0 8.291 6.709 15 15 15h181c8.291 0 15-6.709 15-15v-17.578c0-23.013 9.331-45.542 25.605-61.816 2.813-2.813 4.395-6.622 4.395-10.606v-301c0-3.984-1.582-7.793-4.395-10.605-16.274-16.275-25.605-39.804-25.605-62.817v-17.578c0-8.291-6.709-15-15-15h-181c-8.291 0-15 6.709-15 15v17.578 103.422c0 8.291-6.709 15-15 15v210c8.291 0 15 6.709 15 15z" fill="#b5dbff"/><path d="m151 452h-61c-7.837 0-14.341-6.021-14.956-13.843l-20.508-264.598c-6.489-45.146 18.08-90.132 59.755-110.977 4.219-2.109 9.199-2.109 13.418 0 41.675 20.845 65.244 65.83 58.652 111.943l-20.405 263.632c-.615 7.822-7.119 13.843-14.956 13.843z" fill="#edf5ff"/><path d="m422 452h-61c-7.837 0-14.341-6.021-14.956-13.843l-20.508-264.599c-6.489-45.146 17.08-90.132 58.755-110.977 4.219-2.109 9.199-2.109 13.418 0 41.675 20.845 66.244 65.83 59.652 111.943l-20.405 263.632c-.615 7.823-7.119 13.844-14.956 13.844z" fill="#d5e8fe"/><path d="m256 241c8.291 0 15-6.709 15-15v-30c0-8.291-6.709-15-15-15s-15 6.709-15 15v30c0 8.291 6.709 15 15 15z" fill="#edf5ff"/><path d="m241 316c0 8.291 6.709 15 15 15s15-6.709 15-15v-30c0-8.291-6.709-15-15-15s-15 6.709-15 15z" fill="#edf5ff"/><g fill="#d5e8fe"><path d="m271 226v-30c0-8.291-6.709-15-15-15v60c8.291 0 15-6.709 15-15z"/><path d="m271 316v-30c0-8.291-6.709-15-15-15v60c8.291 0 15-6.709 15-15z"/></g></g></svg>