<svg id="icons" enable-background="new 0 0 64 64" height="512" viewBox="0 0 64 64" width="512" xmlns="http://www.w3.org/2000/svg"><path d="m16 5h32v54h-32z" fill="#e6e9ed"/><path d="m16 59h32v4h-32z" fill="#ccd1d9"/><path d="m16 1h32v4h-32z" fill="#ccd1d9"/><path d="m40 23.93v26.06c0 2.22-1.79 4.01-4 4.01h-8c-2.21 0-4-1.79-4-4.01v-26.06c0-5.96 3.22-11.159 8-13.939l.01.009c4.77 2.78 7.99 7.97 7.99 13.93z" fill="#ffce54"/><path d="m32.01 10-.01-.01c-.522.304-1.021.642-1.505 1 3.938 2.928 6.502 7.625 6.502 12.939v26.061c0 2.22-1.79 4.01-4 4.01h3.003c2.21 0 4-1.79 4-4.01v-26.06c0-5.96-3.22-11.15-7.99-13.93z" fill="#f6bb42"/><path d="m47.999 64h-31.998c-.553 0-1-.447-1-1v-62c0-.553.447-1 1-1h31.998c.553 0 1 .447 1 1v62c0 .553-.447 1-1 1zm-30.998-2h29.998v-60h-29.998z"/><path d="m24 24.936c-.553 0-1-.447-1-1 0-6.09 3.258-11.766 8.502-14.811.476-.277 1.089-.115 1.366.362.278.478.115 1.089-.362 1.366-4.63 2.69-7.506 7.703-7.506 13.083 0 .552-.447 1-1 1z"/><path d="m40 24.936c-.553 0-1-.447-1-1 0-5.371-2.871-10.379-7.491-13.07-.478-.278-.639-.891-.361-1.367.277-.478.891-.638 1.367-.361 5.234 3.048 8.485 8.717 8.485 14.798 0 .552-.447 1-1 1z"/><path d="m28.002 54.998c-2.758 0-5.002-2.244-5.002-5.002 0-.553.447-1 1-1s1 .447 1 1c0 1.655 1.347 3.002 3.002 3.002.553 0 1 .447 1 1s-.447 1-1 1z"/><path d="m35.998 54.998c-.553 0-1-.447-1-1s.447-1 1-1c1.655 0 3.002-1.347 3.002-3.002 0-.553.447-1 1-1s1 .447 1 1c0 2.758-2.244 5.002-5.002 5.002z"/><path d="m35.998 54.998h-7.996c-.553 0-1-.447-1-1s.447-1 1-1h7.996c.553 0 1 .447 1 1s-.447 1-1 1z"/><path d="m40 50.996c-.553 0-1-.447-1-1v-26.06c0-.553.447-1 1-1s1 .447 1 1v26.061c0 .552-.447.999-1 .999z"/><path d="m24 50.996c-.553 0-1-.447-1-1v-26.06c0-.553.447-1 1-1s1 .447 1 1v26.061c0 .552-.447.999-1 .999z"/><path d="m47.999 60h-31.998c-.553 0-1-.447-1-1s.447-1 1-1h31.998c.553 0 1 .447 1 1s-.447 1-1 1z"/><path d="m47.999 6.002h-31.998c-.553 0-1-.447-1-1s.447-1 1-1h31.998c.553 0 1 .447 1 1s-.447 1-1 1z"/></svg>