<svg id="Capa_1" enable-background="new 0 0 497 497" height="512" viewBox="0 0 497 497" width="512" xmlns="http://www.w3.org/2000/svg"><g><path d="m467.2 285-42.952 212h30.075c15.747 0 28.814-12.175 29.925-27.883l12.459-176.088c.307-4.34-3.131-8.029-7.481-8.029z" fill="#9bfef7"/><path d="m75.274 90h150v75h-150z" fill="#ffa17d"/><path d="m45.274 90h150v75h-150z" fill="#ffbea4"/><path d="m225.275 135h-30v362h30c24.853 0 45-20.147 45-45v-272c0-24.853-20.148-45-45-45z" fill="#ffbea4"/><path d="m240.275 452v-45l-60-91 60-91v-45c0-24.853-20.147-45-45-45h-150c-24.853 0-45 20.147-45 45v272c0 24.853 20.147 45 45 45h150c24.852 0 45-20.147 45-45z" fill="#ffd4c4"/><path d="m240.275 285-150.001 75 120.001-135h30z" fill="#f22433"/><path d="m210.275 360-180.001-75v-60h180.001z" fill="#ff4c4e"/><path d="m240.275 285v122h-30l-60-61 60-61z" fill="#bbfff9"/><path d="m210.275 285v30l-15 15 15 15v62h-180v-122z" fill="#fff"/><path d="m210.274 0-45 90 75-15v-67.5c0-4.142-3.358-7.5-7.5-7.5z" fill="#49f5e8"/><path d="m180.274 0-45 90h75v-90z" fill="#9bfef7"/><path d="m150.274 0-45 90h75v-90z" fill="#dbfffc"/><path d="m120.274 0-45 90h75v-90z" fill="#9bfef7"/><path d="m90.274 0-30 90h60v-90z" fill="#dbfffc"/><path d="m60.274 0 30 90-60-15v-67.5c0-4.142 3.358-7.5 7.5-7.5z" fill="#dbfffc"/><path d="m60.274 0h30v90h-30z" fill="#9bfef7"/><path d="m240.274 75v22.5c0 4.142-3.358 7.5-7.5 7.5h-22.5l-60-15 60-15z" fill="#4ad6cf"/><path d="m210.274 75v30h-172.5c-4.142 0-7.5-3.358-7.5-7.5v-22.5z" fill="#49f5e8"/><path d="m60.275 315h150v30h-150z" fill="#ff4c4e"/><path d="m454.173 469.117-40.605-62.117 49.387-62 4.245-60h-158.876c-4.351 0-7.788 3.69-7.481 8.029l12.459 176.088c1.111 15.708 14.178 27.883 29.925 27.883h81.021c15.746 0 28.813-12.175 29.925-27.883z" fill="#dbfffc"/><path d="m334.594 345 8.633 122h111.095l8.633-122z" fill="#4ad6cf"/></g></svg>