<svg id="Capa_1" enable-background="new 0 0 512 512" height="512" viewBox="0 0 512 512" width="512" xmlns="http://www.w3.org/2000/svg"><g><g><path d="m421.72 97.862c-1.941 0-3.881-.74-5.362-2.221-2.961-2.961-2.961-7.762 0-10.723l82.697-82.697c2.961-2.961 7.762-2.961 10.723 0s2.961 7.762 0 10.723l-82.697 82.697c-1.479 1.481-3.42 2.221-5.361 2.221z" fill="#b8f0ff"/></g><path d="m425.183 134.816-48-48 32.772-23.8c4.397-3.193 10.462-2.715 14.305 1.127l23.595 23.595c3.842 3.842 4.32 9.908 1.127 14.305z" fill="#bac5e2"/><g><path d="m110.703 455.793-42.841-43.886 63.051-65.857 39.484 50.049z" fill="#e9efff"/></g><path d="m205.619 360.877-54.496-54.496-94.916 94.916 12.774 12.774 55.138-55.138c2.516-2.516 6.596-2.516 9.112 0 2.516 2.516 2.516 6.596 0 9.112l-55.719 55.719c-2.961 2.961-2.961 7.762 0 10.723 1.48 1.48 3.421 2.221 5.362 2.221s3.881-.74 5.362-2.221l49.641-49.641c5.873-5.873 15.395-5.873 21.268 0l11.253 11.253z" fill="#d3dcfb"/><g><path d="m373.044 80.52c-11.862-11.862-25.808-2.399-37.67 9.463l-80.071 90.99 1.087 5.973 88.63 33.334 89.022-33.76 5.102-5.102c11.862-11.862 11.862-31.094 0-42.956l-50.465-50.465z" fill="#e9efff"/></g><g><path d="m227.459 204.024-88.287 70.332 103.517 103.517 31.823-31.823-1.072-12.577 11.795 1.854 19.932-19.932-.457-11.812 11.18 1.089 20.049-20.049 1.027-9.884 9.696-.839 87.379-87.379-177.652.426z" fill="#42c3fc"/></g><g><path d="m373.537 72.857c-11.862-11.862-31.094-11.862-42.956 0l-114.09 114.09 11.069 9.573 28.829-9.573 94.141-94.141c11.862-11.862 31.094-11.862 42.956 0z" fill="#d3dcfb"/></g><g><path d="m154.076 289.26 102.313-102.313h-39.898l-82.364 82.364z" fill="#1aa9e8"/></g><g><path d="m139.507 472.814-80.835-80.834c-6.965-6.965-27.333-14.704-34.298-7.74l-8.741 8.741c-6.965 6.965 2.84 26.724 9.804 33.689l80.107 80.107c6.965 6.965 18.257 6.965 25.221 0l8.741-8.741c6.966-6.965 6.966-18.257.001-25.222z" fill="#bac5e2"/></g><g><path d="m30.017 399.373 2.087-2.087c8.802-8.802 23.073-8.802 31.875 0l-24.794-24.794c-6.965-6.964-18.257-6.964-25.221 0l-8.741 8.741c-6.965 6.965-6.965 18.257 0 25.221l24.794 24.794c-8.802-8.802-8.802-23.073 0-31.875z" fill="#a7b4d1"/></g><g><path d="m273.929 391.621-132.926-132.926-21.397-14.149c-8.08-8.08-12.059-5.411-20.139 2.669l-7.158 6.309c-8.08 8.08-14.389 8.298-6.308 16.378l16.328 28.924 132.198 132.198c8.08 8.08 21.181 8.08 29.262 0l10.141-10.141c8.079-8.081 8.079-21.182-.001-29.262z" fill="#bac5e2"/></g><g><path d="m106.303 265.819 2.421-2.421c10.211-10.211 26.767-10.212 36.979-.002l-25.324-25.324c-8.08-8.08-21.181-8.08-29.262 0l-10.141 10.141c-8.08 8.08-8.08 21.181 0 29.262l25.327 25.327c-10.212-10.214-10.212-26.771 0-36.983z" fill="#a7b4d1"/></g><g fill="#1c8ae5"><path d="m323.57 250.879c-2.961-2.961-7.762-2.961-10.723 0s-2.961 7.762 0 10.723l23.092 23.021 10.723-10.723z"/><path d="m292.833 281.615c-2.961-2.961-7.762-2.961-10.723 0s-2.961 7.762 0 10.723l23.057 23.057 10.723-10.723z"/><path d="m262.097 312.352c-2.961-2.961-7.762-2.961-10.723 0s-2.961 7.762 0 10.723l23.138 22.975 10.723-10.723z"/></g></g></svg>