<svg id="Capa_1" enable-background="new 0 0 512 512" height="512" viewBox="0 0 512 512" width="512" xmlns="http://www.w3.org/2000/svg"><g><g><path clip-rule="evenodd" d="m358.259 183.864c0-11.767.648-22.76-9.186-31.369l-50.872-44.595-65.034-9.443-67.213 9.443-50.873 44.596c-9.833 8.609-9.185 19.602-9.185 31.369v6.315l129.981 8.282 122.385-8.282v-6.316z" fill="#b3e59f" fill-rule="evenodd"/></g><g><path clip-rule="evenodd" d="m358.259 190.18h-252.365v216.931l124.151 14.835 128.214-14.895c0-73.223 0-137.927 0-216.871z" fill="#f9f7f8" fill-rule="evenodd"/></g><g><path clip-rule="evenodd" d="m322.96 499.788c-14.426-8.371-6.447-30.326-10.186-46.592-3.68-16.116-32.355-16.861-43.778-16.861h-163.102v52.877c0 5.809 4.711 10.575 10.451 10.575h99.127 16.605 16.634 74.249z" fill="#b3e59f" fill-rule="evenodd"/></g><g><path clip-rule="evenodd" d="m322.96 499.788c51.021 29.492 148.558 7.15 148.558-84.366 0-4.617-3.739-8.401-8.302-8.401l-104.956.03-252.365.06h-44.898c-26.438 0-29.735 38.697 4.416 38.697h40.481 163.101c11.423 0 21.403.715 25.083 16.861 3.74 16.266 14.456 28.748 28.882 37.119z" fill="#ff8086" fill-rule="evenodd"/></g><g><path clip-rule="evenodd" d="m286.66 310.204v-17.159c0-6.464-5.24-11.767-11.629-11.767h-27.203v-27.526c0-6.464-5.24-11.767-11.629-11.767h-16.958c-6.418 0-11.658 5.303-11.658 11.767v27.526h-27.203c-6.389 0-11.629 5.303-11.629 11.767v17.159c0 6.494 5.24 11.797 11.629 11.797h27.203v27.526c0 6.464 5.24 11.767 11.658 11.767h16.958c6.389 0 11.629-5.303 11.629-11.767v-27.526h27.203c6.388 0 11.629-5.303 11.629-11.797z" fill="#ff8086" fill-rule="evenodd"/></g><g><path clip-rule="evenodd" d="m298.201 68.487v-59.282c0-5.064-4.092-9.205-9.097-9.205h-57.027-56.997c-5.005 0-9.127 4.141-9.127 9.205v59.282l68.008 9.473z" fill="#7e707d" fill-rule="evenodd"/></g><g><path clip-rule="evenodd" d="m298.201 68.487v-59.282c0-5.064-4.092-9.205-9.097-9.205h-34.298c5.005 0 9.127 4.141 9.127 9.205v59.282z" fill="#6a5d6a" fill-rule="evenodd"/></g><g><path clip-rule="evenodd" d="m358.259 183.864c0-11.767.648-22.76-9.186-31.369l-50.872-44.595h-34.269v9.473l50.873 44.566c8.95 7.865 9.215 17.666 9.186 28.241h34.269v-6.316z" fill="#95d6a4" fill-rule="evenodd"/></g><g><path clip-rule="evenodd" d="m358.259 279.699v-89.519h-34.269v3.158 6.315 207.399h34.269v-44.864c-10.658-7.239-18.135-19.453-18.135-36.612 0-12.333 8.45-29.641 18.135-45.877z" fill="#f0f0f0" fill-rule="evenodd"/></g><g><path clip-rule="evenodd" d="m348.367 509.44c52.522 11.648 123.15-16.116 123.15-94.017 0-4.617-3.739-8.401-8.302-8.401h-47.782c4.563 0 8.302 3.783 8.302 8.401.001 55.439-35.799 85.497-75.368 94.017z" fill="#e5646e" fill-rule="evenodd"/></g><g><path clip-rule="evenodd" d="m165.953 68.487h132.248v39.412h-132.248z" fill="#f9f7f8" fill-rule="evenodd"/></g><g><path clip-rule="evenodd" d="m298.201 107.9v-39.413h-34.269v9.474 29.939z" fill="#f0f0f0" fill-rule="evenodd"/></g><g><path clip-rule="evenodd" d="m385.021 370.142c22.463 0 44.926-14.865 44.926-44.566 0-22.909-29.087-62.857-41.276-81.386-2.885-4.379-4.416-4.379-7.301 0-5.623 8.55-14.809 21.628-23.111 35.51-9.686 16.236-18.135 33.544-18.135 45.877 0 17.159 7.478 29.373 18.135 36.612 7.802 5.301 17.282 7.953 26.762 7.953z" fill="#b3e59f" fill-rule="evenodd"/></g><g><path clip-rule="evenodd" d="m429.948 325.576c0-22.909-29.087-62.857-41.276-81.386-2.885-4.379-4.416-4.379-7.301 0-3.238 4.945-7.713 11.41-12.483 18.678 12.512 19.364 26.232 43.106 26.232 58.835 0 24.219-14.926 38.548-32.591 43.017 6.86 3.605 14.691 5.422 22.493 5.422 22.462 0 44.926-14.866 44.926-44.566z" fill="#95d6a4" fill-rule="evenodd"/></g></g></svg>