<svg id="Capa_1" enable-background="new 0 0 512 512" height="512" viewBox="0 0 512 512" width="512" xmlns="http://www.w3.org/2000/svg"><g><g clip-rule="evenodd" fill-rule="evenodd"><path d="m74.85 504.488h99.724v-160.528l-59.415-6.718-55.049 6.718v145.788c-.001 8.107 6.633 14.74 14.74 14.74z" fill="#80b4fb"/><path d="m135.314 504.488h39.26v-160.528h-43.909v140.884c0 7.058 1.672 13.748 4.649 19.644z" fill="#61a2f9"/><path d="m200.625 343.96v-18.68c0-8.107-6.633-14.741-14.74-14.741h-111.035c-8.107 0-14.74 6.634-14.74 14.741v18.68z" fill="#b3e59f"/><path d="m167.941 382.965h-58.31c-4.281 0-7.767 3.486-7.767 7.767v66.984c0 4.28 3.486 7.767 7.767 7.767h58.31c4.28 0 7.767-3.487 7.767-7.767v-66.984c0-4.28-3.487-7.767-7.767-7.767z" fill="#b3e59f"/><path d="m338.163 504.488h91.391c8.107 0 14.74-6.633 14.74-14.74v-190.009l-61.796-5.839-59.046 5.839v190.009c-.001 8.107 6.604 14.74 14.711 14.74z" fill="#ffe07d"/><path d="m405.289 504.488h24.265c8.107 0 14.74-6.633 14.74-14.74v-190.009h-24.265v190.009c0 8.107-6.633 14.74-14.74 14.74z" fill="#ffd064"/><path d="m444.294 299.739v-18.681c0-8.107-6.633-14.74-14.74-14.74h-91.391c-8.079 0-14.712 6.633-14.712 14.74v18.681z" fill="#f37c7c"/><path d="m444.294 299.739v-18.681c0-8.107-6.633-14.74-14.74-14.74h-24.265c8.107 0 14.74 6.633 14.74 14.74v18.681z" fill="#ee6161"/><path d="m444.294 353.484h-45.298c-4.252 0-7.767 3.487-7.767 7.768v67.011c0 4.252 3.515 7.739 7.767 7.739h45.298z" fill="#f37c7c"/><path d="m204.537 226.065h94.225v37.305h-94.225z" fill="#bed8fb"/><path d="m197.847 167.586h107.604c10.801 0 19.645 8.844 19.645 19.644v23.075c0 10.828-8.844 19.672-19.645 19.672h-107.604c-10.8 0-19.645-8.844-19.645-19.672v-23.075c0-10.799 8.844-19.644 19.645-19.644zm150.55 141.479v175.779c0 10.8-8.873 19.644-19.673 19.644h-154.15c-10.8 0-19.645-8.844-19.645-19.644v-175.779c0-27.297 22.337-49.606 49.607-49.606h94.225c27.298-.001 49.636 22.309 49.636 49.606z" fill="#f9f7f8"/><path d="m281.187 167.586h24.264c10.801 0 19.645 8.844 19.645 19.644v23.075c0 10.828-8.844 19.672-19.645 19.672h-24.264c10.8 0 19.644-8.844 19.644-19.672v-23.075c0-10.799-8.845-19.644-19.644-19.644zm67.21 141.479v175.779c0 10.8-8.873 19.644-19.673 19.644h-24.265c10.8 0 19.645-8.844 19.645-19.644v-175.779c0-27.297-22.309-49.606-49.607-49.606h24.265c27.297-.001 49.635 22.309 49.635 49.606z" fill="#ebe8fa"/><path d="m154.929 353.683h193.439v106.216h-193.439z" fill="#bed8fb"/><path d="m152.463 47.623-16.101 27.865c-6.747 11.708-2.693 26.816 9.014 33.562 11.679 6.747 26.788 2.722 33.535-8.985l16.101-27.865-19.899-15.024z" fill="#f37c7c"/><path d="m176.814 61.683-22.167 38.382c-2.268 3.912-5.443 6.973-9.156 9.042 11.679 6.661 26.703 2.608 33.421-9.042l16.101-27.865z" fill="#ee6161"/><path d="m202.099 10.772c-11.679-6.775-26.788-2.721-33.534 8.986l-16.101 27.865 42.548 24.577 16.101-27.893c6.746-11.68 2.693-26.788-9.014-33.535z" fill="#80b4fb"/><path d="m202.099 10.772c-7.768-4.507-17.037-4.224-24.378-.085 11.792 6.633 15.846 21.968 9.128 33.619l-10.034 17.376 18.198 10.517 16.101-27.893c6.745-11.679 2.692-26.787-9.015-33.534z" fill="#61a2f9"/><path d="m327.136 41.33c-17.632-10.177-40.167-4.139-50.344 13.493-10.177 17.631-4.139 40.167 13.493 50.344 17.603 10.176 40.139 4.139 50.315-13.493 10.177-17.633 4.14-40.168-13.464-50.344z" fill="#ebe8fa"/><path d="m327.136 41.33c-9.666-5.557-20.807-6.265-30.558-2.864 2.126.737 4.252 1.701 6.265 2.864 17.632 10.176 23.669 32.711 13.493 50.344-4.592 7.965-11.708 13.549-19.786 16.356 16.384 5.754 35.065-.766 44.051-16.356 10.176-17.633 4.139-40.168-13.465-50.344z" fill="#dddaec"/><path d="m467.057 110.326c-16.725-14.032-45.979-6.718-65.34 16.356s-21.487 53.15-4.762 67.182c16.753 14.06 46.007 6.718 65.368-16.328 19.36-23.075 21.486-53.179 4.734-67.21z" fill="#f37c7c"/><path d="m467.057 110.326c-8.788-7.37-21.034-8.844-33.506-5.244 3.345 1.191 6.463 2.92 9.241 5.244 16.753 14.032 14.598 44.136-4.762 67.21-9.156 10.913-20.58 18.312-31.805 21.572 16.895 5.953 39.94-2.325 56.098-21.572 19.36-23.075 21.486-53.179 4.734-67.21z" fill="#ee6161"/><path d="m104.444 198.314c13.862-11.651 11.254-37.588-5.839-57.969-17.093-20.353-42.18-27.44-56.07-15.789-13.862 11.65-11.254 37.588 5.839 57.969 17.093 20.353 42.209 27.44 56.07 15.789z" fill="#b3e59f"/><path d="m104.444 198.314c13.862-11.651 11.254-37.588-5.839-57.969-15.109-18.028-36.539-25.626-50.854-19.077 9.297 3.26 18.793 9.779 26.589 19.077 17.093 20.381 19.701 46.318 5.84 57.969-1.588 1.332-3.345 2.438-5.188 3.288 11.083 3.827 21.911 3.034 29.452-3.288z" fill="#95d6a4"/><path d="m324.104 353.683h24.293v106.216h-24.293z" fill="#9dc6fb"/><path d="m420.029 353.484h24.265v82.518h-24.265z" fill="#ee6161"/><path d="m274.496 229.977h24.265v29.481h-24.265z" fill="#9dc6fb"/><path d="m130.665 382.965h24.265v82.518h-24.265zm0-39.005h24.265v-33.421h-24.265z" fill="#95d6a4"/></g><path d="m67.593 351.443v55.787c0 4.139-3.345 7.512-7.483 7.512-4.139 0-7.512-3.373-7.512-7.512v-81.95c0-6.123 2.495-11.679 6.548-15.705 4.025-4.025 9.581-6.52 15.704-6.52h72.879c1.417-13.323 7.456-25.313 16.47-34.328 8.674-8.674 20.126-14.599 32.854-16.299v-14.967c-7.172-.227-13.635-3.232-18.369-7.966-4.932-4.904-7.965-11.707-7.965-19.19v-23.075c0-7.483 3.033-14.258 7.965-19.191 4.904-4.904 11.707-7.965 19.163-7.965h107.604c7.484 0 14.259 3.062 19.191 7.965 4.904 4.932 7.965 11.707 7.965 19.191v23.075c0 7.483-3.062 14.287-7.965 19.19-4.762 4.734-11.225 7.739-18.369 7.966v14.967c8.306 1.105 16.101 4.025 22.904 8.334 2.806-1.247 5.924-1.928 8.986-1.928h91.391c6.123 0 11.679 2.495 15.704 6.52s6.548 9.581 6.548 15.704v208.689c0 6.123-2.523 11.707-6.548 15.732-4.025 4.026-9.581 6.52-15.704 6.52-118.234 0-236.413 0-354.704 0-6.123 0-11.679-2.494-15.704-6.52-4.053-4.025-6.548-9.609-6.548-15.732v-48.53c0-4.139 3.373-7.512 7.512-7.512s7.483 3.373 7.483 7.512v48.53c0 1.984.822 3.798 2.154 5.13 1.304 1.304 3.118 2.126 5.102 2.126h75.459c-1.842-3.657-2.891-7.795-2.891-12.161v-11.849h-45.553c-4.139 0-7.512-3.373-7.512-7.512v-82.518c0-4.139 3.373-7.512 7.512-7.512h45.553v-24.01h-79.824zm7.313-181.419c-3.175 2.636-7.88 2.239-10.545-.936-2.636-3.175-2.239-7.909.936-10.545l6.775-5.698c3.175-2.636 7.909-2.239 10.545.936 2.665 3.175 2.239 7.909-.936 10.545zm30.785 3.317c-1.955-19.531-19.446-40.366-38.325-45.695-16.81-4.734-27.837 4.507-26.079 21.883 1.956 19.531 19.445 40.366 38.353 45.695 16.81 4.734 27.808-4.507 26.051-21.883zm14.882-1.474c2.806 27.894-18 45.355-44.987 37.758-24.888-7.002-46.602-32.911-49.182-58.621-2.806-27.893 18-45.355 44.986-37.758 24.89 7.002 46.603 32.91 49.183 58.621zm265.099-34.385c1.871-3.685 6.35-5.159 10.035-3.316 3.713 1.871 5.188 6.378 3.316 10.063-4.479 8.873-6.407 18.057-5.698 26.136.624 7.257 3.43 13.55 8.447 17.773 6.406 5.386 15.534 6.604 25.059 4.224 10.375-2.608 21.09-9.355 29.736-19.644 8.646-10.29 13.436-22.054 14.173-32.712.709-9.808-2.069-18.567-8.476-23.925-5.045-4.224-11.735-5.896-18.992-5.244-8.079.709-16.753 4.195-24.747 10.177-3.316 2.466-8.022 1.786-10.488-1.531-2.466-3.316-1.786-8.022 1.531-10.488 10.233-7.653 21.628-12.161 32.4-13.096 11.112-.992 21.657 1.757 29.906 8.674 10.318 8.674 14.853 21.969 13.833 36.482-1.049 14.684-7.654 29.311-17.546 41.131-9.979 11.962-23.301 21.09-37.702 24.69-14.116 3.543-27.978 1.389-38.296-7.256-8.278-6.946-12.813-16.838-13.777-27.95-.934-10.774 1.532-22.764 7.286-34.188zm-56.098-43.569-49.21-28.404c-1.389 5.103-1.361 10.375-.028 15.336 4.224 15.704 20.296 24.945 35.972 20.75 4.932-1.332 9.553-3.94 13.266-7.682zm-41.726-41.33 49.182 28.403c1.389-5.103 1.361-10.375.028-15.336-4.195-15.704-20.296-24.945-35.972-20.75-4.933 1.306-9.525 3.942-13.238 7.683zm9.383-22.167c23.642-6.321 47.963 7.739 54.284 31.352 6.35 23.613-7.739 47.991-31.352 54.312-23.585 6.322-47.963-7.767-54.284-31.352-6.35-23.641 7.738-47.991 31.352-54.312zm-111.829-14.854c-5.641 1.531-7.597 4.11-10.744 8.532l-11.99 20.807 24.775 14.287 4.819 2.778 12.359-21.402c2.296-3.912 2.835-8.561 1.672-12.954-2.465-9.128-11.735-14.486-20.891-12.048zm-3.855-14.457c7.909-2.126 16.64-1.248 24.293 3.175 7.342 4.11 12.756 11.367 14.91 19.474 2.211 8.164 1.077 17.008-3.175 24.322l-31.947 55.305c-4.139 7.143-11.82 13.209-19.701 15.335-8.533 2.268-17.179.907-24.265-3.175-7.115-4.082-12.643-10.914-14.938-19.474-2.069-7.739-.623-17.717 3.43-24.775l31.692-54.879c3.685-7.37 11.821-13.21 19.701-15.308zm-26.334 56.723-12.359 21.401c-2.268 3.941-2.834 8.589-1.672 12.955 2.466 9.184 11.707 14.513 20.892 12.047 5.159-1.36 7.767-4.025 10.602-8.305l12.132-21.005-24.774-14.315zm70.414 341.72c-4.167 0-7.512-3.373-7.512-7.512s3.345-7.483 7.512-7.483h52.073c4.139 0 7.483 3.345 7.483 7.483 0 4.139-3.345 7.512-7.483 7.512zm-26.533 29.481c-4.139 0-7.513-3.374-7.513-7.512 0-4.139 3.374-7.484 7.513-7.484h105.138c4.139 0 7.484 3.345 7.484 7.484 0 4.138-3.345 7.512-7.484 7.512zm184.651-17.292c0-4.139 3.345-7.512 7.484-7.512s7.512 3.373 7.512 7.512v16.781h38.041v-67.55h-38.041v16.781c0 4.139-3.374 7.512-7.512 7.512s-7.484-3.373-7.484-7.512v-24.265c0-4.139 3.345-7.512 7.484-7.512h45.553v-38.75c-7.427 0-80.901 0-80.901 0v152.676 24.945c0 4.365-1.049 8.504-2.892 12.161h76.565c1.983 0 3.798-.822 5.102-2.126 1.332-1.332 2.126-3.147 2.126-5.13v-46.234h-45.553c-4.139 0-7.484-3.345-7.484-7.512zm-236.327 46.262v-67.551h-38.041v67.551zm196.216-184.169c4.281 5.443 7.598 11.651 9.695 18.397h83.453v-11.169c0-1.984-.793-3.798-2.126-5.102-1.304-1.304-3.119-2.126-5.102-2.126zm-196.216 44.221h-72.568c-1.984 0-3.798.822-5.102 2.126-1.332 1.304-2.154 3.118-2.154 5.103v11.168h79.825v-18.397zm192.758-16.724h-.028v-.028-.028-.057-.028h-.028v-.028-.028-.03-.028l-.028-.028v-.028-.028-.028c-1.644-8.334-5.783-15.817-11.594-21.628-7.625-7.654-18.17-12.388-29.736-12.388h-94.225c-11.566 0-22.083 4.734-29.736 12.388-8.674 8.674-12.388 19.077-12.388 31.21v35.632h178.471v-37.106c0-2.639-.255-5.219-.708-7.741zm-105.507 151.06c4.139 0 7.484 3.373 7.484 7.512s-3.345 7.483-7.484 7.483h-72.256v17.462c0 3.345 1.389 6.378 3.6 8.589 2.183 2.183 5.244 3.572 8.561 3.572h154.15c3.345 0 6.378-1.389 8.589-3.572 2.211-2.211 3.571-5.244 3.571-8.589v-17.462h-72.256c-4.139 0-7.483-3.345-7.483-7.483 0-4.139 3.345-7.512 7.483-7.512h72.256v-91.22h-178.471v91.22zm70.782-229.921c3.345 0 6.378-1.361 8.589-3.572 2.183-2.211 3.572-5.244 3.572-8.589v-23.075c0-3.345-1.389-6.378-3.572-8.589-2.211-2.183-5.244-3.572-8.589-3.572h-107.604c-3.317 0-6.35 1.389-8.561 3.572-2.211 2.211-3.572 5.244-3.572 8.589v23.075c0 3.345 1.361 6.378 3.572 8.589s5.244 3.572 8.561 3.572zm-93.403 29.48h79.201v-14.485h-79.201z"/></g></svg>