<svg height="512" viewBox="0 0 64 64" width="512" xmlns="http://www.w3.org/2000/svg"><g id="Medicine"><path d="m39 19v37a4 4 0 0 1 -4 4h-28a4 4 0 0 1 -4-4v-37a3.995 3.995 0 0 1 4-4h6v-4h16v4h6a3.995 3.995 0 0 1 4 4z" fill="#00d7df"/><path d="m39 19v37a4 4 0 0 1 -4 4h-4a4 4 0 0 0 4-4v-37a3.995 3.995 0 0 0 -4-4h4a3.995 3.995 0 0 1 4 4z" fill="#009698"/><path d="m43 3h18v16h-18z" fill="#00d7df"/><path d="m56 34a5 5 0 1 1 -5 5 .57.57 0 0 1 .01-.13 4.986 4.986 0 0 1 4.99-4.87z" fill="#c6c5ca"/><path d="m56 31v3a4.986 4.986 0 0 0 -4.99 4.87 3.992 3.992 0 0 1 -3.01-3.87v-4z" fill="#ffd422"/><path d="m56 27v4h-8v-4a4 4 0 1 1 8 0z" fill="#57a4ff"/><circle cx="39" cy="51" fill="#ff3051" r="10"/><path d="m49 51a10 10 0 0 1 -18.78 4.78 9.9 9.9 0 0 0 4.78 1.22 10 10 0 0 0 10-10 9.9 9.9 0 0 0 -1.22-4.78 9.984 9.984 0 0 1 5.22 8.78z" fill="#b02109"/><circle cx="39" cy="51" fill="#cd2a00" r="4"/><path d="m39 39v2a10 10 0 0 0 -10 10 9.881 9.881 0 0 0 .84 4h-26.84v-16z" fill="#c0ab91"/><circle cx="21" cy="26" fill="#ebe5dd" r="9"/><path d="m26 24v4h-3v3h-4v-3h-3v-4h3v-3h4v3z" fill="#57a4ff"/><rect fill="#ebe5dd" height="8" rx="2" width="22" x="10" y="3"/><path d="m32 5v4a2.006 2.006 0 0 1 -2 2h-4a2.006 2.006 0 0 0 2-2v-4a2.006 2.006 0 0 0 -2-2h4a2.006 2.006 0 0 1 2 2z" fill="#c0ab91"/><path d="m18 29v2a1 1 0 0 0 1 1h4a1 1 0 0 0 1-1v-2h2a1 1 0 0 0 1-1v-4a1 1 0 0 0 -1-1h-2v-2a1 1 0 0 0 -1-1h-4a1 1 0 0 0 -1 1v2h-2a1 1 0 0 0 -1 1v4a1 1 0 0 0 1 1zm-1-4h2a1 1 0 0 0 1-1v-2h2v2a1 1 0 0 0 1 1h2v2h-2a1 1 0 0 0 -1 1v2h-2v-2a1 1 0 0 0 -1-1h-2z"/><path d="m6 42h23v2h-23z"/><path d="m6 46h20v2h-20z"/><path d="m6 50h19v2h-19z"/><path d="m43.167 48.247 1.49-1.49-1.414-1.414-1.49 1.49a4.961 4.961 0 0 0 -1.753-.733v-2.1h-2v2.1a4.961 4.961 0 0 0 -1.753.732l-1.49-1.49-1.414 1.414 1.49 1.49a4.969 4.969 0 0 0 -.733 1.754h-2.1v2h2.1a4.969 4.969 0 0 0 .732 1.753l-1.49 1.49 1.414 1.414 1.49-1.49a4.961 4.961 0 0 0 1.754.733v2.1h2v-2.1a4.961 4.961 0 0 0 1.753-.732l1.49 1.49 1.414-1.414-1.49-1.49a4.969 4.969 0 0 0 .733-1.754h2.1v-2h-2.1a4.969 4.969 0 0 0 -.733-1.753zm-4.167 5.753a3 3 0 1 1 3-3 3 3 0 0 1 -3 3z"/><path d="m38 50h2v2h-2z"/><path d="m40 40.051v-21.051a4.995 4.995 0 0 0 -5-5h-5v-2a3 3 0 0 0 3-3v-4a3 3 0 0 0 -3-3h-18a3 3 0 0 0 -3 3v4a3 3 0 0 0 3 3v2h-5a5.006 5.006 0 0 0 -5 5v38a5.006 5.006 0 0 0 5 5h32a11 11 0 0 0 1-21.949zm-11.574 13.949h-24.426v-14h34v.051a10.965 10.965 0 0 0 -9.574 13.949zm-12.426-44v-6h2v6zm4-6h2v6h-2zm4 0h2v6h-2zm7 1v4a1 1 0 0 1 -1 1h-2v-6h2a1 1 0 0 1 1 1zm-20 4v-4a1 1 0 0 1 1-1h2v6h-2a1 1 0 0 1 -1-1zm-4 7h6a1 1 0 0 0 1-1v-3h14v3a1 1 0 0 0 1 1h6a2.994 2.994 0 0 1 3 3v19h-34v-19a3 3 0 0 1 3-3zm0 44a3 3 0 0 1 -3-3v-1h25.214a11.063 11.063 0 0 0 3.486 4zm32 0a9 9 0 1 1 9-9 9.01 9.01 0 0 1 -9 9z"/><path d="m21 36a10 10 0 1 0 -10-10 10.011 10.011 0 0 0 10 10zm0-18a8 8 0 1 1 -8 8 8.009 8.009 0 0 1 8-8z"/><path d="m57 33.09v-6.09a5 5 0 0 0 -10 0v8a4.985 4.985 0 0 0 3.03 4.585 6 6 0 1 0 6.97-6.495zm-5-9.09a2.994 2.994 0 0 1 3 3v3h-6v-3a3 3 0 0 1 3-3zm-1.778 13.4a2.984 2.984 0 0 1 -1.222-2.4v-3h6v1.09a6.01 6.01 0 0 0 -4.778 4.31zm5.778 5.6a4 4 0 1 1 4-4 4 4 0 0 1 -4 4z"/><path d="m53 38h6v2h-6z"/><path d="m61 2h-18a1 1 0 0 0 -1 1v16a1 1 0 0 0 1 1h18a1 1 0 0 0 1-1v-16a1 1 0 0 0 -1-1zm-1 16h-16v-14h16z"/><path d="m46 6h2v2h-2z"/><path d="m50 6h8v2h-8z"/><path d="m46 14h12v2h-12z"/><path d="m46 10h12v2h-12z"/></g></svg>