<?xml version="1.0"?>
<svg xmlns="http://www.w3.org/2000/svg" xmlns:xlink="http://www.w3.org/1999/xlink" xmlns:svgjs="http://svgjs.com/svgjs" version="1.1" width="512" height="512" x="0" y="0" viewBox="0 0 468 467" style="enable-background:new 0 0 512 512" xml:space="preserve" class=""><g><path xmlns="http://www.w3.org/2000/svg" d="m115.007812 386.765625c63.519532 0 115.011719-51.492187 115.011719-115.007813 0-63.519531-51.492187-115.011718-115.011719-115.011718-63.515624.003906-115.007812 51.492187-115.007812 115.011718.0703125 63.488282 51.519531 114.9375 115.007812 115.007813zm-50-121.007813h44v-44c0-3.3125 2.6875-6 6-6s6 2.6875 6 6v44h44c3.3125 0 6 2.6875 6 6s-2.6875 6-6 6h-44v44c0 3.3125-2.6875 6-6 6s-6-2.6875-6-6v-44h-44c-3.3125 0-6-2.6875-6-6s2.6875-6 6-6zm0 0" fill="#007373" data-original="#000000" style="" class=""/><path xmlns="http://www.w3.org/2000/svg" d="m341.980469 168.734375c-13.230469-3.105469-27.007813 2.234375-34.6875 13.449219-7.675781 11.210937-7.675781 25.988281 0 37.199218 7.679687 11.214844 21.457031 16.554688 34.6875 13.449219-8.625-8.433593-13.488281-19.984375-13.488281-32.050781 0-12.0625 4.863281-23.613281 13.488281-32.046875zm0 0" fill="#007373" data-original="#000000" style="" class=""/><path xmlns="http://www.w3.org/2000/svg" d="m367.410156 200.78125c0-14.652344-6.023437-26.53125-13.457031-26.53125s-13.460937 11.878906-13.460937 26.53125 6.027343 26.53125 13.460937 26.53125 13.457031-11.878906 13.457031-26.53125zm0 0" fill="#007373" data-original="#000000" style="" class=""/><path xmlns="http://www.w3.org/2000/svg" d="m443.746094.5h-383.191406c-13.386719.015625-24.238282 10.863281-24.253907 24.253906v147.398438c37.75-29.875 89.152344-35.824219 132.726563-15.363282 43.578125 20.464844 71.828125 63.816407 72.953125 111.945313h201.765625c13.390625-.015625 24.238281-10.867187 24.253906-24.257813v-219.722656c-.015625-13.390625-10.863281-24.238281-24.253906-24.253906zm-373.96875 42.863281h160.09375c3.3125 0 6 2.683594 6 6 0 3.3125-2.6875 6-6 6h-160.09375c-3.3125 0-6-2.6875-6-6 0-3.316406 2.6875-6 6-6zm7.480468 42.25h-7.480468c-3.3125 0-6-2.683593-6-6 0-3.3125 2.6875-6 6-6h7.480468c3.3125 0 6 2.6875 6 6 0 3.316407-2.6875 6-6 6zm122.359376 0h-99.964844c-3.3125 0-6-2.683593-6-6 0-3.3125 2.6875-6 6-6h99.964844c3.316406 0 6 2.6875 6 6 0 3.316407-2.683594 6-6 6zm69.335937 0h-47.589844c-3.3125 0-6-2.683593-6-6 0-3.3125 2.6875-6 6-6h47.589844c3.316406 0 6 2.6875 6 6 0 3.316407-2.683594 6-6 6zm0-30.25h-17.335937c-3.3125 0-6-2.6875-6-6 0-3.316406 2.6875-6 6-6h17.335937c3.316406 0 6 2.683594 6 6 0 3.3125-2.683594 6-6 6zm104.460937 190.335938c-6.738281.011719-13.394531-1.507813-19.460937-4.433594-18.882813 9.078125-41.535156 3.898437-54.59375-12.484375-13.0625-16.382812-13.0625-39.617188 0-56 13.058594-16.386719 35.710937-21.5625 54.59375-12.484375 16.644531-8.003906 36.496094-5.003906 50.03125 7.566406 13.539063 12.570313 18 32.144531 11.246094 49.335938-6.753907 17.195312-23.34375 28.5-41.816407 28.496093zm0 0" fill="#007373" data-original="#000000" style="" class=""/><path xmlns="http://www.w3.org/2000/svg" d="m373.414062 167.859375c-2.523437.003906-5.035156.292969-7.488281.871094 8.625 8.433593 13.484375 19.984375 13.484375 32.046875 0 12.066406-4.859375 23.617187-13.484375 32.050781 12.332031 2.882813 25.226563-1.566406 33.15625-11.441406 7.929688-9.875 9.492188-23.425781 4.015625-34.84375-5.476562-11.421875-17.019531-18.6875-29.683594-18.6875zm0 0" fill="#007373" data-original="#000000" style="" class=""/></g></svg>
