<?xml version="1.0"?>
<svg xmlns="http://www.w3.org/2000/svg" xmlns:xlink="http://www.w3.org/1999/xlink" xmlns:svgjs="http://svgjs.com/svgjs" version="1.1" width="512" height="512" x="0" y="0" viewBox="0 0 74 74" style="enable-background:new 0 0 512 512" xml:space="preserve" class=""><g><path xmlns="http://www.w3.org/2000/svg" d="m37.011 72.008a1 1 0 0 1 -.78-.374c-.952-1.184-23.314-29.192-23.314-45.534a24.094 24.094 0 1 1 48.188 0c0 16.34-22.363 44.348-23.315 45.532a1 1 0 0 1 -.779.376zm0-68a22.119 22.119 0 0 0 -22.094 22.092c0 13.979 18.083 38.107 22.094 43.285 4.009-5.175 22.094-29.307 22.094-43.285a22.119 22.119 0 0 0 -22.094-22.092z" fill="#008080" data-original="#000000" style=""/><path xmlns="http://www.w3.org/2000/svg" d="m37.011 43.591a17.212 17.212 0 1 1 17.212-17.212 17.232 17.232 0 0 1 -17.212 17.212zm0-32.424a15.212 15.212 0 1 0 15.212 15.212 15.23 15.23 0 0 0 -15.212-15.212z" fill="#008080" data-original="#000000" style=""/><path xmlns="http://www.w3.org/2000/svg" d="m42.511 33.95h-11a1 1 0 0 1 -1-1v-7.367a1 1 0 0 1 1-1h11a1 1 0 0 1 1 1v7.367a1 1 0 0 1 -1 1zm-10-2h9v-5.367h-9z" fill="#008080" data-original="#000000" style=""/><path xmlns="http://www.w3.org/2000/svg" d="m45.021 26.583h-16.021a1 1 0 0 1 -.687-1.727l8.011-7.575a1 1 0 0 1 1.374 0l8.01 7.575a1 1 0 0 1 -.687 1.727zm-13.508-2h11l-5.5-5.2z" fill="#008080" data-original="#000000" style=""/></g></svg>
