<svg id="Capa_1" enable-background="new 0 0 512 512" height="512" viewBox="0 0 512 512" width="512" xmlns="http://www.w3.org/2000/svg"><g><path d="m469.375 217.642h-37.941l-46.844-94.544c-4.011-8.095-12.264-13.217-21.298-13.217h-296.551-30.51c-11.058 0-20.022 8.964-20.022 20.022v227.552h479.583v-23.773-89.624c-.001-14.589-11.828-26.416-26.417-26.416z" fill="#f8f6f6"/><path d="m469.375 217.642h-37.941l-46.844-94.544c-4.011-8.095-12.264-13.216-21.299-13.216h-296.55-30.51c-9.177 0-16.893 6.181-19.259 14.601h14.727 296.55c9.034 0 17.287 5.122 21.298 13.217l46.845 94.544h37.941c14.589 0 26.417 11.827 26.417 26.417v89.624 9.172h35.043v-23.773-89.624c-.001-14.591-11.829-26.418-26.418-26.418z" fill="#ebebeb"/><g fill="#e94444"><path d="m16.209 267.888h479.583v27.815h-479.583z"/><path d="m170.536 175.513h-27.341v-27.341c0-2.276-1.845-4.121-4.121-4.121h-20.522c-2.276 0-4.121 1.845-4.121 4.121v27.341h-27.34c-2.276 0-4.121 1.845-4.121 4.121v20.522c0 2.276 1.845 4.121 4.121 4.121h27.341v27.341c0 2.276 1.845 4.121 4.121 4.121h20.522c2.276 0 4.121-1.845 4.121-4.121v-27.341h27.341c2.276 0 4.121-1.845 4.121-4.121v-20.522c-.002-2.276-1.846-4.121-4.122-4.121z"/><path d="m329.658 109.881h-55.63v-27.428c0-11.379 9.225-20.604 20.604-20.604h14.423c11.379 0 20.604 9.225 20.604 20.604v27.428z"/></g><path d="m506.279 388.464h-500.558c-3.159 0-5.721-2.561-5.721-5.721v-43.858c0-3.159 2.561-5.721 5.721-5.721h500.559c3.159 0 5.721 2.561 5.721 5.721v43.858c-.001 3.159-2.562 5.721-5.722 5.721z" fill="#e2e2e2"/><circle cx="382.296" cy="391.657" fill="#5a5a5a" r="58.493"/><circle cx="99.159" cy="391.657" fill="#5a5a5a" r="58.493"/><path d="m506.279 333.164h-35.042c3.159 0 5.721 2.561 5.721 5.72v43.859c0 3.159-2.561 5.721-5.721 5.721h35.042c3.159 0 5.721-2.561 5.721-5.721v-43.859c0-3.159-2.561-5.72-5.721-5.72z" fill="#cecece"/><path d="m382.296 333.164c-6.104 0-11.989.938-17.521 2.673 23.744 7.446 40.972 29.62 40.972 55.82 0 26.201-17.228 48.375-40.972 55.82 5.532 1.735 11.417 2.673 17.521 2.673 32.305 0 58.493-26.189 58.493-58.493s-26.189-58.493-58.493-58.493z" fill="#444"/><path d="m99.159 333.164c-6.104 0-11.989.938-17.521 2.673 23.744 7.446 40.972 29.62 40.972 55.82 0 26.201-17.228 48.375-40.972 55.82 5.532 1.735 11.417 2.673 17.521 2.673 32.305 0 58.493-26.189 58.493-58.493s-26.188-58.493-58.493-58.493z" fill="#444"/><ellipse cx="382.296" cy="391.657" fill="#bfbfbf" rx="24.572" ry="24.572" transform="matrix(.16 -.987 .987 .16 -65.541 706.28)"/><ellipse cx="99.159" cy="391.657" fill="#bfbfbf" rx="24.572" ry="24.572" transform="matrix(.16 -.987 .987 .16 -303.324 426.8)"/><path d="m495.791 303.816h-48.821c-3.414 0-6.181-2.767-6.181-6.181v-31.936c0-3.414 2.767-6.181 6.181-6.181h48.822v44.298z" fill="#fece85"/><path d="m460.749 259.518h35.043v44.298h-35.043z" fill="#fec165"/><path d="m352.754 141.535h-90.573c-3.414 0-6.181 2.767-6.181 6.181v63.744c0 3.414 2.767 6.181 6.181 6.181h122.156c4.585 0 7.574-4.817 5.539-8.925l-31.584-63.744c-1.043-2.105-3.189-3.437-5.538-3.437z" fill="#b2caec"/><path d="m389.876 208.716-31.583-63.744c-1.043-2.105-3.189-3.437-5.538-3.437h-29.202c2.349 0 4.495 1.332 5.539 3.437l31.583 63.744c2.036 4.109-.953 8.925-5.538 8.925h29.202c4.584 0 7.573-4.816 5.537-8.925z" fill="#82aee3"/><path d="m309.054 61.85h-14.423c-2.063 0-4.051.312-5.93.876 8.487 2.548 14.674 10.411 14.674 19.728v27.428h26.282v-27.429c.001-11.379-9.224-20.603-20.603-20.603z" fill="#d83131"/></g></svg>