<?xml version="1.0" encoding="iso-8859-1"?>
<!-- Generator: Adobe Illustrator 19.0.0, SVG Export Plug-In . SVG Version: 6.00 Build 0)  -->
<svg version="1.1" id="Capa_1" xmlns="http://www.w3.org/2000/svg" xmlns:xlink="http://www.w3.org/1999/xlink" x="0px" y="0px"
	 viewBox="0 0 512 512" style="enable-background:new 0 0 512 512;" xml:space="preserve">
<circle style="fill:#EC5353;" cx="256" cy="256" r="256"/>
<path style="fill:#D13135;" d="M277.767,511.07c117.433-9.89,212.291-99.04,230.901-213.774L389,177.628l-3.607,20.766L342,155
	L99.407,332.71L277.767,511.07z"/>
<polygon style="fill:#FFFFFF;" points="425.806,235.922 389,177.628 332.817,177.628 332.817,332.71 454.752,332.71 
	454.752,248.548 "/>
<polygon style="fill:#68B6F3;" points="353.333,193 381,193 407,236 353.333,236 "/>
<rect x="99.41" y="155" style="fill:#FFFFFF;" width="242.59" height="177.71"/>
<rect x="220.45" y="155" style="fill:#E0E0E0;" width="121.55" height="177.71"/>
<rect x="99.41" y="283" style="fill:#F98585;" width="242.59" height="19.333"/>
<rect x="220.45" y="283" style="fill:#E27979;" width="121.55" height="19.333"/>
<circle style="fill:#303030;" cx="396.71" cy="333.66" r="40.05"/>
<g>
	<circle style="fill:#595959;" cx="396.71" cy="333.66" r="18.225"/>
	<circle style="fill:#595959;" cx="159.46" cy="333.66" r="40.05"/>
</g>
<circle style="fill:#969696;" cx="159.46" cy="333.66" r="18.225"/>
<polygon style="fill:#EC5353;" points="258.371,233 258.37,203.667 235.37,203.667 235.37,180.667 206.037,180.667 206.037,203.667 
	183.037,203.666 183.037,233 206.037,233 206.037,256 235.37,256 235.37,233 "/>
<polygon style="fill:#D13135;" points="258.37,203.667 235.37,203.667 235.37,180.667 220.452,180.667 220.452,256 235.37,256 
	235.37,233 258.37,233 "/>
<g>
</g>
<g>
</g>
<g>
</g>
<g>
</g>
<g>
</g>
<g>
</g>
<g>
</g>
<g>
</g>
<g>
</g>
<g>
</g>
<g>
</g>
<g>
</g>
<g>
</g>
<g>
</g>
<g>
</g>
</svg>
