<?xml version="1.0"?>
<svg xmlns="http://www.w3.org/2000/svg" xmlns:xlink="http://www.w3.org/1999/xlink" xmlns:svgjs="http://svgjs.com/svgjs" version="1.1" width="512" height="512" x="0" y="0" viewBox="0 0 300 300" style="enable-background:new 0 0 512 512" xml:space="preserve" class=""><g><linearGradient xmlns="http://www.w3.org/2000/svg" id="SVGID_1_" gradientUnits="userSpaceOnUse" x1="45.055" x2="238.647" y1="265.179" y2="71.587"><stop stop-opacity="1" stop-color="#107eff" offset="0"/><stop stop-opacity="1" stop-color="#007373" offset="0"/><stop stop-opacity="1" stop-color="#007373" offset="1"/></linearGradient><g xmlns="http://www.w3.org/2000/svg"><path d="m58 52v-8c0-2.211 1.791-4 4-4s4 1.789 4 4v8c0 2.211-1.791 4-4 4s-4-1.789-4-4zm4 12c-2.209 0-4 1.789-4 4v8c0 2.211 1.791 4 4 4s4-1.789 4-4v-8c0-2.211-1.791-4-4-4zm-16 0h8c2.209 0 4-1.789 4-4s-1.791-4-4-4h-8c-2.209 0-4 1.789-4 4s1.791 4 4 4zm24 0h8c2.209 0 4-1.789 4-4s-1.791-4-4-4h-8c-2.209 0-4 1.789-4 4s1.791 4 4 4zm138.96-11.776c2.362 0 4.276-1.915 4.276-4.276s-1.915-4.277-4.276-4.277-4.276 1.915-4.276 4.277 1.914 4.276 4.276 4.276zm-70.712 14.12c0-6.801 5.535-12.336 12.34-12.336 6.803 0 12.338 5.535 12.338 12.336 0 6.805-5.535 12.34-12.338 12.34-6.805 0-12.34-5.536-12.34-12.34zm8 0c0 2.395 1.947 4.34 4.34 4.34s4.338-1.945 4.338-4.34c0-2.391-1.945-4.336-4.338-4.336s-4.34 1.945-4.34 4.336zm119.752 47.676v135.96c0 5.523-4.494 10.02-10.02 10.02h-211.96c-5.526 0-10.02-4.496-10.02-10.02v-135.96c0-5.523 4.494-10.02 10.02-10.02h45.98v-6c0-7.719 6.281-14 14-14s14 6.281 14 14v6h64v-6c0-7.719 6.281-14 14-14s14 6.281 14 14v6h45.98c5.526 0 10.02 4.496 10.02 10.02zm-76-10.02h12v-6c0-3.309-2.691-6-6-6s-6 2.691-6 6zm-92 0h12v-6c0-3.309-2.691-6-6-6s-6 2.691-6 6zm160 10.02c0-1.113-.906-2.02-2.02-2.02h-211.96c-1.113 0-2.02.906-2.02 2.02v135.96c0 1.113.906 2.02 2.02 2.02h211.96c1.113 0 2.02-.906 2.02-2.02zm-20 29.98v16c0 2.211-1.791 4-4 4h-8v8c0 2.211-1.791 4-4 4h-16c-2.209 0-4-1.789-4-4v-8h-8c-2.209 0-4-1.789-4-4v-16c0-2.211 1.791-4 4-4h8v-8c0-2.211 1.791-4 4-4h16c2.209 0 4 1.789 4 4v8h8c2.209 0 4 1.789 4 4zm-8 4h-8c-2.209 0-4-1.789-4-4v-8h-8v8c0 2.211-1.791 4-4 4h-8v8h8c2.209 0 4 1.789 4 4v8h8v-8c0-2.211 1.791-4 4-4h8zm-176 60h84c2.209 0 4-1.789 4-4s-1.791-4-4-4h-84c-2.209 0-4 1.789-4 4s1.791 4 4 4zm72 16h-72c-2.209 0-4 1.789-4 4s1.791 4 4 4h72c2.209 0 4-1.789 4-4s-1.791-4-4-4zm-72-4h48c2.209 0 4-1.789 4-4s-1.791-4-4-4h-48c-2.209 0-4 1.789-4 4s1.791 4 4 4zm124-8h-64c-2.209 0-4 1.789-4 4s1.791 4 4 4h64c2.209 0 4-1.789 4-4s-1.791-4-4-4zm-128-56c0-19.852 16.15-36 36-36s36 16.148 36 36-16.15 36-36 36-36-16.148-36-36zm48-6c0-7.719-5.383-14-12-14s-12 6.281-12 14 5.383 14 12 14 12-6.281 12-14zm-40 6c0 4.521 1.102 8.78 3.013 12.565 1.768-3.266 4.275-6.097 7.335-8.246-1.494-3.08-2.348-6.591-2.348-10.319 0-12.129 8.973-22 20-22s20 9.871 20 22c0 3.722-.852 7.227-2.342 10.304 3.085 2.153 5.582 4.971 7.342 8.233 1.902-3.777 3-8.027 3-12.537 0-15.438-12.561-28-28-28s-28 12.562-28 28z" fill="url(#SVGID_1_)" data-original="url(#SVGID_1_)" style=""/></g></g></svg>
