<?xml version="1.0"?>
<svg xmlns="http://www.w3.org/2000/svg" xmlns:xlink="http://www.w3.org/1999/xlink" xmlns:svgjs="http://svgjs.com/svgjs" version="1.1" width="512" height="512" x="0" y="0" viewBox="0 0 512 512" style="enable-background:new 0 0 512 512" xml:space="preserve" class=""><g><g xmlns="http://www.w3.org/2000/svg" id="outline"><path d="M407.692,317.8l-16-56a8,8,0,0,0-4.114-4.958l-48-24a7.989,7.989,0,0,0-2.009-.69l-37.625-7.525L288,212.686v-13.3A64.023,64.023,0,0,0,320,144v-2.234l5.814-1.938A26.6,26.6,0,0,0,320,88.128V88h16a8,8,0,0,0,7.692-10.2L340.36,66.139A69.425,69.425,0,0,0,273.889,16h-.584a35.764,35.764,0,0,0-27.581,12.868l-3.974-2.649A32,32,0,0,0,192,52.845V88.128a26.6,26.6,0,0,0-5.814,51.7L192,141.766V144a64.023,64.023,0,0,0,32,55.39v13.3L212.056,224.63l-37.625,7.525A8,8,0,0,0,169.6,235.2l-48,64A8.006,8.006,0,0,0,120,304v64a7.992,7.992,0,0,0,.282,2.1l24,88a8,8,0,0,0,11.687,4.842L168,456.072V488a8,8,0,0,0,8,8H336a8,8,0,0,0,8-8V424h32a8,8,0,0,0,7.428-5.029l16-40a7.919,7.919,0,0,0,.491-1.839l8-56A7.982,7.982,0,0,0,407.692,317.8ZM280,408v-8h16v8ZM259.719,272h-7.438l-9.187-13.781,12.906-8.6,12.906,8.6ZM256,420.687l-8-8V305.3l5.766-17.3h4.468L264,305.3V352h-8a8,8,0,0,0-7.761,9.94l8,32A8,8,0,0,0,264,400v12.687ZM296,384H270.246l-4-16H280a8,8,0,0,0,5.657-2.343l3.923-3.923,6.42,3.21ZM280,227.313l5.706,5.707-7.925,11.886-9.224-6.149Zm-45.781,17.593-7.925-11.886L232,227.313l11.443,11.444ZM216,246.422l23.173,34.76-6.762,20.288A8,8,0,0,0,232,304V416a8,8,0,0,0,2.343,5.657L248,435.314V480H216Zm48,188.892L275.314,424H296v56H264ZM305.888,352l-14.31-7.155a8,8,0,0,0-9.235,1.5L280,348.686V296h80v56Zm-32.273-72L296,246.422V280ZM288,96a24.038,24.038,0,0,0-22.665,16.12c-.435-.073-18.235-.073-18.67,0A23.976,23.976,0,0,0,208,102.131V95.307a46.272,46.272,0,0,0,24.97-12.963l15.251-15.251A87.279,87.279,0,0,0,304,87.972v14.159A23.9,23.9,0,0,0,288,96Zm8,24a8,8,0,1,1-8-8A8.009,8.009,0,0,1,296,120Zm-64,0a8,8,0,1,1-8-8A8.009,8.009,0,0,1,232,120Zm96-5.4a10.582,10.582,0,0,1-7.246,10.051L320,124.9V104.321A10.616,10.616,0,0,1,328,114.6ZM273.305,32h.584a53.358,53.358,0,0,1,51.087,38.534L325.4,72H305.137A71.489,71.489,0,0,1,256,52.628V41.972A19.878,19.878,0,0,1,273.305,32ZM208,52.845a15.991,15.991,0,0,1,24.875-13.314L240,44.281v8.406L221.656,71.03A30.434,30.434,0,0,1,208,78.95Zm-16.754,71.8A10.6,10.6,0,0,1,192,104.321V124.9ZM208,144v-6.131a23.976,23.976,0,0,0,38.665-9.989c.435.073,18.235.073,18.67,0A23.976,23.976,0,0,0,304,137.869V144a48,48,0,0,1-96,0Zm48,64a63.921,63.921,0,0,0,16-2.025v6.711l-16,16-16-16v-6.711A63.921,63.921,0,0,0,256,208ZM136,366.929V306.667l44.566-59.422L200,243.358v139.1l-16-40V308a8,8,0,0,0-16,0v36a8,8,0,0,0,.572,2.971l29.415,73.537-.678.387-.067.038-40.242,23Zm60.776,72.7,1.811,5.432L184,456v-9.071ZM184,476l16-12v16H184Zm128,4V464l16,12v4Zm16-24-16-12V424h16Zm56.216-82.081L370.583,408H312V368h56a8,8,0,0,0,8-8V288a8,8,0,0,0-8-8H312V243.359l21.38,4.276,43.894,21.947,14.565,50.976Z" fill="#007373" data-original="#000000" style="" class=""/><polygon points="328 308 312 308 312 316 304 316 304 332 312 332 312 340 328 340 328 332 336 332 336 316 328 316 328 308" fill="#007373" data-original="#000000" style="" class=""/><path d="M275.313,168l2.343-2.343a8,8,0,0,0-11.312-11.314L264,156.686a11.313,11.313,0,0,1-16,0l-2.344-2.343a8,8,0,1,0-11.312,11.314L236.687,168a27.312,27.312,0,0,0,38.626,0Z" fill="#007373" data-original="#000000" style="" class=""/></g></g></svg>
