<?xml version="1.0"?>
<svg xmlns="http://www.w3.org/2000/svg" xmlns:xlink="http://www.w3.org/1999/xlink" xmlns:svgjs="http://svgjs.com/svgjs" version="1.1" width="512" height="512" x="0" y="0" viewBox="0 0 511.998 511.998" style="enable-background:new 0 0 512 512" xml:space="preserve" class=""><g>
<path xmlns="http://www.w3.org/2000/svg" style="" d="M199.98,386.143l-3.18-15.89l-24.811-15.26l-18.27,3.84l7.03,35.161  c3.079,15.304,0.85,31.432-6.36,45.241c-7.723,15.044-17.637,21.403-24.531,28.621c-7.81,7.81-7.81,20.47,0,28.281  c7.81,7.81,20.48,7.81,28.291,0c4.912-5.665,27.156-20.579,38.351-54.061C202.5,424.064,203.7,404.724,199.98,386.143z" fill="#007373" data-original="#ed4c74"/>
<g xmlns="http://www.w3.org/2000/svg">
	<path style="" d="M382.124,15.845c7.81,7.81,7.81,20.47,0,28.281l-13.4,13.98c-5.04,5.04-9.29,10.87-12.56,17.21   c-1.63,3.16-3.02,6.44-4.15,9.82c-3.8,11.41-4.57,23.651-2.21,35.431l7.03,35.151l-13.84,8.27   c-10.69-4.41-18.18-17.85-29.231-19.68l-3.18-15.9c-3.72-18.59-2.52-37.931,3.49-55.921c5.32-15.99,14.44-30.751,26.361-42.661   l13.4-13.98C361.643,8.035,374.314,8.035,382.124,15.845z" fill="#007373" data-original="#78d4ff" class=""/>
	<path style="" d="M368.253,198.799l0.01-0.03l-22.27-13.78l-21.54,3.11c13.211,39.079,3.461,82.272-26.311,112.042   c-29.677,29.677-72.838,39.567-112.052,26.311c-18.671-6.291,6.263-0.471-43.781-10.69c-9.211-0.975-36.207-11.578-71.822,0.3   c-30.882,10.293-44.865,29.566-54.641,37.771c-7.81,7.81-7.81,20.48,0,28.291c7.81,7.81,20.47,7.81,28.281,0   c11.75-10.639,19.832-21.705,39.021-28.121c25.983-8.638,43.566,0.896,70.572,4.83l10.38,2.08   c55.668,22.965,119.271,10.57,162.333-32.481C361.123,293.731,376.024,245.55,368.253,198.799z" fill="#007373" data-original="#78d4ff" class=""/>
</g>
<path xmlns="http://www.w3.org/2000/svg" style="" d="M496.136,130.438c-7.81-7.81-20.47-7.81-28.281,0c-11.357,10.613-19.732,23.19-40.431,30.111  c-25.947,8.648-43.56-0.889-70.592-4.83l-10.37-2.07c-10.69-4.41-21.65-7.51-32.701-9.34c-46.761-7.77-94.942,7.13-129.633,41.821  s-49.591,82.872-41.821,129.633l43.781,10.69c-13.2-39.092-3.439-82.283,26.321-112.042c29.749-29.749,72.97-39.528,112.042-26.311  c17.479,5.869-4.383,0.997,43.811,10.67c20.822,4.201,41.97,9.671,71.812-0.27c32.675-10.926,47.257-32.214,56.061-39.781  C503.946,150.908,503.946,138.248,496.136,130.438z" fill="#007373" data-original="#ed4c74"/>
<path xmlns="http://www.w3.org/2000/svg" d="M417.474,80.057c3.91-3.9,3.91-10.23,0-14.14c-3.9-3.9-10.23-3.91-14.14,0c-3.9,3.91-3.9,10.24,0,14.14  C407.244,83.967,413.574,83.967,417.474,80.057z" fill="#000000" data-original="#000000" style="" class=""/>
<path xmlns="http://www.w3.org/2000/svg" d="M261.911,263.911c-3.91,3.91-3.9,10.24,0,14.14c3.91,3.91,10.24,3.91,14.14,0c3.91-3.9,3.91-10.23,0-14.14  C272.151,260.001,265.821,260.011,261.911,263.911z" fill="#000000" data-original="#000000" style="" class=""/>
<path xmlns="http://www.w3.org/2000/svg" d="M79.487,417.474c3.9-3.9,3.75-10.08-0.16-13.98c-3.9-3.91-10.08-4.06-13.99-0.16c-3.9,3.91-3.9,10.24,0,14.14  C69.247,421.384,75.577,421.384,79.487,417.474z" fill="#000000" data-original="#000000" style="" class=""/>
<path xmlns="http://www.w3.org/2000/svg" d="M51.101,389.291L63,377.967c0.06-0.057,0.119-0.115,0.178-0.173c2.626-2.626,5.487-4.984,8.559-7.068l70.099,70.098  c-2.056,3.031-4.389,5.868-6.985,8.474l-4.82,4.586l-22.263-22.262c-3.905-3.905-10.237-3.905-14.142,0  c-3.905,3.905-3.905,10.237,0,14.142l23.292,23.292c-5.229,10.924-3.541,24.74,5.867,34.149  c11.597,11.596,30.517,11.814,42.339,0.094l11.89-11.324c0.058-0.055,0.115-0.111,0.172-0.167  c12.994-12.983,22.952-29.086,28.8-46.574c10.981-32.965,3.386-62.577,3.323-63.43c45.169,3.335,90.89-13.006,124.195-46.302  c32.903-32.912,49.683-78.484,46.307-124.198c21.406,4.338,42.043,3.805,63.434-3.322c17.478-5.844,33.581-15.801,46.561-28.793  l13.4-13.4c11.723-11.723,11.725-30.698,0-42.423c-9.405-9.405-23.22-11.097-34.148-5.868l-23.293-23.292  c-3.905-3.905-10.237-3.905-14.143,0c-3.905,3.905-3.905,10.237,0,14.143l22.089,22.089l-6.329,6.329  c-2.618,2.619-5.484,4.98-8.558,7.069l-70.102-70.102c2.084-3.066,4.446-5.931,7.071-8.556c0.05-0.05,0.099-0.101,0.148-0.151  l13.334-13.912c11.613-11.703,11.586-30.672-0.082-42.341c-11.699-11.698-30.734-11.698-42.434,0  c-0.05,0.05-0.099,0.101-0.148,0.151l-13.323,13.902c-12.98,12.994-22.905,29.073-28.7,46.489  c-6.557,19.628-7.875,40.74-3.811,61.051l0.476,2.38c-45.719-3.376-91.291,13.406-124.194,46.309s-49.684,78.474-46.308,124.194  l-2.38-0.476c-20.302-4.063-41.414-2.749-61.045,3.799c-17.426,5.809-33.496,15.73-46.481,28.698L8.952,346.589  c-0.06,0.057-0.119,0.115-0.178,0.173c-11.698,11.699-11.698,30.735,0,42.434C20.425,400.845,39.383,400.904,51.101,389.291z   M145.221,367.334c3.679,23.187,9.774,34.88,5.28,53.87l-59.14-59.14c8.275-1.956,16.904-2.125,25.248-0.454L145.221,367.334z   M187.016,438.903c-4.853,14.515-13.11,27.887-23.882,38.675l-11.881,11.315c-0.059,0.056-0.117,0.113-0.175,0.17  c-3.907,3.908-10.24,3.908-14.147,0c-3.883-3.882-3.908-10.152-0.073-14.065l11.875-11.3c0.06-0.057,0.119-0.115,0.178-0.173  c9.173-9.174,15.549-20.218,19.137-30.955c9.092-27.324,0.223-46.87-1.373-59.95c7.074,2.572,14.312,4.642,21.64,6.191  C188.774,383.658,197.354,407.872,187.016,438.903z M365.332,147.221c-3.658-23.089-9.773-34.821-5.265-53.858l59.133,59.132  C400.195,156.998,388.619,150.916,365.332,147.221z M323.561,75.644c4.833-14.526,13.111-27.924,23.94-38.744  c0.051-0.051,0.101-0.102,0.151-0.154l13.314-13.891c3.905-3.839,10.205-3.818,14.085,0.062c3.898,3.897,3.898,10.24,0,14.138  c-0.05,0.05-0.099,0.101-0.148,0.151l-13.33,13.907c-8.698,8.722-15.204,19.363-19.049,30.864  c-9.123,27.395-0.21,47.108,1.354,59.959c-7.073-2.572-14.308-4.64-21.63-6.188C321.788,130.893,313.197,106.664,323.561,75.644z   M191.202,193.201c39.074-39.074,98.399-52.191,151.448-30.308c1.697,0.7-0.842-0.043,47.372,9.659  c13.469,2.71,27.497,1.84,40.574-2.52c11.377-3.802,22.105-10.298,30.932-19.123l13.4-13.399c3.906-3.907,10.23-3.908,14.138,0  c3.907,3.907,3.908,10.23,0,14.137l-13.402,13.403c-10.803,10.812-24.207,19.099-38.748,23.962  c-16.356,5.449-33.925,6.541-50.781,3.168c-47.119-9.568-47.525-9.276-49.492-10.122c-14.396-6.17-30.443-9.729-47.17-9.729  c-31.655,0-61.747,12.624-84.133,35.01c-27.662,27.663-39.777,66.379-33.308,104.17l-20.794-4.159  C146.423,265.548,161.084,223.317,191.202,193.201z M266.602,311.03l-65.08-65.08c3.15-6.045,6.901-11.745,11.244-17.041  l20.863,20.863c3.905,3.905,10.237,3.905,14.143,0c3.905-3.905,3.905-10.237,0-14.143l-20.863-20.863  c5.295-4.343,10.995-8.093,17.041-11.244l65.082,65.083c-4.668,8.964-10.676,17.18-17.962,24.467  C283.798,300.344,275.581,306.35,266.602,311.03z M194.087,318.458c-4.852-17.151-4.974-35.116-0.471-52.129l52.611,52.61  C229.217,323.445,211.251,323.319,194.087,318.458z M316.46,196.1c4.856,17.149,4.981,35.11,0.477,52.123l-52.632-52.632  c8.173-2.168,16.592-3.262,25.167-3.262C298.603,192.329,307.653,193.604,316.46,196.1z M22.844,360.978l11.875-11.3  c0.061-0.058,0.121-0.117,0.18-0.176c10.816-10.825,24.216-19.107,38.751-23.953c16.336-5.448,33.9-6.542,50.796-3.161l47.515,9.503  c3.338,0.661,45.655,22.832,96.847,0.281c13.575-6.418,24.455-13.009,36.404-24.959c28.021-28.02,39.685-66.911,33.306-104.153  c1.563,0.313,13.115,2.585,20.803,4.119c4.825,41.804-9.836,84.05-39.96,114.181c-39.121,39.111-98.456,52.17-151.449,30.309  c-1.51-0.622-47.262-9.647-47.38-9.671c-13.459-2.696-27.478-1.826-40.557,2.521c-10.768,3.601-21.75,9.973-30.85,19.042  L37.231,374.88c-0.06,0.057-0.119,0.115-0.177,0.173c-3.907,3.907-10.23,3.909-14.138,0  C19.034,371.17,19.009,364.891,22.844,360.978z" fill="#000000" data-original="#000000" style="" class=""/>
<g xmlns="http://www.w3.org/2000/svg">
</g>
<g xmlns="http://www.w3.org/2000/svg">
</g>
<g xmlns="http://www.w3.org/2000/svg">
</g>
<g xmlns="http://www.w3.org/2000/svg">
</g>
<g xmlns="http://www.w3.org/2000/svg">
</g>
<g xmlns="http://www.w3.org/2000/svg">
</g>
<g xmlns="http://www.w3.org/2000/svg">
</g>
<g xmlns="http://www.w3.org/2000/svg">
</g>
<g xmlns="http://www.w3.org/2000/svg">
</g>
<g xmlns="http://www.w3.org/2000/svg">
</g>
<g xmlns="http://www.w3.org/2000/svg">
</g>
<g xmlns="http://www.w3.org/2000/svg">
</g>
<g xmlns="http://www.w3.org/2000/svg">
</g>
<g xmlns="http://www.w3.org/2000/svg">
</g>
<g xmlns="http://www.w3.org/2000/svg">
</g>
</g></svg>
