<?xml version="1.0"?>
<svg xmlns="http://www.w3.org/2000/svg" viewBox="0 0 64 64" width="512" height="512"><g id="drug-medical-coronavirus-covid19-hospital"><path d="M57.62,22.61a31,31,0,0,0-5.58-8.84L51,12.62V10h1a1,1,0,0,0,1-1V5a3.009,3.009,0,0,0-3-3H40a3.009,3.009,0,0,0-3,3V9a1,1,0,0,0,1,1h1v2.62l-1.04,1.15A30.966,30.966,0,0,0,30,34.51V40H28V29a6.885,6.885,0,0,0-2.05-4.94,7.135,7.135,0,0,0-4.96-2.05,1,1,0,0,1-.99-.99V20h1a1,1,0,0,0,1-1V15a3.009,3.009,0,0,0-3-3H13a3.009,3.009,0,0,0-3,3v4a1,1,0,0,0,1,1h1v1.03a1,1,0,0,1-.93.99C6.97,22.31,4,25.24,4,29V49a3.009,3.009,0,0,0,3,3h4v5a5,5,0,0,0,5,5H48a5.017,5.017,0,0,0,4.9-4H55a5,5,0,0,0,5-5V34.51A30.864,30.864,0,0,0,57.62,22.61ZM39,5a1,1,0,0,1,1-1H50a1,1,0,0,1,1,1V8H39Zm10,5v2H41V10Zm-9.56,5.11,1-1.11h9.12l1,1.11A29.193,29.193,0,0,1,55.16,22H34.84A29.193,29.193,0,0,1,39.44,15.11ZM12,15a1,1,0,0,1,1-1h6a1,1,0,0,1,1,1v3H12ZM6,29c0-2.72,2.14-4.77,5.21-4.98A3.01,3.01,0,0,0,14,21.03V20h4v1.02a3.011,3.011,0,0,0,2.89,2.99,5.2,5.2,0,0,1,3.65,1.46A4.953,4.953,0,0,1,26,29V40H22V31a1,1,0,0,0-1-1H6Zm5,21H7a1,1,0,0,1-1-1V46h5Zm.1-6H6V32H20v8H16A5.017,5.017,0,0,0,11.1,44ZM51,57a3.009,3.009,0,0,1-3,3H16a3.009,3.009,0,0,1-3-3V45a3.009,3.009,0,0,1,3-3H48a3.009,3.009,0,0,1,3,3Zm7-4a3.009,3.009,0,0,1-3,3H53V45a4.924,4.924,0,0,0-1.03-3H58Zm0-13H32V34.51A29.012,29.012,0,0,1,33.97,24H56.03A29.012,29.012,0,0,1,58,34.51Z"/><path d="M48,35h2a1,1,0,0,0,1-1V30a1,1,0,0,0-1-1H48V27a1,1,0,0,0-1-1H43a1,1,0,0,0-1,1v2H40a1,1,0,0,0-1,1v4a1,1,0,0,0,1,1h2v2a1,1,0,0,0,1,1h4a1,1,0,0,0,1-1Zm-1-2a1,1,0,0,0-1,1v2H44V34a1,1,0,0,0-1-1H41V31h2a1,1,0,0,0,1-1V28h2v2a1,1,0,0,0,1,1h2v2Z"/><path d="M28,44a3,3,0,1,0,3,3A3,3,0,0,0,28,44Zm0,4a1,1,0,1,1,1-1A1,1,0,0,1,28,48Z"/><path d="M28,52a3,3,0,1,0,3,3A3,3,0,0,0,28,52Zm0,4a1,1,0,1,1,1-1A1,1,0,0,1,28,56Z"/><path d="M36,44a3,3,0,1,0,3,3A3,3,0,0,0,36,44Zm0,4a1,1,0,1,1,1-1A1,1,0,0,1,36,48Z"/><path d="M36,52a3,3,0,1,0,3,3A3,3,0,0,0,36,52Zm0,4a1,1,0,1,1,1-1A1,1,0,0,1,36,56Z"/><path d="M20,44a3,3,0,1,0,3,3A3,3,0,0,0,20,44Zm0,4a1,1,0,1,1,1-1A1,1,0,0,1,20,48Z"/><path d="M20,52a3,3,0,1,0,3,3A3,3,0,0,0,20,52Zm0,4a1,1,0,1,1,1-1A1,1,0,0,1,20,56Z"/><path d="M44,44a3,3,0,1,0,3,3A3,3,0,0,0,44,44Zm0,4a1,1,0,1,1,1-1A1,1,0,0,1,44,48Z"/><path d="M44,52a3,3,0,1,0,3,3A3,3,0,0,0,44,52Zm0,4a1,1,0,1,1,1-1A1,1,0,0,1,44,56Z"/><path d="M17,34H8a1,1,0,0,0,0,2h9a1,1,0,0,0,0-2Z"/><path d="M13,38H8a1,1,0,0,0,0,2h5a1,1,0,0,0,0-2Z"/></g></svg>
