<svg id="Capa_1" enable-background="new 0 0 512 512" height="512" viewBox="0 0 512 512" width="512" xmlns="http://www.w3.org/2000/svg"><g clip-rule="evenodd" fill-rule="evenodd"><path d="m134.364 103.069h24.747c10.46 0 19.021 8.561 19.021 19.021v21.629h-62.788v-21.629c-.001-10.46 8.56-19.021 19.02-19.021zm291.093 0h24.718c10.46 0 19.021 8.561 19.021 19.021v21.629h-62.759v-21.629c-.001-10.46 8.56-19.021 19.02-19.021z" fill="#e7daec"/><path d="m134.364 103.069h24.747c10.46 0 19.021 8.561 19.021 19.021v16.639h-25.002v-16.639c0-10.431-8.476-18.964-18.879-19.021zm291.093 0h24.718c10.46 0 19.021 8.561 19.021 19.021v16.639h-25.001v-16.639c0-10.431-8.475-18.964-18.879-19.021z" fill="#beb9dd"/><path d="m244.236 85.466h96.067c2.636 0 4.762 2.126 4.762 4.762v53.49h28.545v-53.49c0-18.312-14.995-33.308-33.307-33.308h-96.067c-18.312 0-33.279 14.996-33.279 33.308v53.49h28.517v-53.49c0-2.636 2.154-4.762 4.762-4.762z" fill="#365e7d"/><path d="m348.608 138.729h25.002v-48.501c0-18.312-14.995-33.308-33.307-33.308h-25.002c18.312 0 33.307 14.996 33.307 33.308z" fill="#2b4d66"/><path d="m101.085 428.858h382.398c15.676 0 28.517-12.841 28.517-28.545v-233.039c0-15.704-12.841-28.545-28.517-28.545h-382.398c-15.704 0-28.545 12.842-28.545 28.545v233.039c0 15.705 12.841 28.545 28.545 28.545z" fill="#f9f7f8"/><path d="m458.48 428.858h25.003c15.676 0 28.517-12.841 28.517-28.545v-233.039c0-15.704-12.841-28.545-28.517-28.545h-25.003c15.677 0 28.517 12.842 28.517 28.545v233.039c.001 15.705-12.84 28.545-28.517 28.545z" fill="#e7daec"/><path d="m111.035 201.518h362.5c4.166 0 7.597 3.43 7.597 7.597v183.602c0 4.167-3.431 7.597-7.597 7.597h-362.5c-4.196 0-7.625-3.43-7.625-7.597v-183.602c-.001-4.196 3.429-7.597 7.625-7.597z" fill="#ff6270"/><path d="m448.531 201.518h25.003c4.166 0 7.597 3.43 7.597 7.597v183.602c0 4.167-3.431 7.597-7.597 7.597h-25.003c4.167 0 7.597-3.43 7.597-7.597v-183.602c0-4.167-3.43-7.597-7.597-7.597z" fill="#f64b51"/><path d="m224.719 314.706v-27.581c0-7.852 6.407-14.287 14.259-14.287h24.974v-24.945c0-7.852 6.406-14.287 14.258-14.287h27.581c7.852 0 14.286 6.435 14.286 14.287v24.945h24.975c7.823 0 14.258 6.435 14.258 14.287v27.581c0 7.853-6.435 14.259-14.258 14.259h-24.975v24.973c0 7.852-6.435 14.259-14.286 14.259h-27.581c-7.852 0-14.258-6.407-14.258-14.259v-24.973h-24.974c-7.852 0-14.259-6.406-14.259-14.259z" fill="#f8f6f7"/><path d="m46.007 224.648h75.544v64.404h-75.544z" fill="#9ce59e"/><path d="m96.549 239.105h25.002v46.291h-25.002z" fill="#78c2a4"/><path d="m35.235 239.105h97.087c8.362 0 15.222-6.86 15.222-15.223v-29.31c0-8.363-6.86-15.223-15.222-15.223h-97.087c-8.391 0-15.223 6.86-15.223 15.223v29.31c.001 8.363 6.833 15.223 15.223 15.223zm-15.222 215.975h127.532c10.999 0 20.013-9.015 20.013-20.013v-10.488l-12.501-59.754 12.501-59.727v-10.488c0-10.999-9.014-20.013-20.013-20.013h-127.532c-10.998-.002-20.013 9.013-20.013 20.011v140.458c0 10.999 9.015 20.014 20.013 20.014z" fill="#b3e59f"/><path d="m107.321 239.105h25.002c8.362 0 15.222-6.86 15.222-15.223v-29.31c0-8.363-6.86-15.223-15.222-15.223h-25.002c8.362 0 15.222 6.86 15.222 15.223v29.31c.001 8.363-6.859 15.223-15.222 15.223zm15.223 215.975h25.001c10.999 0 20.013-9.015 20.013-20.013v-10.488l-12.501-59.754 12.501-59.727v-10.488c0-10.999-9.014-20.013-20.013-20.013h-25.001c10.999 0 20.013 9.015 20.013 20.013v140.458c-.001 10.997-9.015 20.012-20.013 20.012z" fill="#95d6a4"/><path d="m167.558 424.578c-32.996 0-59.755-26.759-59.755-59.754 0-32.996 26.759-59.727 59.755-59.727z" fill="#ffe07d"/><path d="m167.558 424.578c-8.929 0-17.405-1.984-25.002-5.471v-108.54c7.597-3.515 16.073-5.471 25.002-5.471z" fill="#ffd064"/></g></svg>