<?xml version="1.0"?>
<svg xmlns="http://www.w3.org/2000/svg" xmlns:xlink="http://www.w3.org/1999/xlink" xmlns:svgjs="http://svgjs.com/svgjs" version="1.1" width="512" height="512" x="0" y="0" viewBox="0 0 64 64" style="enable-background:new 0 0 512 512" xml:space="preserve" class=""><g><g xmlns="http://www.w3.org/2000/svg"><path d="m61.972 47.023h.028 1v-2h-.998c-.011 0-.021 0-.032 0-6.935 0-10.845 3.727-14.504 7.507-3.735-3.825-7.808-7.53-15.466-7.53s-11.731 3.705-15.466 7.53c-3.659-3.781-7.567-7.507-14.502-7.507-.011 0-.022 0-.032 0h-1v2h1.002.027c.333 0 .653.015.971.034v13.833c-.638.066-1.297.11-2 .11v2c7.702 0 11.778-3.749 15.531-7.597 3.782 3.881 7.925 7.597 15.469 7.597s11.687-3.716 15.469-7.597c3.753 3.848 7.829 7.597 15.531 7.597v-2c-.703 0-1.362-.044-2-.11v-13.833c.318-.019.638-.034.972-.034zm-6.972 1.773v10.246c-.705-.391-1.367-.829-2-1.302v-7.612c.637-.487 1.298-.938 2-1.332zm-16-.348c.707.327 1.369.703 2 1.114v8.826c-.633.416-1.296.797-2 1.129zm-2 11.841c-.631.193-1.299.346-2 .463v-13.511c.702.114 1.37.262 2 .451zm-10-12.598c.63-.188 1.298-.337 2-.451v13.511c-.701-.117-1.369-.27-2-.463zm-2 11.826c-.704-.332-1.367-.713-2-1.129v-8.826c.631-.411 1.293-.787 2-1.114zm-14-9.389v7.612c-.633.473-1.295.911-2 1.302v-10.245c.702.394 1.363.844 2 1.331zm-6-2.812c.703.141 1.368.33 2 .563v12.094c-.63.238-1.296.436-2 .596zm8 8.753v-4.233c.725.681 1.432 1.398 2.14 2.13-.705.722-1.411 1.43-2.14 2.103zm4.925-2.101c.999-1.024 2.002-2.016 3.075-2.917v5.837c-1.071-.902-2.076-1.894-3.075-2.92zm13.075 6.999v-13.935c.328-.016.656-.032 1-.032s.672.016 1 .032v13.934c-.328.017-.656.034-1 .034s-.672-.017-1-.033zm12-4.079v-5.837c1.073.901 2.076 1.893 3.075 2.917-.999 1.026-2.004 2.018-3.075 2.92zm5.86-2.922c.708-.732 1.414-1.45 2.14-2.131v4.234c-.729-.673-1.435-1.381-2.14-2.103zm10.14 6.602c-.704-.16-1.37-.358-2-.596v-12.094c.631-.233 1.297-.421 2-.562z" fill="#007373" data-original="#000000" style="" class=""/><path d="m8.487 15.301c.468-.191.977-.301 1.513-.301h.187c.483-1.802 1.938-3.244 3.833-3.624l.044-.009c-.031-.205-.064-.41-.064-.624 0-1.427.709-2.751 1.896-3.542l1.55-1.033 1.109 1.664-1.55 1.033c-.629.42-1.005 1.122-1.005 1.878 0 1.245 1.013 2.257 2.257 2.257h4.743c1.302 0 2.402.839 2.816 2h.184c.495 0 .964.102 1.403.267l.388-1.554c.139-.554.209-1.125.209-1.698 0-3.875-3.141-7.015-7-7.015h-.414l-.293-.293c-1.101-1.101-2.564-1.707-4.121-1.707h-2.84c-1.236 0-2.398.481-3.273 1.356-.683.683-1.059 1.59-1.059 2.555 0 .401.09.794.221 1.173l1.179-.884 1.2 1.6-2.158 1.619c-.903.677-1.442 1.755-1.442 2.883 0 .356.057.708.169 1.043z" fill="#007373" data-original="#000000" style="" class=""/><path d="m56 21c0-1.103-.897-2-2-2v4c1.103 0 2-.897 2-2z" fill="#007373" data-original="#000000" style="" class=""/><path d="m22.829 25c-.413-1.164-1.525-2-2.829-2h-1c0 1.103.897 2 2 2z" fill="#007373" data-original="#000000" style="" class=""/><path d="m16.307 26.757c.543.159 1.112.243 1.693.243s1.15-.084 1.693-.243c-.655-.229-1.243-.604-1.693-1.114-.45.511-1.038.885-1.693 1.114z" fill="#007373" data-original="#000000" style="" class=""/><path d="m26 17v4c1.103 0 2-.897 2-2s-.897-2-2-2z" fill="#007373" data-original="#000000" style="" class=""/><path d="m38 23v-4c-1.103 0-2 .897-2 2s.897 2 2 2z" fill="#007373" data-original="#000000" style="" class=""/><path d="m37.074 33.923c-.045.188-.074.38-.074.577 0 1.378 1.121 2.5 2.5 2.5.173 0 .358-.024.568-.073l.81-.189.334.762c.399.911 1.298 1.5 2.288 1.5.675 0 1.309-.268 1.785-.755l.715-.731.715.731c.476.487 1.11.755 1.785.755.99 0 1.889-.589 2.288-1.5l.334-.762.81.189c.21.049.395.073.568.073 1.379 0 2.5-1.122 2.5-2.5 0-.197-.029-.389-.074-.577-.368-.114-.742-.212-1.126-.276l-3.457-.576-.222.222c-1.085 1.085-2.587 1.707-4.121 1.707s-3.036-.622-4.121-1.707l-.222-.222-3.457.576c-.385.064-.758.162-1.126.276z" fill="#007373" data-original="#000000" style="" class=""/><path d="m57.464 11.47c.347-.767.536-1.603.536-2.47 0-3.309-2.691-6-6-6-1.721 0-3.344.752-4.467 2h.864c4.196 0 7.764 2.71 9.067 6.47z" fill="#007373" data-original="#000000" style="" class=""/><path d="m36.488 17.301c.467-.191.976-.301 1.512-.301h.11c.316-1.728 1.36-3.235 2.913-4.12.1-.954.521-1.837 1.208-2.525l1.062-1.062 1.414 1.414-1.062 1.062c-.416.417-.645.97-.645 1.558 0 1.065.761 1.977 1.809 2.167l8.281 1.506h.91c.536 0 1.045.11 1.513.302l.098-.293c.259-.778.39-1.587.39-2.405-.001-4.193-3.412-7.604-7.605-7.604h-4.793c-4.192 0-7.603 3.411-7.603 7.604 0 .818.131 1.627.391 2.405z" fill="#007373" data-original="#000000" style="" class=""/><path d="m52 23v-4.166l-7.549-1.373c-1.393-.253-2.519-1.173-3.074-2.394-.866.749-1.377 1.84-1.377 3.023v4.91c0 3.309 2.691 6 6 6s6-2.691 6-6zm-9-3c.552 0 1 .448 1 1s-.448 1-1 1-1-.448-1-1 .448-1 1-1zm6.789 4.658c-.722 1.445-2.174 2.342-3.789 2.342s-3.067-.897-3.789-2.342l-.105-.21 1.789-.895.105.211c.381.762 1.147 1.236 2 1.236s1.619-.474 2-1.236l.105-.211 1.789.895zm-.789-2.658c-.552 0-1-.448-1-1s.448-1 1-1 1 .448 1 1-.448 1-1 1z" fill="#007373" data-original="#000000" style="" class=""/><path d="m43.422 30.566-.307 1.136.177.177c.714.712 1.7 1.121 2.708 1.121s1.994-.409 2.707-1.121l.177-.177-.307-1.136c-.809.277-1.674.434-2.577.434s-1.768-.157-2.578-.434z" fill="#007373" data-original="#000000" style="" class=""/><path d="m35 43.193c2.342.303 4.343.959 6.105 1.83h12.473c.458-.238.931-.46 1.422-.663v-3.36h2v2.679c1.225-.336 2.552-.553 4-.621v-.91c0-2.887-1.435-5.568-3.837-7.17-.065-.043-.134-.077-.2-.119-.19 2.397-2.219 4.291-4.72 4.133-.825 1.24-2.223 2.008-3.743 2.008-.903 0-1.766-.266-2.5-.76-.734.494-1.597.76-2.5.76-1.52 0-2.918-.768-3.743-2.008-2.508.155-4.53-1.737-4.72-4.133-.066.041-.135.075-.2.119-.302.201-.585.427-.859.664.653 1.39 1.022 2.918 1.022 4.505z" fill="#007373" data-original="#000000" style="" class=""/><path d="m13.171 25h1.829c1.103 0 2-.897 2-2h-1c-1.304 0-2.416.836-2.829 2z" fill="#007373" data-original="#000000" style="" class=""/><path d="m10 21v-4c-1.103 0-2 .897-2 2s.897 2 2 2z" fill="#007373" data-original="#000000" style="" class=""/><path d="m7 39h2v5.364c.489.202.96.422 1.415.659h12.479c1.238-.612 2.595-1.116 4.105-1.467v-4.556h2v4.193c.946-.122 1.94-.193 3.001-.193.344 0 .669.02 1 .033v-2.886c0-2.887-1.435-5.568-3.837-7.17-1.021-.681-2.153-1.128-3.363-1.33l-.22-.037-1.976 6.918-5.604-3.362-5.604 3.362-1.976-6.918-.22.037c-1.21.202-2.342.649-3.363 1.33-2.402 1.602-3.837 4.283-3.837 7.17v2.911c1.448.07 2.776.287 4 .624z" fill="#007373" data-original="#000000" style="" class=""/><path d="m24 21v-5c0-.551-.448-1-1-1h-4.743c-1.406 0-2.645-.693-3.421-1.747l-.424.085c-1.397.279-2.412 1.516-2.412 2.941v4.721c0 .59.086 1.17.252 1.725.917-1.048 2.249-1.725 3.748-1.725h4c1.499 0 2.831.677 3.748 1.725.166-.555.252-1.135.252-1.725zm-9-2c-.552 0-1-.448-1-1s.448-1 1-1 1 .448 1 1-.448 1-1 1zm6 0c-.552 0-1-.448-1-1s.448-1 1-1 1 .448 1 1-.448 1-1 1z" fill="#007373" data-original="#000000" style="" class=""/><path d="m20.884 29.702-.306-1.134c-.821.279-1.687.432-2.578.432s-1.757-.153-2.578-.432l-.306 1.134 2.884 2.884z" fill="#007373" data-original="#000000" style="" class=""/><path d="m23.594 31.279-1.251-.208-2.73 2.73 2.783 1.671z" fill="#007373" data-original="#000000" style="" class=""/><path d="m13.604 35.472 2.783-1.671-2.73-2.73-1.251.208z" fill="#007373" data-original="#000000" style="" class=""/></g></g></svg>
