<?xml version="1.0"?>
<svg xmlns="http://www.w3.org/2000/svg" viewBox="0 0 64 64" width="512" height="512"><g id="lab-microscope-cell-covid19-coronavirus"><path d="M60,53.26V31A13.012,13.012,0,0,0,47,18H45.89a7.058,7.058,0,0,0-2.13-1.43l.79-2.97a.988.988,0,0,0-.7-1.22l-2.9-.78.78-2.9a5.251,5.251,0,0,0,.63-.31,4.95,4.95,0,0,0,2.33-3.04,1,1,0,0,0-.7-1.22L34.33,1.54a1.006,1.006,0,0,0-1.23.71,4.969,4.969,0,0,0,.5,3.79,5.807,5.807,0,0,0,.4.57l-.78,2.92-2.9-.78a1,1,0,0,0-1.22.71L23.92,28.78A.99.99,0,0,0,24.63,30l1.93.52-.77,2.9a1.009,1.009,0,0,0,.09.76,1.039,1.039,0,0,0,.61.46l.97.26-.78,2.9a1.013,1.013,0,0,0,.1.76.983.983,0,0,0,.61.46l3.86,1.04a1.153,1.153,0,0,0,.26.03.958.958,0,0,0,.5-.13,1,1,0,0,0,.47-.61l.77-2.9.97.26a.746.746,0,0,0,.26.04.993.993,0,0,0,.5-.14.955.955,0,0,0,.46-.6l.78-2.9,1.93.51a.824.824,0,0,0,.26.04,1,1,0,0,0,.97-.74l.79-2.97A7.858,7.858,0,0,0,41,30a7.023,7.023,0,0,0,4.87-2H47a3.009,3.009,0,0,1,3,3V45.97L40,46V45a1,1,0,0,0-1-1H21a1,1,0,0,0-1,1v4a1,1,0,0,0,1,1H39a1,1,0,0,0,1-1V48l10-.03V52H15a7.008,7.008,0,0,0-7,7v2a1,1,0,0,0,1,1H62a1,1,0,0,0,1-1V59A7.01,7.01,0,0,0,60,53.26ZM42.34,5.76a3.029,3.029,0,0,1-.98.9,2.956,2.956,0,0,1-2.27.3l-1.93-.52a2.992,2.992,0,0,1-2.22-2.66ZM39.56,9.04l-.54,2.04-3.87-1.03.55-2.03a5.861,5.861,0,0,0,.94.35l1.93.52A4.841,4.841,0,0,0,39.56,9.04ZM30.8,37.87l-1.93-.52.52-1.93,1.55.41.38.11Zm2.97-3.35-5.79-1.55.51-1.93,5.8,1.55Zm3.94-3.09-11.6-3.1,4.66-17.39,11.59,3.11-.53,2.01a7,7,0,0,0-7.59,5.13,7,7,0,0,0,4,8.24Zm8.12-7.14a5,5,0,0,1-9.16,1.21,4.93,4.93,0,0,1-.5-3.79A5,5,0,0,1,41,18a4.765,4.765,0,0,1,1.29.17,4.988,4.988,0,0,1,2.47,1.53v.01a4.545,4.545,0,0,1,.57.79A4.93,4.93,0,0,1,45.83,24.29ZM38,48H22V46H38Zm9.3-21.97a6.386,6.386,0,0,0,.46-1.22,6.88,6.88,0,0,0-.43-4.79A11,11,0,0,1,58,31V52.29A7.268,7.268,0,0,0,56,52H52V31A4.993,4.993,0,0,0,47.3,26.03ZM61,60H10V59a5,5,0,0,1,5-5H56a5,5,0,0,1,5,5Z"/><path d="M13,39a3,3,0,0,0,3,3h8a1,1,0,0,0,0-2H16a1,1,0,0,1-1-1V25.949a12,12,0,1,0-2,0ZM4,14A10,10,0,1,1,14,24,10.011,10.011,0,0,1,4,14Z"/><path d="M16,20a1,1,0,0,0-1-1V17.858a3.915,3.915,0,0,0,1.019-.425l.809.809a1,1,0,1,0,1.414,1.415l1.415-1.414a1,1,0,0,0-1.414-1.415h0l-.809-.81A3.915,3.915,0,0,0,17.858,15H19a1,1,0,0,0,2,0V13a1,1,0,0,0-2,0H17.858a3.915,3.915,0,0,0-.425-1.019l.809-.81h0a1,1,0,0,0,1.414-1.415L18.242,8.343a1,1,0,0,0-1.414,1.415l-.809.809A3.915,3.915,0,0,0,15,10.142V9a1,1,0,0,0,0-2H13a1,1,0,0,0,0,2v1.142a3.915,3.915,0,0,0-1.019.425l-.809-.809A1,1,0,1,0,9.758,8.343L8.343,9.757a1,1,0,0,0,1.414,1.415h0l.809.81A3.915,3.915,0,0,0,10.142,13H9a1,1,0,0,0-2,0v2a1,1,0,0,0,2,0h1.142a3.915,3.915,0,0,0,.425,1.019l-.809.81h0a1,1,0,0,0-1.414,1.415l1.415,1.414a1,1,0,1,0,1.414-1.415l.809-.809A3.915,3.915,0,0,0,13,17.858V19a1,1,0,0,0,0,2h2A1,1,0,0,0,16,20Zm-4-6a2,2,0,1,1,2,2A2,2,0,0,1,12,14Z"/><path d="M41,26a3,3,0,1,1,3-3A3,3,0,0,1,41,26Zm0-4a1,1,0,1,0,1,1A1,1,0,0,0,41,22Z"/></g></svg>
