<?xml version="1.0"?>
<svg xmlns="http://www.w3.org/2000/svg" xmlns:xlink="http://www.w3.org/1999/xlink" xmlns:svgjs="http://svgjs.com/svgjs" version="1.1" width="512" height="512" x="0" y="0" viewBox="0 0 512 512" style="enable-background:new 0 0 512 512" xml:space="preserve" class=""><g><g xmlns="http://www.w3.org/2000/svg"><path d="m77.519 439.498h356.962c47.809-46.51 77.519-111.529 77.519-183.498 0-141.385-114.615-256-256-256s-256 114.615-256 256c0 71.969 29.71 136.988 77.519 183.498z" fill="#008080" data-original="#ffe377" style="" class=""/><path d="m256 93.04v346.458h178.481c42.42-41.267 70.571-97.112 76.383-159.447l-193.738-193.739z" fill="#008080" data-original="#edbe00" style="" class=""/><path d="m145.989 295.427-68.469 68.469v75.601c46.113 44.862 109.063 72.503 178.48 72.503v-206.572l-59.821-10.001z" fill="#eef4ff" data-original="#eef4ff" style="" class=""/><path d="m315.821 295.427-59.821 10.001v206.572c69.416 0 132.367-27.642 178.481-72.502v-75.601l-68.469-68.469h-50.191z" fill="#d6e9f8" data-original="#d6e9f8" style="" class=""/><path d="m362.816 400.046h14.559v42.455h-14.559z" fill="#00baa0" data-original="#00baa0" style=""/><path d="m331.957 431.777h56.028v19.71h-56.028z" fill="#b2d7f3" data-original="#b2d7f3" style=""/><path d="m333.815 404.088-34.728-46.242h-43.087v154.154c8.368 0 16.639-.411 24.801-1.196z" fill="#b2d7f3" data-original="#b2d7f3" style=""/><path d="m178.185 404.088 53.014 106.716c8.162.785 16.433 1.196 24.801 1.196v-154.155h-53.088z" fill="#d6e9f8" data-original="#d6e9f8" style="" class=""/><g><path d="m256 389.197 84.548-37.527-24.727-56.243h-59.821z" fill="#b2d7f3" data-original="#b2d7f3" style=""/></g><g><path d="m168.38 175.038h14.559v25.462h-14.559z" fill="#f9a58d" data-original="#f9a58d" style="" class=""/><path d="m329.059 175.038h14.559v25.462h-14.559z" fill="#f9a58d" data-original="#df9280" style="" class=""/></g><g><path d="m256 389.197-84.548-37.527 24.727-56.243h59.821z" fill="#d6e9f8" data-original="#d6e9f8" style="" class=""/></g><g><path d="m342.815 147.962c0-47.947-38.868-86.815-86.815-86.815-47.946 0-86.815 38.868-86.815 86.815 0 47.947 38.868 86.815 86.815 86.815s86.816-38.868 86.815-86.815z" fill="#464646" data-original="#464646" style="" class=""/><path d="m342.815 147.962c0-47.947-38.868-86.815-86.815-86.815v173.631c47.947-.001 86.816-38.869 86.815-86.816z" fill="#2d2d2d" data-original="#2d2d2d" style="" class=""/></g><path d="m306.428 295.427-50.428 153.785-51.036-153.785v-42.877h101.464z" fill="#f9a58d" data-original="#df9280" style="" class=""/><path d="m306.428 295.427-50.428 153.785v-196.662h50.428z" fill="#f9a58d" data-original="#d37f6c" style="" class=""/><g><path d="m256 238.207 71.05-37.693 3.999-37.032.001-35.94h-150.099v35.94l4 37.577z" fill="#f9a58d" data-original="#f9a58d" style="" class=""/><path d="m256 238.207 75.05-37.148v-73.517h-75.05z" fill="#f9a58d" data-original="#df9280" style="" class=""/></g><g fill="#2d2d2d"><circle cx="215.277" cy="175.698" r="7.765" fill="#2d2d2d" data-original="#2d2d2d" style="" class=""/><circle cx="296.837" cy="175.698" r="7.765" fill="#2d2d2d" data-original="#2d2d2d" style="" class=""/></g><g fill="#2d2d2d"><path d="m255.999 122.491-2.853 8.386 2.853 8.634 45.429-12.552v-4.468z" fill="#2d2d2d" data-original="#2d2d2d" style="" class=""/><path d="m332.391 157.472v-34.897h-34.697v4.468z" fill="#2d2d2d" data-original="#2d2d2d" style="" class=""/></g><path d="m179.978 122.591v37.77l76.021-20.85v-16.938z" fill="#464646" data-original="#464646" style="" class=""/><path d="m180.986 203.325 13.5-1.301-13.537-38.542v37.577c0 .758.015 1.513.037 2.266z" fill="#d6e9f8" data-original="#d6e9f8" style="" class=""/><path d="m331.012 203.325-13.5-1.301 13.537-38.542v37.577c0 .758-.015 1.513-.037 2.266z" fill="#b2d7f3" data-original="#b2d7f3" style=""/><g><path d="m331.05 201.059v-.545l-75.05-9.81-75.05 9.81v.545c0 41.449 33.601 75.05 75.05 75.05s75.05-33.601 75.05-75.05z" fill="#eef4ff" data-original="#eef4ff" style="" class=""/></g><path d="m331.05 201.059v-.545l-75.05-9.81v85.405c41.449 0 75.05-33.601 75.05-75.05z" fill="#d6e9f8" data-original="#d6e9f8" style="" class=""/><g><g><g><path d="m215.588 233.539h40.412v14.559h-40.412z" fill="#d6e9f8" data-original="#d6e9f8" style="" class=""/></g></g><g><path d="m256 233.539h40.413v14.559h-40.413z" fill="#b2d7f3" data-original="#b2d7f3" style=""/></g></g><g><g><g><path d="m215.588 210.042h40.412v14.559h-40.412z" fill="#d6e9f8" data-original="#d6e9f8" style="" class=""/></g></g><g><path d="m256 210.042h40.413v14.559h-40.413z" fill="#b2d7f3" data-original="#b2d7f3" style=""/></g></g><path d="m223.367 350.881 32.633 98.331 32.244-98.331z" fill="#005fe0" data-original="#005fe0" style="" class=""/><path d="m256 350.881v98.331l32.244-98.331z" fill="#0051be" data-original="#0051be" style=""/></g></g></svg>
