<?xml version="1.0"?>
<svg xmlns="http://www.w3.org/2000/svg" xmlns:xlink="http://www.w3.org/1999/xlink" xmlns:svgjs="http://svgjs.com/svgjs" version="1.1" width="512" height="512" x="0" y="0" viewBox="0 0 64 64" style="enable-background:new 0 0 512 512" xml:space="preserve" class=""><g><path xmlns="http://www.w3.org/2000/svg" d="m60 45.62v-28.62c0-2.757-2.243-5-5-5h-5v-5c0-2.757-2.243-5-5-5h-12c-2.757 0-5 2.243-5 5v5h-5c-2.757 0-5 2.243-5 5v30.586l-.414.414h-5.586v-1c0-.553-.448-1-1-1h-8c-.552 0-1 .447-1 1v14c0 .553.448 1 1 1h8c.552 0 1-.447 1-1h33c.172 0 .341-.044.49-.129l14.392-8.095c1.306-.735 2.118-2.122 2.118-3.621s-.806-2.804-2-3.535zm-50 14.38h-6v-12h6zm20-53c0-1.654 1.346-3 3-3h12c1.654 0 3 1.346 3 3v5h-2v-5c0-.553-.448-1-1-1h-12c-.552 0-1 .447-1 1v5h-2zm4 5v-4h10v4zm-14 5c0-1.654 1.346-3 3-3h32c1.654 0 3 1.346 3 3v28.016c-.053-.002-.102-.016-.155-.016h-.152c-.598 0-1.2.132-1.741.382l-12.172 5.618h-4.542c.48-.716.762-1.575.762-2.5 0-2.481-2.019-4.5-4.5-4.5h-13.5c-.265 0-.52.105-.707.293l-1.293 1.293zm38.901 34.033-14.163 7.967h-32.738v-9h6c.265 0 .52-.105.707-.293l3.707-3.707h13.086c1.378 0 2.5 1.121 2.5 2.5s-1.122 2.5-2.5 2.5h-8.5v2h8.5 8.5c.145 0 .288-.031.419-.092l12.372-5.711c.279-.129.591-.197.902-.197h.152c1.188 0 2.155.967 2.155 2.155 0 .778-.421 1.496-1.099 1.878z" fill="#007373" data-original="#000000" style="" class=""/><path xmlns="http://www.w3.org/2000/svg" d="m39 42c6.617 0 12-5.383 12-12s-5.383-12-12-12-12 5.383-12 12 5.383 12 12 12zm0-22c5.514 0 10 4.486 10 10s-4.486 10-10 10-10-4.486-10-10 4.486-10 10-10z" fill="#007373" data-original="#000000" style="" class=""/><path xmlns="http://www.w3.org/2000/svg" d="m33 33h3v3c0 .553.448 1 1 1h4c.552 0 1-.447 1-1v-3h3c.552 0 1-.447 1-1v-4c0-.553-.448-1-1-1h-3v-3c0-.553-.448-1-1-1h-4c-.552 0-1 .447-1 1v3h-3c-.552 0-1 .447-1 1v4c0 .553.448 1 1 1zm1-4h3c.552 0 1-.447 1-1v-3h2v3c0 .553.448 1 1 1h3v2h-3c-.552 0-1 .447-1 1v3h-2v-3c0-.553-.448-1-1-1h-3z" fill="#007373" data-original="#000000" style="" class=""/></g></svg>
