<svg id="Capa_1" enable-background="new 0 0 345.32 345.32" height="512" viewBox="0 0 345.32 345.32" width="512" xmlns="http://www.w3.org/2000/svg"><g><g><g><g><path d="m192.16 138.58v28.64c-9.077.477-16.185 7.99-16.16 17.08v129.08c-.015 4.314 1.632 8.469 4.6 11.6-4.988 3.801-11.089 5.853-17.36 5.84h-127.32c-15.968-.009-28.911-12.952-28.92-28.92v-163.32c-.004-21.27 17.234-38.516 38.504-38.52h.016 108.12c21.27.009 38.511 17.25 38.52 38.52z" fill="#e63946"/><path d="m192.16 148.62v18.6c-9.077.477-16.185 7.99-16.16 17.08v97.96h-169v-133.64z" fill="#fcf7ed"/><path d="m143.668 202.98h-24.06v-24.06h-24.916v24.06h-24.06v24.916h24.06v24.06h24.916v-24.06h24.06z" fill="#d12a46"/><path d="m56.04 68.796h87.06v30.912h-87.06z" fill="#d12a46"/><path d="m46.34 14.5h106.464c6.539 0 11.84 5.301 11.84 11.84v30.616c0 6.539-5.301 11.84-11.84 11.84h-106.464c-6.539 0-11.84-5.301-11.84-11.84v-30.616c0-6.539 5.301-11.84 11.84-11.84z" fill="#f7eddc"/><path d="m126.776 14.5v20.54c0 3.866 3.134 7 7 7s7-3.134 7-7v-20.54zm-34.204 20.54c0 3.866 3.134 7 7 7s7-3.134 7-7v-20.54h-14zm-34.208 0c0 3.866 3.134 7 7 7s7-3.134 7-7v-20.54h-14z" fill="#d12a46"/><path d="m339.32 184.3v129.08c.004 9.451-7.653 17.116-17.104 17.12-.005 0-.011 0-.016 0h-129.08c-9.426-.07-17.05-7.694-17.12-17.12v-129.08c-.025-9.09 7.083-16.603 16.16-17.08.319-.033.639-.047.96-.04h129.08c9.437-.018 17.102 7.618 17.12 17.056z" fill="#f7eddc"/><path d="m237 199.74-29 29c8.117 7.899 21.101 7.722 29-.395 7.747-7.961 7.747-20.644 0-28.605z" fill="#e76f51"/><path d="m208 199.74c-8 8.011-8 20.989 0 29l29-29c-8.011-8-20.989-8-29 0z" fill="#f4a261"/><path d="m237.016 297.92-29-29c-7.899 8.117-7.722 21.101.395 29 7.961 7.747 20.644 7.747 28.605 0z" fill="#e76f51"/><path d="m237.016 268.92c-8.011-8-20.989-8-29 0l29 29c8-8.011 8-20.989 0-29z" fill="#f4a261"/><path d="m306.508 199.74-28.988 29c8.117 7.899 21.101 7.722 29-.395 7.747-7.961 7.747-20.644 0-28.605z" fill="#f4a261"/><path d="m277.52 199.74c-8 8.011-8 20.989 0 29l29-29c-8.011-8-20.989-8-29 0z" fill="#e76f51"/><path d="m306.508 268.9-29 29c8.117 7.899 21.101 7.722 29-.395 7.747-7.961 7.747-20.644 0-28.605z" fill="#f4a261"/><path d="m277.52 268.9c-8 8.011-8 20.989 0 29l29-29c-8.011-8-20.989-8-29 0z" fill="#e76f51"/><path d="m311.62 101.068c-10.38-10.383-27.212-10.385-37.595-.005-.002.002-.003.003-.005.005l37.6 37.6c10.383-10.38 10.385-27.213.005-37.595-.002-.002-.003-.004-.005-.005z" fill="#f4a261"/><path d="m274.028 138.66c10.38 10.383 27.212 10.385 37.595.005.002-.002.003-.003.005-.005l-37.6-37.6c-10.383 10.38-10.385 27.213-.005 37.595.002.002.003.003.005.005z" fill="#e76f51"/><path d="m286.524 42.24c.038-11.903-9.58-21.583-21.483-21.621-5.756-.018-11.28 2.266-15.341 6.345l-16.98 16.972 30.556 30.564 16.968-16.968c4.051-4.054 6.312-9.561 6.28-15.292z" fill="#2a9d8f"/><path d="m215.756 60.9c-8.437 8.44-8.434 22.121.006 30.558s22.121 8.434 30.558-.006l16.956-16.952-30.556-30.564z" fill="#e9c46a"/></g><g fill="#2c292a"><path d="m119.608 172.9h-24.92c-3.314 0-6 2.686-6 6v18.06h-18.056c-3.314 0-6 2.686-6 6v24.94c0 3.314 2.686 6 6 6h18.056v18.056c0 3.314 2.686 6 6 6h24.92c3.314 0 6-2.686 6-6v-18.056h18.06c3.314 0 6-2.686 6-6v-24.924c0-3.314-2.686-6-6-6h-18.06v-18.076c0-3.314-2.686-6-6-6zm18.06 36.06v12.94h-18.06c-3.314 0-6 2.686-6 6v18.056h-12.92v-18.056c0-3.314-2.686-6-6-6h-18.056v-12.924h18.056c3.314 0 6-2.686 6-6v-18.076h12.92v18.06c0 3.314 2.686 6 6 6z"/><path d="m7 218.244c3.866 0 7-3.134 7-7v-8.744c0-3.866-3.134-7-7-7s-7 3.134-7 7v8.744c.002 3.865 3.135 6.998 7 7z"/><path d="m322.2 161.18h-123.04v-22.6c-.029-25.128-20.392-45.491-45.52-45.52h-3.54v-17.264h2.704c10.399-.013 18.825-8.441 18.836-18.84v-30.616c-.011-10.399-8.437-18.827-18.836-18.84h-106.484c-10.4.013-18.827 8.44-18.84 18.84v30.616c.013 10.4 8.44 18.827 18.84 18.84h2.704v17.264h-3.504c-25.128.029-45.491 20.392-45.52 45.52v28.6c0 3.866 3.134 7 7 7s7-3.134 7-7v-11.56h171.16v5.908c-9.683 3.38-16.166 12.516-16.16 22.772v90.956h-155v-29.424c0-3.866-3.134-7-7-7s-7 3.134-7 7v56.068c.022 19.829 16.091 35.898 35.92 35.92h127.32c6.254.01 12.398-1.638 17.808-4.776 3.625 2.251 7.805 3.448 12.072 3.456h57.6c3.314 0 6-2.686 6-6s-2.686-6-6-6h-57.6c-5.479.148-10.041-4.173-10.189-9.652-.013-.491.01-.981.069-1.468v-129.08c-.23-5.462 3.741-10.199 9.16-10.924 1.2-.064 2.06-.188 3.6-.196h126.44c6.139.007 11.113 4.981 11.12 11.12v129.08c-.007 6.139-4.981 11.113-11.12 11.12h-33.2c-3.314 0-6 2.686-6 6s2.686 6 6 6h33.2c12.763-.013 23.107-10.357 23.12-23.12v-129.08c-.013-12.763-10.357-23.107-23.12-23.12zm-280.704-104.224v-30.616c.004-2.671 2.169-4.836 4.84-4.84h12.028v13.54c0 3.866 3.134 7 7 7s7-3.134 7-7v-13.54h20.208v13.54c0 3.866 3.134 7 7 7s7-3.134 7-7v-13.54h20.208v13.54c0 3.866 3.134 7 7 7s7-3.134 7-7v-13.54h12.024c2.671.004 4.834 2.169 4.836 4.84v30.616c-.002 2.671-2.165 4.836-4.836 4.84h-106.484c-2.665-.013-4.82-2.175-4.824-4.84zm94.604 18.84v16.912h-73.06v-16.912zm27.14 248.024h-127.32c-12.101-.013-21.907-9.819-21.92-21.92v-12.644h155v24.124c-.004 3.121.604 6.213 1.788 9.1-2.416.891-4.972 1.345-7.548 1.34zm-149.24-182.2v-3.04c.02-17.4 14.12-31.5 31.52-31.52h108.12c17.4.02 31.5 14.12 31.52 31.52v3.04z"/><path d="m241.248 195.496c-10.355-10.349-27.139-10.343-37.488.012s-10.343 27.139.012 37.488c10.351 10.344 27.125 10.344 37.476 0 10.338-10.363 10.338-27.137 0-37.5zm-29.012 8.484c4.009-4.041 10.025-5.334 15.34-3.296l-18.64 18.64c-2.039-5.317-.744-11.335 3.3-15.344zm20.528 20.52c-4.07 3.882-9.984 5.132-15.276 3.228l18.572-18.572c2.037 5.316.745 11.334-3.296 15.344z"/><path d="m292.82 240.752c14.64-.004 26.504-11.876 26.5-26.516s-11.876-26.504-26.516-26.5-26.504 11.876-26.5 26.516c.002 7.032 2.798 13.774 7.772 18.744 4.968 4.975 11.713 7.766 18.744 7.756zm10.268-16.252c-4.07 3.882-9.984 5.131-15.276 3.228l18.572-18.572c2.037 5.316.745 11.334-3.296 15.344zm-20.528-20.52c4.009-4.041 10.025-5.334 15.34-3.296l-18.64 18.64c-2.039-5.317-.744-11.335 3.3-15.344z"/><path d="m269.08 96.1c-13.13 13.113-13.143 34.388-.03 47.518s34.388 13.143 47.518.03 13.143-34.388.03-47.518c-.01-.01-.02-.02-.03-.03-13.118-13.102-34.37-13.102-47.488 0zm9.896 37.6c-5.712-5.737-7.302-14.4-4-21.792l25.788 25.792c-7.391 3.3-16.051 1.711-21.788-4zm31.688-5.904-25.784-25.776c9.825-4.416 21.37-.031 25.785 9.795 2.286 5.086 2.285 10.908-.001 15.993z"/><path d="m203.752 264.672c-10.353 10.354-10.352 27.141.002 37.494s27.141 10.352 37.494-.002c10.352-10.353 10.352-27.138 0-37.491-10.36-10.341-27.136-10.341-37.496-.001zm8.484 8.484c4.012-4.034 10.024-5.327 15.34-3.3l-18.64 18.644c-2.039-5.315-.744-11.333 3.3-15.34zm20.528 20.544c-4.069 3.881-9.981 5.131-15.272 3.228l18.568-18.572c2.038 5.316.746 11.334-3.296 15.344z"/><path d="m311.572 302.168c10.35-10.354 10.346-27.138-.008-37.488s-27.138-10.346-37.488.008-10.346 27.138.008 37.488c4.971 4.969 11.712 7.76 18.74 7.76 7.032-.004 13.774-2.797 18.748-7.768zm-29.012-29.012c4.012-4.034 10.024-5.327 15.34-3.3l-18.64 18.644c-2.039-5.315-.744-11.333 3.3-15.34zm5.256 23.744 18.568-18.572c2.038 5.316.746 11.334-3.296 15.344-4.069 3.88-9.981 5.13-15.272 3.228z"/><path d="m231.068 104.748c7.571.013 14.835-2.99 20.188-8.344l33.936-33.944c11.044-11.293 10.842-29.4-.451-40.444-11.115-10.87-28.877-10.87-39.993 0l-16.96 16.96-16.972 16.972c-11.158 11.176-11.144 29.282.033 40.441 5.367 5.358 12.643 8.365 20.227 8.359zm-.02-14c-8.043.002-14.566-6.516-14.568-14.56 0-.015 0-.029 0-.044-.019-3.858 1.508-7.564 4.24-10.288l12-12.024 20.656 20.668-12 12.024c-2.743 2.728-6.46 4.249-10.328 4.228zm23.6-58.836c5.702-5.703 14.947-5.704 20.65-.002s5.704 14.947.002 20.65l-12.02 12.02-20.648-20.648z"/></g></g></g></g></svg>