<svg id="Capa_1" enable-background="new 0 0 470.339 470.339" height="512" viewBox="0 0 470.339 470.339" width="512" xmlns="http://www.w3.org/2000/svg"><g><path d="m196.107 75.231c-1.587-.002-2.962-1.1-3.315-2.648-.32-1.361-.681-2.77-1.048-4.138-.498-1.814.568-3.688 2.382-4.186s3.688.569 4.186 2.382c.402 1.463.776 2.94 1.116 4.424.423 1.831-.719 3.659-2.55 4.082-.003.001-.006.001-.009.002-.25.057-.505.085-.762.082z" fill="#323c6b"/><path d="m188.014 52.422c-1.299 0-2.485-.739-3.056-1.906-9.134-18.48-23.534-33.843-41.384-44.154-1.634-.929-2.205-3.007-1.276-4.641s3.007-2.205 4.641-1.276c.013.007.026.015.039.023 19.022 10.985 34.364 27.359 44.092 47.054.827 1.688.129 3.727-1.559 4.554-.464.227-.974.346-1.491.347z" fill="#323c6b"/><path d="m178.417 95.978v94.278h-172.547v-94.278c0-47.647 38.626-86.273 86.273-86.273s86.274 38.625 86.274 86.273z" fill="#eeefee"/><path d="m181.82 193.659h-179.353v-97.681c0-49.527 40.15-89.677 89.677-89.677s89.677 40.15 89.677 89.677v97.681zm-172.546-6.807h165.74v-90.874c-.01-45.768-37.12-82.862-82.888-82.852-45.754.01-82.843 37.098-82.852 82.852z" fill="#323c6b"/><path d="m153.164 34.991c-25.792-25.839-65.086-32.579-98.014-16.812 46.71-9.195 92.029 21.217 101.224 67.926 1.081 5.494 1.625 11.08 1.623 16.679v87.471h20.42v-94.277c.029-22.879-9.059-44.826-25.253-60.987z" fill="#dbd8dd"/><path d="m47.52 382.024c-.491 0-.977-.107-1.423-.313-11.815-5.457-22.566-12.971-31.753-22.189-2.903-2.888-5.645-5.933-8.216-9.121-1.187-1.458-.967-3.601.491-4.788s3.601-.967 4.788.491l.024.03c2.412 2.995 4.987 5.856 7.712 8.569 8.621 8.653 18.711 15.705 29.799 20.828 1.707.788 2.452 2.809 1.664 4.516-.557 1.207-1.765 1.979-3.094 1.977z" fill="#323c6b"/><path d="m70.798 389.62c-.229 0-.457-.023-.681-.068-2.087-.422-4.159-.905-6.214-1.45-1.818-.479-2.902-2.341-2.423-4.159s2.341-2.902 4.159-2.423c1.929.508 3.873.962 5.833 1.361 1.842.374 3.032 2.17 2.658 4.012-.322 1.587-1.719 2.728-3.339 2.726z" fill="#323c6b"/><path d="m178.417 190.256v91.433c0 47.647-38.626 86.273-86.273 86.273s-86.274-38.626-86.274-86.274v-91.433h172.547z" fill="#ef5261"/><path d="m92.178 371.331c-49.513-.015-89.658-40.13-89.711-89.643v-94.836h179.353v94.836c-.056 49.485-40.158 89.586-89.642 89.643zm-82.904-177.672v88.029c.053 45.754 37.15 82.821 82.904 82.836 45.727-.052 82.783-37.109 82.836-82.836v-88.029z" fill="#323c6b"/><path d="m157.997 190.256v84.626c.053 47.576-38.471 86.187-86.047 86.241-5.64.006-11.267-.541-16.8-1.635 42.884 20.533 94.293 2.413 114.826-40.47 5.579-11.652 8.464-24.41 8.441-37.329v-91.433z" fill="#e42542"/><path d="m181.82 193.659h-179.353v-97.681c0-49.527 40.15-89.677 89.677-89.677s89.677 40.15 89.677 89.677v97.681zm-172.546-6.807h165.74v-90.874c-.01-45.768-37.12-82.862-82.888-82.852-45.754.01-82.843 37.098-82.852 82.852z" fill="#323c6b"/><path d="m92.178 371.331c-49.513-.015-89.658-40.13-89.711-89.643v-94.836h179.353v94.836c-.056 49.485-40.158 89.586-89.642 89.643zm-82.904-177.672v88.029c.053 45.754 37.15 82.821 82.904 82.836 45.727-.052 82.783-37.109 82.836-82.836v-88.029z" fill="#323c6b"/><path d="m464.089 220.906c.007 16.876-4.965 33.379-14.294 47.442l-52.683 79.909-144.027-95.02 52.683-79.909c26.26-39.776 79.793-50.732 119.569-24.472 24.203 15.979 38.762 43.047 38.752 72.05z" fill="#ef5261"/><path d="m398.078 352.973-149.704-98.77 54.555-82.747c26.935-41.562 82.463-53.421 124.025-26.486s53.421 82.463 26.486 124.025c-.266.41-.535.818-.807 1.224zm-140.276-100.703 138.344 91.269 50.811-77.064c25.203-38.204 14.664-89.607-23.541-114.81s-89.607-14.664-114.81 23.541z" fill="#323c6b"/><path d="m425.291 148.824c-17.045-11.253-37.542-16.068-57.815-13.579 47.261 5.498 81.117 48.267 75.619 95.529-1.562 13.428-6.262 26.299-13.72 37.574l-46.496 70.523 14.233 9.386 52.683-79.909c26.253-39.704 15.349-93.173-24.355-119.426-.05-.033-.099-.065-.149-.098z" fill="#e42542"/><path d="m361.466 442.745c-1.88-.002-3.402-1.528-3.399-3.407.001-.664.196-1.313.561-1.868l29.309-44.42c1.036-1.569 3.147-2.002 4.717-.966 1.569 1.036 2.002 3.147.967 4.717l-29.316 44.42c-.631.952-1.697 1.524-2.839 1.524z" fill="#323c6b"/><path d="m401.237 382.493c-1.88-.002-3.402-1.528-3.399-3.407.001-.664.196-1.313.561-1.868l1.817-2.723c1.036-1.569 3.148-2.002 4.717-.967 1.569 1.036 2.002 3.147.967 4.717l-1.817 2.723c-.633.955-1.702 1.528-2.846 1.525z" fill="#323c6b"/><path d="m397.112 348.256-52.683 79.841c-26.22 39.772-79.717 50.758-119.489 24.538s-50.758-79.717-24.538-119.489l52.683-79.909z" fill="#eeefee"/><path d="m272.252 470.339c-49.549-.12-89.62-40.385-89.499-89.935.042-17.467 5.183-34.542 14.791-49.13l54.555-82.754 149.731 98.77-54.541 82.679c-13.027 19.913-33.486 33.781-56.808 38.505-5.998 1.237-12.105 1.862-18.229 1.865zm-18.214-212.406-50.797 77.084c-25.186 38.203-14.635 89.589 23.568 114.776 38.203 25.186 89.589 14.635 114.776-23.568l50.804-77.003z" fill="#323c6b"/><path d="m381.368 337.87-50.552 76.615c-26.173 39.766-79.626 50.786-119.392 24.613-.021-.014-.042-.028-.063-.042-2.205-1.457-4.206-3.09-6.228-4.703 29.335 37.226 83.294 43.622 120.52 14.287 7.335-5.78 13.677-12.719 18.776-20.542l52.683-79.841z" fill="#dbd8dd"/><path d="m398.078 352.973-149.704-98.77 54.555-82.747c26.935-41.562 82.463-53.421 124.025-26.486s53.421 82.463 26.486 124.025c-.266.41-.535.818-.807 1.224zm-140.276-100.703 138.344 91.269 50.811-77.064c25.203-38.204 14.664-89.607-23.541-114.81s-89.607-14.664-114.81 23.541z" fill="#323c6b"/><path d="m272.252 470.339c-49.549-.12-89.62-40.385-89.499-89.935.042-17.467 5.183-34.542 14.791-49.13l54.555-82.754 149.731 98.77-54.541 82.679c-13.027 19.913-33.486 33.781-56.808 38.505-5.998 1.237-12.105 1.862-18.229 1.865zm-18.214-212.406-50.797 77.084c-25.186 38.203-14.635 89.589 23.568 114.776 38.203 25.186 89.589 14.635 114.776-23.568l50.804-77.003z" fill="#323c6b"/><g fill="#eeefee"><path d="m389.393 161.539c0-.143 0-.293-.048-.442-.442-3.073-3.291-5.206-6.364-4.765-1.884.164-3.744.534-5.547 1.103-3.007.774-4.818 3.84-4.043 6.847.774 3.007 3.84 4.817 6.847 4.043 1.406-.465 2.865-.753 4.343-.858 2.906-.417 5.002-2.999 4.812-5.928z"/><path d="m364.679 169.686c-.029-3.109-2.573-5.605-5.682-5.576-.673.006-1.34.133-1.969.375-22.602 9.394-40.047 28.09-47.857 51.288-1.529 2.703-.577 6.133 2.126 7.662 2.639 1.493 5.987.624 7.567-1.964 6.506-20.973 21.955-37.994 42.201-46.496 2.189-.837 3.629-2.945 3.614-5.289z"/></g></g></svg>