<svg id="Layer_35" enable-background="new 0 0 64 64" height="512" viewBox="0 0 64 64" width="512" xmlns="http://www.w3.org/2000/svg"><g fill="#ffeaa7"><path d="m56 18c2.21 0 4 1.79 4 4v12c0 2.21-1.79 4-4 4h-2l-6 4v-4h-8.14c.09-.65.14-1.32.14-2s-.05-1.35-.14-2h3.14 4 7v-1c0-4.56-3.39-8.33-7.79-8.92-.4-.05-.8-.08-1.21-.08 2.76 0 5-2.24 5-5 0-.34-.03-.68-.1-1z"/><path d="m40 19c0 2.76 2.24 5 5 5-.41 0-.81.03-1.21.08-2.54.73-2.81.86-3.08 1-1.28.7-2.37 1.69-3.17 2.89l-.05.04c-1.79-2.57-4.41-4.51-7.49-5.43v-.58c0-1.48.8-2.77 2-3.46.59-.34 1.27-.54 2-.54h6.1c-.07.32-.1.66-.1 1z"/><path d="m19 22h7c-3.82 0-7.28 1.53-9.8 4h-10.2c-2.21 0-4-1.79-4-4v-12c0-2.21 1.79-4 4-4h6.1c-.07.32-.1.66-.1 1 0 2.76 2.24 5 5 5l-1.21.08c-3.35 1.07-4.33 1.74-5.15 2.56-1.63 1.62-2.64 3.88-2.64 6.36v1h7z"/><path d="m32 10v8.54c-1.2.69-2 1.98-2 3.46v.58c-1.27-.38-2.61-.58-4-.58v-1c0-4.56-3.39-8.33-7.79-8.92-.39-.05-.8-.08-1.21-.08 2.76 0 5-2.24 5-5 0-.34-.03-.68-.1-1h6.1c2.21 0 4 1.79 4 4z"/></g><path d="m26 21v1h-7l-.79-9.91v-.01c4.4.59 7.79 4.36 7.79 8.92z" fill="#ff826e"/><path d="m15.79 12.09-.79 9.91h-7v-1c0-2.48 1.01-4.74 2.64-6.36.82-.82 1.8-1.49 5.15-2.56z" fill="#ff826e"/><path d="m18.21 12.09.79 9.91h-4l.79-9.91v-.01l1.21-.08c.41 0 .82.03 1.21.08z" fill="#e6e9ed"/><path d="m54 33v1h-7l-.79-9.91v-.01c4.4.59 7.79 4.36 7.79 8.92z" fill="#b4dd7f"/><path d="m43.79 24.08v.01l-.79 9.91h-3.14c-.32-2.2-1.15-4.24-2.37-5.99l.05-.04c.8-1.2 1.89-2.19 3.17-2.89.27-.14.54-.27 3.08-1z" fill="#b4dd7f"/><path d="m46.21 24.09.79 9.91h-4l.79-9.91v-.01c.4-.05.8-.08 1.21-.08s.81.03 1.21.08z" fill="#e6e9ed"/><path d="m62 48v12c0 1.1-.9 2-2 2h-18c-1.1 0-2-.9-2-2v-12c0-1.1.9-2 2-2h18c1.1 0 2 .9 2 2z" fill="#b4dd7f"/><path d="m12 47 3 3 1 1-7.96 7.96c-.67.67-1.57 1.04-2.5 1.04-.98 0-1.86-.4-2.5-1.04s-1.04-1.52-1.04-2.5c0-.93.37-1.83 1.04-2.5l7.96-7.96z" fill="#dfb28b"/><path d="m17.72 47.28-2.72 2.72-3-3 2.72-2.72c.84 1.15 1.85 2.16 3 3z" fill="#fcd770"/><path d="m17.72 47.28c-1.15-.84-2.16-1.85-3-3-1.71-2.32-2.72-5.19-2.72-8.28 0-3.91 1.61-7.45 4.2-10 2.52-2.47 5.98-4 9.8-4 1.39 0 2.73.2 4 .58 3.08.92 5.7 2.86 7.49 5.43 1.22 1.75 2.05 3.79 2.37 5.99.09.65.14 1.32.14 2s-.05 1.35-.14 2c-.97 6.78-6.81 12-13.86 12-3.09 0-5.96-1.01-8.28-2.72z" fill="#e6e9ed"/><circle cx="26" cy="36" fill="#69d6f4" r="10"/><path d="m21.9 6c.07.32.1.66.1 1 0 2.76-2.24 5-5 5s-5-2.24-5-5c0-.34.03-.68.1-1 .46-2.28 2.48-4 4.9-4s4.44 1.72 4.9 4z" fill="#f0d0b4"/><path d="m50 19c0 2.76-2.24 5-5 5s-5-2.24-5-5c0-.34.03-.68.1-1 .46-2.28 2.48-4 4.9-4s4.44 1.72 4.9 4c.07.32.1.66.1 1z" fill="#f0d0b4"/><path d="m26 25c-6.065 0-11 4.935-11 11s4.935 11 11 11 11-4.935 11-11-4.935-11-11-11zm0 20c-4.962 0-9-4.037-9-9s4.038-9 9-9 9 4.037 9 9-4.038 9-9 9z"/><path d="m47 39v4.868l7.303-4.868h1.697c2.757 0 5-2.243 5-5v-12c0-2.757-2.243-5-5-5h-5.35c-.826-2.327-3.043-4-5.65-4s-4.824 1.673-5.65 4h-5.35c-.342 0-.677.035-1 .101v-7.101c0-2.757-2.243-5-5-5h-5.35c-.826-2.327-3.043-4-5.65-4s-4.824 1.673-5.65 4h-5.35c-2.757 0-5 2.243-5 5v12c0 2.757 2.243 5 5 5h8.028c-1.892 2.51-3.028 5.621-3.028 9 0 3.008.898 5.806 2.429 8.157l-1.429 1.429-1-1-8.671 8.672c-.857.856-1.329 1.996-1.329 3.207 0 2.501 2.035 4.535 4.536 4.535 1.212 0 2.351-.472 3.207-1.328l8.671-8.672-1-1 1.429-1.429c2.351 1.531 5.149 2.429 8.157 2.429 7.244 0 13.304-5.161 14.698-12zm4-20h5c1.654 0 3 1.346 3 3v12c0 1.654-1.346 3-3 3h-2.303l-4.697 3.132v-3.132h-8.051c.022-.332.051-.662.051-1s-.029-.668-.051-1h14.051v-2c0-4.207-2.616-7.809-6.304-9.283 1.4-1.1 2.304-2.803 2.304-4.717zm-3.076 14-.611-7.656c3.286.995 5.687 4.049 5.687 7.656zm-2.645-7.986.638 7.986h-1.834l.637-7.983c.094-.003.186-.017.28-.017s.186.011.279.014zm-3.203 7.986h-1.379c-.362-1.778-1.053-3.434-1.985-4.924 1.025-1.308 2.413-2.248 3.974-2.72zm2.924-18c2.206 0 4 1.794 4 4s-1.794 4-4 4-4-1.794-4-4 1.794-4 4-4zm-6 4c0 1.913.903 3.615 2.301 4.715-1.448.577-2.753 1.485-3.8 2.673-1.704-2.035-3.941-3.601-6.489-4.508.065-1.598 1.375-2.88 2.988-2.88zm-16-12h5c1.654 0 3 1.346 3 3v8.026c-1.034.783-1.745 1.949-1.931 3.293-.673-.141-1.366-.221-2.069-.267v-.052c0-4.207-2.616-7.809-6.304-9.283 1.4-1.1 2.304-2.803 2.304-4.717zm-14 14c0-3.607 2.401-6.661 5.688-7.656l-.612 7.656zm7.721-7.986c.093-.003.185-.014.279-.014s.186.011.279.014l.638 7.986h-1.834zm2.591.33c3.287.995 5.688 4.049 5.688 7.656h-5.076zm-2.312-10.344c2.206 0 4 1.794 4 4s-1.794 4-4 4-4-1.794-4-4 1.794-4 4-4zm-14 19v-12c0-1.654 1.346-3 3-3h5c0 1.914.904 3.617 2.304 4.717-3.688 1.474-6.304 5.076-6.304 9.283v2h11.549c-.98.564-1.887 1.237-2.712 2h-9.837c-1.654 0-3-1.346-3-3zm4.329 36.258c-.479.478-1.116.742-1.793.742-1.398 0-2.536-1.138-2.536-2.535 0-.677.264-1.313.743-1.793l7.257-7.258 3.586 3.586zm7.671-9.672-1.586-1.586 1.229-1.229c.489.567 1.019 1.097 1.586 1.586zm11 .414c-7.168 0-13-5.832-13-13s5.832-13 13-13 13 5.832 13 13-5.832 13-13 13z"/><path d="m60 45h-18c-1.654 0-3 1.346-3 3v12c0 1.654 1.346 3 3 3h18c1.654 0 3-1.346 3-3v-12c0-1.654-1.346-3-3-3zm1 15c0 .552-.449 1-1 1h-18c-.551 0-1-.448-1-1v-12c0-.552.449-1 1-1h18c.551 0 1 .448 1 1z"/><path d="m57 51h-2v6h-2v-4h-2v4h-2v-2h-2v2h-2v-8h-2v10h16v-2h-2z"/><path d="m55 21h2v2h-2z"/><path d="m55 25h2v2h-2z"/><path d="m5 9h2v2h-2z"/><path d="m5 13h2v2h-2z"/></svg>