<?xml version="1.0"?>
<svg xmlns="http://www.w3.org/2000/svg" xmlns:xlink="http://www.w3.org/1999/xlink" xmlns:svgjs="http://svgjs.com/svgjs" version="1.1" width="512" height="512" x="0" y="0" viewBox="0 0 64 64" style="enable-background:new 0 0 512 512" xml:space="preserve" class=""><g><path xmlns="http://www.w3.org/2000/svg" d="m8.029 8.029c9.37-9.37 24.569-9.37 33.939 0 8.891 8.89 9.351 23.04 1.351 32.46-.42.51-.87 1-1.351 1.479-.479.48-.97.931-1.479 1.351-9.42 8-23.57 7.54-32.46-1.351-9.37-9.369-9.37-24.569 0-33.939z" fill="#ffffff" data-original="#ffffff" style=""/><path xmlns="http://www.w3.org/2000/svg" d="m12.999 42.239c3.02 2.109 6.48 3.33 10 3.66 1.33.13 2.67.13 4 0 3.52-.33 6.98-1.551 10-3.66v-.01c1-.69 1.96-1.49 2.85-2.381 8.2-8.199 8.2-21.5 0-29.699-8.199-8.2-21.5-8.2-29.699 0-8.2 8.199-8.2 21.5 0 29.699.89.891 1.85 1.69 2.85 2.381v.01z" fill="#ffffff" data-original="#94c1ff" style="" class=""/><path xmlns="http://www.w3.org/2000/svg" d="m33.999 22.039h-17.99v-8.04c0-1.1.9-2 2-2h14.01c1.101 0 2 .9 2 2v8.04z" fill="#ffffff" data-original="#ffffff" style=""/><path xmlns="http://www.w3.org/2000/svg" d="m32.019 11.999h-3.003c1.101 0 2 .9 2 2v8.04h2.983.02v-8.04c0-1.1-.9-2-2-2z" fill="#ffffff" data-original="#d7e9ff" style="" class=""/><path xmlns="http://www.w3.org/2000/svg" d="m22.999 45.899-2-8.9 2 1 2-1 2 1 2-1-2 8.9c-1.33.13-2.67.13-4 0z" fill="#ffffff" data-original="#94c1ff" style="" class=""/><path xmlns="http://www.w3.org/2000/svg" d="m36.999 42.229v.01c-3.02 2.109-6.48 3.33-10 3.66l2-8.9h3c2.77 0 5 2.24 5 5z" fill="#ffffff" data-original="#ffffff" style=""/><path xmlns="http://www.w3.org/2000/svg" d="m31.999 36.999h-3c2.769.002 4.997 2.241 4.997 5v1.971c1.036-.49 2.044-1.061 3.003-1.73v-.01-.23c0-2.761-2.23-5.001-5-5.001z" fill="#ffffff" data-original="#e6e9ed" style="" class=""/><path xmlns="http://www.w3.org/2000/svg" d="m24.999 33.999c1.43 0 2.8-.34 4-.94v3.94l-2 1-2-1-2 1-2-1v-3.94c1.2.6 2.57.94 4 .94z" fill="#ffffff" data-original="#94c1ff" style="" class=""/><path xmlns="http://www.w3.org/2000/svg" d="m20.999 36.999 2 8.9c-3.52-.33-6.98-1.551-10-3.66v-.01-.23c0-2.76 2.24-5 5-5z" fill="#ffffff" data-original="#ffffff" style=""/><path xmlns="http://www.w3.org/2000/svg" d="m44.589 50.249 1.42-1.42 2.82-2.82 1.42-1.42 11.58 11.58c1.56 1.561 1.56 4.1 0 5.66-1.561 1.56-4.1 1.56-5.66 0z" fill="#ffffff" data-original="#94c1ff" style="" class=""/><path xmlns="http://www.w3.org/2000/svg" d="m41.969 41.969c.48-.479.931-.97 1.351-1.479l5.51 5.52-2.82 2.82-5.51-5.5-.01-.01c.509-.421.999-.871 1.479-1.351z" fill="#ffffff" data-original="#d7e9ff" style="" class=""/><path xmlns="http://www.w3.org/2000/svg" d="m16.009 22.039h17.99v2.96c0 3.53-2.04 6.59-5 8.06-1.2.601-2.57.94-4 .94s-2.8-.34-4-.94c-2.95-1.46-4.98-4.5-5-8.01v-.05-2.96z" fill="#ffffff" data-original="#d7e9ff" style="" class=""/><path xmlns="http://www.w3.org/2000/svg" d="m30.996 22.039v2.96c0 3.53-2.04 6.59-5 8.06-.771.386-1.616.649-2.498.8.49.083.989.141 1.501.141 1.43 0 2.8-.34 4-.94 2.96-1.47 5-4.529 5-8.06v-2.96h-3.003z" fill="#ffffff" data-original="#94c1ff" style="" class=""/><g xmlns="http://www.w3.org/2000/svg" fill="#116fff"><path d="m13 43c-.553 0-1-.447-1-1 0-3.309 2.691-6 6-6 .553 0 1 .447 1 1s-.447 1-1 1c-2.206 0-4 1.794-4 4 0 .553-.447 1-1 1z" fill="#007373" data-original="#116fff" style="" class=""/><path d="m21 38h-3c-.553 0-1-.447-1-1s.447-1 1-1h3c.553 0 1 .447 1 1s-.447 1-1 1z" fill="#007373" data-original="#116fff" style="" class=""/><path d="m13 43.236c-.553 0-1-.447-1-1v-.236c0-.553.447-1 1-1s1 .447 1 1v.236c0 .553-.447 1-1 1z" fill="#007373" data-original="#116fff" style="" class=""/><path d="m37 43c-.553 0-1-.447-1-1 0-2.206-1.794-4-4-4-.553 0-1-.447-1-1s.447-1 1-1c3.309 0 6 2.691 6 6 0 .553-.447 1-1 1z" fill="#007373" data-original="#116fff" style="" class=""/><path d="m32 38h-3c-.553 0-1-.447-1-1s.447-1 1-1h3c.553 0 1 .447 1 1s-.447 1-1 1z" fill="#007373" data-original="#116fff" style="" class=""/><path d="m37 43.236c-.553 0-1-.447-1-1v-.236c0-.553.447-1 1-1s1 .447 1 1v.236c0 .553-.447 1-1 1z" fill="#007373" data-original="#116fff" style="" class=""/><path d="m21 38c-.553 0-1-.447-1-1v-3.936c0-.553.447-1 1-1s1 .447 1 1v3.936c0 .553-.447 1-1 1z" fill="#007373" data-original="#116fff" style="" class=""/><path d="m29 38c-.553 0-1-.447-1-1v-3.936c0-.553.447-1 1-1s1 .447 1 1v3.936c0 .553-.447 1-1 1z" fill="#007373" data-original="#116fff" style="" class=""/><path d="m25 35c-5.514 0-10-4.485-10-9.998 0-.553.447-1 1-1s1 .447 1 1c0 4.41 3.589 7.998 8 7.998s8-3.588 8-7.998c0-.553.447-1 1-1s1 .447 1 1c0 5.513-4.486 9.998-10 9.998z" fill="#007373" data-original="#116fff" style="" class=""/><path d="m16 26.051c-.553 0-1-.447-1-1v-4.049c0-.553.447-1 1-1s1 .447 1 1v4.049c0 .553-.447 1-1 1z" fill="#007373" data-original="#116fff" style="" class=""/><path d="m34 26.002c-.553 0-1-.447-1-1v-4c0-.553.447-1 1-1s1 .447 1 1v4c0 .553-.447 1-1 1z" fill="#007373" data-original="#116fff" style="" class=""/><path d="m22.999 39c-.15 0-.303-.034-.446-.105l-2-1c-.494-.247-.694-.848-.447-1.342.248-.495.849-.692 1.342-.447l2 1c.494.247.694.848.447 1.342-.176.35-.529.552-.896.552z" fill="#007373" data-original="#116fff" style="" class=""/><path d="m23.001 39c-.367 0-.72-.202-.896-.553-.247-.494-.047-1.095.447-1.342l2-1c.495-.245 1.094-.048 1.342.447.247.494.047 1.095-.447 1.342l-2 1c-.143.072-.296.106-.446.106z" fill="#007373" data-original="#116fff" style="" class=""/><path d="m27.001 39c-.367 0-.72-.202-.896-.553-.247-.494-.047-1.095.447-1.342l2-1c.494-.245 1.095-.048 1.342.447.247.494.047 1.095-.447 1.342l-2 1c-.143.072-.296.106-.446.106z" fill="#007373" data-original="#116fff" style="" class=""/><path d="m26.999 39c-.15 0-.303-.034-.446-.105l-2-1c-.494-.247-.694-.848-.447-1.342.247-.495.848-.692 1.342-.447l2 1c.494.247.694.848.447 1.342-.176.35-.529.552-.896.552z" fill="#007373" data-original="#116fff" style="" class=""/><path d="m25 46.998c-5.877 0-11.401-2.288-15.557-6.443-4.155-4.154-6.443-9.678-6.443-15.556 0-5.877 2.288-11.401 6.443-15.556 4.156-4.155 9.68-6.443 15.557-6.443s11.401 2.288 15.557 6.443c8.577 8.577 8.577 22.534 0 31.111-4.156 4.156-9.68 6.444-15.557 6.444zm0-41.998c-5.343 0-10.365 2.08-14.143 5.857-3.777 3.777-5.857 8.799-5.857 14.142s2.08 10.365 5.857 14.142 8.8 5.857 14.143 5.857 10.365-2.08 14.143-5.857c7.798-7.798 7.798-20.485 0-28.283-3.778-3.778-8.8-5.858-14.143-5.858z" fill="#007373" data-original="#116fff" style="" class=""/><path d="m25 49.998c-6.678 0-12.956-2.6-17.678-7.321s-7.321-11-7.322-17.678c0-6.678 2.601-12.956 7.322-17.677 4.723-4.721 11.001-7.322 17.678-7.322 6.678 0 12.956 2.601 17.678 7.322 9.747 9.747 9.747 25.606 0 35.354-4.723 4.722-11.001 7.322-17.678 7.322zm0-47.998c-6.143 0-11.919 2.393-16.264 6.736-4.343 4.344-6.736 10.119-6.736 16.263.001 6.144 2.393 11.92 6.736 16.264s10.12 6.735 16.264 6.735c6.143 0 11.919-2.392 16.264-6.735 8.967-8.968 8.967-23.56 0-32.526-4.344-4.344-10.12-6.737-16.264-6.737z" fill="#007373" data-original="#116fff" style="" class=""/><path d="m46.006 49.834c-.256 0-.512-.098-.707-.293l-5.508-5.509c-.391-.391-.391-1.023 0-1.414s1.023-.391 1.414 0l5.508 5.509c.391.391.391 1.023 0 1.414-.195.195-.451.293-.707.293z" fill="#007373" data-original="#116fff" style="" class=""/><path d="m48.834 47.006c-.256 0-.512-.098-.707-.293l-5.514-5.515c-.391-.391-.391-1.023 0-1.414s1.023-.391 1.414 0l5.514 5.515c.391.391.391 1.023 0 1.414-.195.195-.451.293-.707.293z" fill="#007373" data-original="#116fff" style="" class=""/><path d="m44.592 51.248c-.256 0-.512-.098-.707-.293-.391-.391-.391-1.023 0-1.414l5.656-5.658c.391-.391 1.023-.391 1.414 0s.391 1.023 0 1.414l-5.656 5.658c-.195.195-.451.293-.707.293z" fill="#007373" data-original="#116fff" style="" class=""/><path d="m56.172 62.828c-.256 0-.512-.098-.707-.293l-11.58-11.58c-.391-.391-.391-1.023 0-1.414s1.023-.391 1.414 0l11.58 11.58c.391.391.391 1.023 0 1.414-.195.195-.451.293-.707.293z" fill="#007373" data-original="#116fff" style="" class=""/><path d="m61.828 57.173c-.256 0-.512-.098-.707-.293l-11.58-11.583c-.391-.391-.391-1.023 0-1.414s1.023-.391 1.414 0l11.58 11.583c.391.391.391 1.023 0 1.414-.195.195-.451.293-.707.293z" fill="#007373" data-original="#116fff" style="" class=""/><path d="m59.001 64c-1.336 0-2.592-.521-3.536-1.465-.391-.391-.391-1.023 0-1.414s1.023-.391 1.414 0c1.133 1.132 3.11 1.136 4.241 0 .567-.566.88-1.32.88-2.122 0-.801-.312-1.553-.878-2.118-.392-.391-.392-1.023-.002-1.414.391-.393 1.025-.391 1.414-.002.945.943 1.466 2.198 1.466 3.534s-.521 2.592-1.465 3.536c-.943.944-2.198 1.465-3.534 1.465z" fill="#007373" data-original="#116fff" style="" class=""/><path d="m22.999 46.903c-.457 0-.87-.315-.975-.781l-2-8.903c-.121-.538.218-1.073.757-1.194.537-.121 1.073.218 1.194.757l2 8.903c.121.538-.218 1.073-.757 1.194-.072.017-.147.024-.219.024z" fill="#007373" data-original="#116fff" style="" class=""/><path d="m26.999 46.903c-.072 0-.146-.008-.221-.024-.538-.121-.877-.656-.756-1.195l2.002-8.903c.121-.538.651-.876 1.195-.756.538.121.877.656.756 1.195l-2.002 8.903c-.104.465-.517.78-.974.78z" fill="#007373" data-original="#116fff" style="" class=""/><path d="m34.021 23.038h-18.007c-.553 0-1-.447-1-1v-8.04c0-1.654 1.346-3 3-3h14.007c1.654 0 3 1.346 3 3v8.04c0 .553-.448 1-1 1zm-17.007-2h16.007v-7.04c0-.552-.448-1-1-1h-14.007c-.552 0-1 .448-1 1z" fill="#007373" data-original="#116fff" style="" class=""/><path d="m25.003 20.011c-.553 0-1-.447-1-1v-4.012c0-.553.447-1 1-1s1 .447 1 1v4.012c0 .552-.447 1-1 1z" fill="#007373" data-original="#116fff" style="" class=""/><path d="m27.004 18.018h-4.002c-.553 0-1-.447-1-1s.447-1 1-1h4.002c.553 0 1 .447 1 1s-.447 1-1 1z" fill="#007373" data-original="#116fff" style="" class=""/></g></g></svg>
