<svg height="512pt" viewBox="0 0 512.001 512" width="512pt" xmlns="http://www.w3.org/2000/svg"><path d="m470 191.828125c0 82.757813-67.070312 149.828125-149.824219 149.828125-82.761719 0-149.828125-67.070312-149.828125-149.828125s67.070313-149.828125 149.828125-149.828125c82.753907 0 149.824219 67.070312 149.824219 149.828125zm-149.824219 181.828125c100.417969 0 181.824219-81.40625 181.824219-181.828125s-81.40625-181.828125-181.824219-181.828125c-100.421875 0-181.828125 81.40625-181.828125 181.828125 0 42.5 14.582032 81.597656 39.015625 112.554687 8.863281 11.230469 19.023438 21.390626 30.25 30.253907 30.960938 24.433593 70.058594 39.019531 112.5625 39.019531zm0 0" fill="#808080"/><path d="m170.34375 191.828125c0 82.757813 67.070312 149.828125 149.828125 149.828125s149.828125-67.070312 149.828125-149.828125-67.070312-149.828125-149.824219-149.828125c-82.761719 0-149.828125 67.070312-149.832031 149.828125zm0 0" fill="#8ae7d3"/><path d="m146.222656 335.523438 30.25 30.253906 31.140625-31.140625c-11.230469-8.863281-21.386719-19.023438-30.25-30.253907zm0 0" fill="#b3b3b3"/><path d="m138.660156 327.960938-119.300781 119.304687c-12.476563 12.476563-12.480469 32.898437 0 45.375 12.480469 12.480469 32.898437 12.480469 45.378906 0l119.300781-119.300781-7.566406-7.5625-30.25-30.253906zm0 0" fill="#808080"/><path d="m340.6875 171.316406-41.027344 41.023438 41.027344 41.027344c11.28125 11.28125 29.742188 11.28125 41.023438 0 11.285156-11.28125 11.285156-29.742188 0-41.027344zm0 0" fill="#ff836c"/><path d="m299.660156 130.289062c-11.28125-11.28125-29.742187-11.28125-41.023437 0-11.285157 11.28125-11.285157 29.742188 0 41.023438l41.023437 41.027344 41.027344-41.023438zm0 0" fill="#e6e6e6"/><path d="m0 469.953125c0 11.265625 4.363281 21.832031 12.285156 29.757813 7.929688 7.925781 18.496094 12.289062 29.765625 12.289062 11.265625 0 21.835938-4.363281 29.757813-12.289062l119.300781-119.300782c3.90625-3.90625 3.90625-10.238281 0-14.144531l-.492187-.492187 17.992187-17.988282c31.457031 22.566406 69.984375 35.871094 111.566406 35.871094 105.773438 0 191.824219-86.054688 191.824219-191.828125 0-33.625-8.886719-66.792969-25.699219-95.914063-2.761719-4.785156-8.875-6.421874-13.660156-3.660156-4.785156 2.761719-6.421875 8.878906-3.660156 13.660156 15.058593 26.085938 23.019531 55.792969 23.019531 85.914063 0 94.746094-77.082031 171.828125-171.824219 171.828125-94.746093 0-171.828125-77.082031-171.828125-171.828125s77.082032-171.828125 171.828125-171.828125c36.796875 0 73.300781 12.125 102.789063 34.140625 4.425781 3.300781 10.691406 2.390625 13.992187-2.03125 3.308594-4.425781 2.398438-10.695313-2.027343-13.996094-32.917969-24.578125-73.671876-38.113281-114.753907-38.113281-105.777343 0-191.828125 86.054688-191.832031 191.828125 0 41.578125 13.304688 80.105469 35.871094 111.5625l-17.992188 17.988281-.488281-.488281c-1.878906-1.875-4.421875-2.929687-7.074219-2.929687s-5.195312 1.054687-7.070312 2.929687l-119.300782 119.300781c-7.921874 7.925782-12.28515575 18.492188-12.289062 29.761719zm176.476562-118.320313-16.109374-16.113281 16.417968-16.417969c5.046875 5.683594 10.425782 11.0625 16.109375 16.109376zm-156.476562 118.320313c0-5.925781 2.285156-11.472656 6.433594-15.617187l112.226562-112.230469.472656.46875c.003907.007812.011719.011719.019532.019531l30.25 30.253906c.011718.007813.019531.015625.03125.027344l.464844.464844-112.230469 112.230468c-4.148438 4.148438-9.691407 6.429688-15.617188 6.429688s-11.472656-2.28125-15.617187-6.429688c-4.148438-4.148437-6.433594-9.695312-6.433594-15.617187zm0 0"/><path d="m468.683594 70.40625-.078125-.09375c-3.460938-4.296875-9.753907-4.992188-14.058594-1.539062-4.304687 3.453124-5.003906 9.726562-1.558594 14.035156l.265625.328125c1.980469 2.394531 4.839844 3.632812 7.722656 3.632812 2.238282 0 4.492188-.746093 6.355469-2.285156 4.261719-3.515625 4.863281-9.820313 1.351563-14.078125zm0 0"/><path d="m195.417969 275.402344c4.785156-2.761719 6.421875-8.878906 3.660156-13.660156-12.253906-21.226563-18.730469-45.402344-18.730469-69.914063 0-77.101563 62.726563-139.828125 139.828125-139.828125 77.097657 0 139.824219 62.726562 139.824219 139.828125s-62.726562 139.828125-139.824219 139.828125c-24.511719 0-48.6875-6.480469-69.914062-18.734375-4.785157-2.761719-10.902344-1.121094-13.660157 3.660156-2.761718 4.78125-1.125 10.898438 3.660157 13.660157 24.261719 14.007812 51.894531 21.414062 79.914062 21.414062 88.128907 0 159.824219-71.699219 159.824219-159.828125s-71.695312-159.828125-159.824219-159.828125c-88.132812 0-159.828125 71.699219-159.828125 159.828125 0 28.015625 7.402344 55.648437 21.410156 79.914063 2.761719 4.78125 8.875 6.421874 13.660157 3.660156zm0 0"/><path d="m199.789062 296.957031c.027344.03125.113282.128907.140626.160157 1.980468 2.253906 4.757812 3.410156 7.546874 3.410156 2.332032 0 4.671876-.808594 6.5625-2.460938 4.148438-3.625 4.605469-9.902344.992188-14.0625-.015625-.015625-.070312-.078125-.082031-.089844-3.59375-4.195312-9.894531-4.664062-14.089844-1.070312-4.191406 3.59375-4.664063 9.917969-1.070313 14.113281zm0 0"/><path d="m279.148438 111.828125c-10.445313 0-20.238282 4.042969-27.585938 11.390625-7.34375 7.34375-11.390625 17.140625-11.390625 27.582031 0 10.441407 4.046875 20.238281 11.390625 27.585938l82.054688 82.050781c7.601562 7.605469 17.59375 11.40625 27.582031 11.40625s19.976562-3.800781 27.585937-11.40625c15.207032-15.210938 15.207032-39.957031 0-55.167969l-82.054687-82.050781c-7.34375-7.347656-17.140625-11.390625-27.582031-11.390625zm34.65625 100.511719 26.882812-26.882813 33.953125 33.957031c7.410156 7.410157 7.410156 19.46875 0 26.882813-3.566406 3.566406-8.339844 5.53125-13.441406 5.53125-5.101563 0-9.875-1.964844-13.441407-5.53125zm-48.097657-74.980469c3.566407-3.566406 8.339844-5.53125 13.441407-5.53125 5.101562 0 9.875 1.964844 13.441406 5.53125l33.953125 33.957031-26.882813 26.882813-33.953125-33.957031c-3.570312-3.566407-5.535156-8.339844-5.535156-13.441407 0-5.097656 1.964844-9.871093 5.535156-13.441406zm0 0"/></svg>