<?xml version="1.0" encoding="iso-8859-1"?>
<!-- Generator: Adobe Illustrator 19.0.0, SVG Export Plug-In . SVG Version: 6.00 Build 0)  -->
<svg version="1.1" id="Capa_1" xmlns="http://www.w3.org/2000/svg" xmlns:xlink="http://www.w3.org/1999/xlink" x="0px" y="0px"
	 viewBox="0 0 512 512" style="enable-background:new 0 0 512 512;" xml:space="preserve">
<g>
	<g>
		<path d="M394.905,270.907c-64.565,0-117.094,52.528-117.094,117.094s52.528,117.094,117.094,117.094S512,452.567,512,388.001
			S459.472,270.907,394.905,270.907z M402.405,489.819V361.176c0-4.142-3.357-7.5-7.5-7.5s-7.5,3.358-7.5,7.5v128.643
			c-52.806-3.853-94.594-48.045-94.594-101.818c0-53.773,41.787-97.965,94.594-101.818v39.826c0,4.142,3.357,7.5,7.5,7.5
			s7.5-3.358,7.5-7.5v-39.826C455.212,290.037,497,334.229,497,388.001C497,441.773,455.212,485.966,402.405,489.819z"/>
	</g>
</g>
<g>
	<g>
		<path d="M406.838,37.16c-19.511-19.51-45.451-30.255-73.042-30.255c-27.592,0-53.532,10.745-73.042,30.255L145.531,152.383
			c-0.002,0.002-0.003,0.003-0.005,0.005s-0.003,0.003-0.005,0.005L30.255,267.658C10.745,287.169,0,313.109,0,340.7
			c0,27.592,10.745,53.532,30.255,73.041c20.138,20.138,46.59,30.206,73.042,30.206c26.452,0,52.905-10.069,73.043-30.206
			l230.499-230.499c19.509-19.509,30.254-45.449,30.254-73.041S426.348,56.669,406.838,37.16z M396.23,172.636L286.307,282.56
			l-82.588-82.588c-2.93-2.929-7.678-2.929-10.607,0c-2.929,2.929-2.929,7.678,0,10.606l82.588,82.588L165.732,403.135
			c-34.427,34.428-90.445,34.426-124.87,0C24.185,386.458,15,364.285,15,340.7c0-23.585,9.185-45.758,25.862-62.435L150.83,168.297
			l17.407,17.407c1.465,1.464,3.385,2.197,5.304,2.197s3.839-0.732,5.304-2.197c2.929-2.929,2.929-7.678,0-10.606l-17.407-17.407
			L271.362,47.766c16.677-16.677,38.85-25.862,62.434-25.862c23.585,0,45.758,9.185,62.434,25.862
			c16.678,16.677,25.862,38.85,25.862,62.435S412.907,155.959,396.23,172.636z"/>
	</g>
</g>
<g>
</g>
<g>
</g>
<g>
</g>
<g>
</g>
<g>
</g>
<g>
</g>
<g>
</g>
<g>
</g>
<g>
</g>
<g>
</g>
<g>
</g>
<g>
</g>
<g>
</g>
<g>
</g>
<g>
</g>
</svg>
