<?xml version="1.0"?>
<svg xmlns="http://www.w3.org/2000/svg" xmlns:xlink="http://www.w3.org/1999/xlink" xmlns:svgjs="http://svgjs.com/svgjs" version="1.1" width="512" height="512" x="0" y="0" viewBox="0 0 64 64" style="enable-background:new 0 0 512 512" xml:space="preserve" class=""><g><g xmlns="http://www.w3.org/2000/svg" id="outline"><path d="M59,2H39a3,3,0,0,0-3,3V6.019a10,10,0,1,0,0,15.962V31a3,3,0,0,0,3,3h3v4a1,1,0,0,0,1,1h1v1a3,3,0,0,0,3,3h3a1,1,0,0,1,1,1v2H23.236l-3.491-1.745-1.85-3.7A1,1,0,0,0,17,40H13a3,3,0,0,0-3,3v1H4.893A2.763,2.763,0,0,0,2,47a2.959,2.959,0,0,0,.818,1.955A2.96,2.96,0,0,0,2.78,53,2.971,2.971,0,0,0,3.4,57.529,2.967,2.967,0,0,0,3,59a3,3,0,0,0,3,3H19a1,1,0,0,0,.447-.1L23.236,60H61a1,1,0,0,0,1-1V47a1,1,0,0,0-1-1H53V44a3,3,0,0,0-3-3H47a1,1,0,0,1-1-1V39h1a1,1,0,0,0,1-1V34h2v2a1,1,0,0,0,1,1h4a1,1,0,0,0,1-1V34h3a3,3,0,0,0,3-3V5A3,3,0,0,0,59,2ZM49,48h2v3a1,1,0,0,1-1,1H49Zm-6,6H40.236L39,53.382v-.764L40.236,52H43Zm0-4H40a1,1,0,0,0-.447.1l-2,1A1,1,0,0,0,37,52H35V51a1,1,0,0,0-1-1H30a1,1,0,0,0-1,1v4a1,1,0,0,0,1,1h4a1,1,0,0,0,1-1V54h2a1,1,0,0,0,.553.9l2,1A1,1,0,0,0,40,56h3v2H23a1,1,0,0,0-.447.1L18.764,60H6a1,1,0,0,1,0-2h7V56H5a1,1,0,0,1,0-2h9V52H5a1,1,0,0,1,0-2H15V48H5a1.19,1.19,0,0,1-1-1c0-.833.342-1,.893-1H14V44H12V43a1,1,0,0,1,1-1h3.382l1.723,3.447a1,1,0,0,0,.448.448l4,2A1,1,0,0,0,23,48H43ZM33,52v2H31V52Zm14,6H45V48h2Zm6-7V48h7V58H49V54h1A3,3,0,0,0,53,51ZM30,22a8,8,0,1,1,8-8A8.009,8.009,0,0,1,30,22Zm30,9a1,1,0,0,1-1,1H55a1,1,0,0,0-1,1v2H52V33a1,1,0,0,0-1-1H47a1,1,0,0,0-1,1v4H44V33a1,1,0,0,0-1-1H39a1,1,0,0,1-1-1V19.974A9.922,9.922,0,0,0,38,8.026V5a1,1,0,0,1,1-1H59a1,1,0,0,1,1,1Z" fill="#007373" data-original="#000000" style="" class=""/><path d="M41,30H57a1,1,0,0,0,1-1V7a1,1,0,0,0-1-1H41a1,1,0,0,0-1,1V29A1,1,0,0,0,41,30ZM42,8H56v2.11a5.215,5.215,0,0,0-1.442.5,3.321,3.321,0,0,1-3.121,0,5.317,5.317,0,0,0-4.884,0,3.311,3.311,0,0,1-3.114,0A5.254,5.254,0,0,0,42,10.11Zm0,4.16a4.953,4.953,0,0,1,.557.245,5.3,5.3,0,0,0,4.879,0,3.322,3.322,0,0,1,3.118,0,5.317,5.317,0,0,0,4.884,0A4.938,4.938,0,0,1,56,12.159V28H42Z" fill="#007373" data-original="#000000" style="" class=""/><path d="M11.364,12.181a3,3,0,0,0-4.243,0L2.879,16.423a3,3,0,0,0,4.242,4.242L8.536,22.08,6.414,24.2a1,1,0,0,0,0,1.414l2.829,2.828a1,1,0,0,0,1.414,0l.707-.707,7.779,7.779a1.8,1.8,0,0,0,.39.241L23.551,37.1,24.8,38.343a2.962,2.962,0,0,0,3.406.577l5.786,5.787,1.414-1.414-5.786-5.788a3,3,0,0,0-.577-3.4l-1.249-1.248-1.339-4.019a1.773,1.773,0,0,0-.241-.391l-7.778-7.778.707-.707a1,1,0,0,0,0-1.414l-2.829-2.828a1,1,0,0,0-1.414,0l-2.121,2.121-1.414-1.414h0A3,3,0,0,0,11.364,12.181Zm-5.657,7.07a1,1,0,0,1-1.414,0,1,1,0,0,1,0-1.413L8.535,13.6a1,1,0,1,1,1.414,1.414Zm2.828,0L9.95,17.837l1.414,1.414L9.95,20.666ZM26.92,34.808l.707.707a1,1,0,1,1-1.414,1.414l-.707-.707Zm-1.145-1.685-1.954,1.954-2.12-.706L25.069,31Zm-7.34-9.629-1.414,1.414,1.414,1.414,1.414-1.414,1.415,1.414L19.85,27.736l1.414,1.414,1.414-1.414,1.414,1.414L19.85,33.394l-7.072-7.072,4.243-4.243Zm-2.829-5.657,1.415,1.414L9.95,26.322,8.535,24.908Z" fill="#007373" data-original="#000000" style="" class=""/><path d="M35,11H33V9a1,1,0,0,0-1-1H28a1,1,0,0,0-1,1v2H25a1,1,0,0,0-1,1v4a1,1,0,0,0,1,1h2v2a1,1,0,0,0,1,1h4a1,1,0,0,0,1-1V17h2a1,1,0,0,0,1-1V12A1,1,0,0,0,35,11Zm-1,4H32a1,1,0,0,0-1,1v2H29V16a1,1,0,0,0-1-1H26V13h2a1,1,0,0,0,1-1V10h2v2a1,1,0,0,0,1,1h2Z" fill="#007373" data-original="#000000" style="" class=""/><rect x="52" y="24" width="2" height="2" fill="#007373" data-original="#000000" style="" class=""/><rect x="48" y="24" width="2" height="2" fill="#007373" data-original="#000000" style="" class=""/></g></g></svg>
