<svg id="Capa_1" enable-background="new 0 0 512.027 512.027" height="512" viewBox="0 0 512.027 512.027" width="512" xmlns="http://www.w3.org/2000/svg"><g><g><path d="m38.86 422.518h28.032v70.275h-28.032z" fill="#f8a5af" transform="matrix(.903 .43 -.43 .903 201.695 21.654)"/><path d="m68.028 425.952-27.538 57.899c-1.461 3.073-5.137 4.379-8.209 2.917l18.161 8.638 30.184-63.462z" fill="#f58a97"/><path d="m93.625 422.518h28.032v70.275h-28.032z" fill="#f8a5af" transform="matrix(-.903 .43 -.43 -.903 401.417 824.712)"/><path d="m120.215 483.85c1.443 3.033.153 6.661-2.88 8.104l-3.611 1.717 21.666-10.305-30.184-63.462-12.564 5.976z" fill="#f58a97"/><path d="m357.686 272.48h-214.868v-156.031h226.368v144.531c0 6.351-5.149 11.5-11.5 11.5z" fill="#d9def7"/><path d="m343.9 116.449v144.531c0 6.352-5.149 11.5-11.5 11.5h25.286c6.352 0 11.5-5.149 11.5-11.5v-144.531z" fill="#bec6ed"/><path d="m287.312 49.619h-62.62c-9.112 0-16.499-7.387-16.499-16.499 0-9.112 7.387-16.499 16.499-16.499h62.62c9.112 0 16.499 7.387 16.499 16.499 0 9.112-7.387 16.499-16.499 16.499z" fill="#7bacdf"/><path d="m287.312 16.621h-25.286c9.112 0 16.499 7.387 16.499 16.499s-7.387 16.499-16.499 16.499h25.286c9.112 0 16.499-7.387 16.499-16.499s-7.386-16.499-16.499-16.499z" fill="#5f99d7"/><path d="m375.981 137.045h-239.958c-6.351 0-11.5-5.149-11.5-11.5v-39.228c0-6.351 5.149-11.5 11.5-11.5h239.958c6.351 0 11.5 5.149 11.5 11.5v39.227c0 6.352-5.149 11.501-11.5 11.501z" fill="#7bacdf"/><path d="m375.981 74.817h-25.286c6.352 0 11.5 5.149 11.5 11.5v39.227c0 6.351-5.149 11.5-11.5 11.5h25.286c6.352 0 11.5-5.149 11.5-11.5v-39.227c0-6.351-5.149-11.5-11.5-11.5z" fill="#5f99d7"/><path d="m289.938 192.115h-19.7v-19.7h-28.471v19.7h-19.701v28.471h19.701v19.701h28.471v-19.701h19.7z" fill="#eb5569"/><path d="m270.238 192.116v-19.7h-20.001c2.832 0 5.127 2.295 5.127 5.127v14.574h14.167c3.056 0 5.533 2.477 5.533 5.533v17.405c0 3.056-2.477 5.533-5.533 5.533h-14.167v14.573c0 2.831-2.295 5.127-5.127 5.127h20.001v-19.7h19.7v-28.471h-19.7z" fill="#e53950"/><g><path d="m426.581 333.587-134.126 50.732-16.638-43.988 134.126-50.732c12.147-4.594 25.718 1.528 30.313 13.675 4.594 12.147-1.528 25.718-13.675 30.313z" fill="#ffbd86"/><path d="m440.256 303.274c-4.38-11.581-16.921-17.678-28.607-14.24-.119 9.385-5.883 18.18-15.193 21.701l-115.333 43.624 11.332 29.96 134.126-50.732c12.147-4.595 18.269-18.166 13.675-30.313z" fill="#f6a96c"/><path d="m468.899 349.114-134.126 50.732-60.824-39.136 40.757-3.585 137.556-51.998c12.147-4.594 25.718 1.528 30.313 13.675 4.593 12.146-1.529 25.717-13.676 30.312z" fill="#fed2a4"/><path d="m468.902 349.114-134.13 50.73-23.96-15.41 134.37-50.85c12.03-4.54 18.14-17.88 13.81-29.93 10.07-.68 19.83 5.22 23.58 15.15 4.6 12.14-1.53 25.71-13.67 30.31z" fill="#ffbd86"/><path d="m504.512 369.954c0 9.48-5.79 18.41-15.19 21.97-25.177 9.517-74.233 28.627-108.998 42.215-26.035 10.176-53.472 16.295-81.364 18.149l-51.689 3.436c-13.27.3-26.49-1.7-39.08-5.92l-31.499-11.227-36.801-9.663-62.42 12.73-28.66 5.85-41.31 8.43v-167.94l41.31-6.17 14.33-2.14 14.33-2.14 14.33-2.14 28.75-9.641c22.697-7.611 47.47-7.148 69.572 2.047.759.316 1.515.641 2.267.975l80.907 35.935c7.891 3.505 16.367 5.49 24.994 5.85 17.01.712 44.617 1.867 44.679 1.874 25.89 3.77 24.94 40.89-1.85 42.79l-50.86 6.65 75.51 23.26 106.39-37.55.31-.11c12.33-4.36 25.88 1.94 30.51 14.17 1.032 2.74 1.532 5.55 1.532 8.31z" fill="#ffe5c2"/><g fill="#fed2a4"><path d="m313.622 344.02-81.074 18.483 57.937-.659 50.637-6.621c26.785-1.903 27.74-39.016 1.85-42.79-.026-.003-4.684-.199-11.341-.478 6.761 12.327.655 30.739-18.009 32.065z"/><path d="m502.982 361.644c-4.455-11.768-17.168-18.04-29.107-14.614.614 1.078 1.154 2.214 1.607 3.41 1.03 2.74 1.53 5.55 1.53 8.31 0 9.48-5.79 18.41-15.19 21.97-30.139 11.393-118.425 42.767-160.19 58.56-6.86 2.59-14.11 3.99-21.44 4.12l-60.42 3.12c-7.947.18-19.975-2.09-31.051-3.242l19.471 6.526c12.59 4.22 25.81 6.22 39.08 5.92l51.689-3.436c27.891-1.854 55.329-7.973 81.364-18.149 34.764-13.588 83.821-32.698 108.998-42.215 9.4-3.56 15.19-12.49 15.19-21.97-.001-2.76-.501-5.57-1.531-8.31z"/><path d="m106.273 418.959-98.771 20.151v16.814l131.795-26.888-21.149-8.902c-3.75-1.579-7.889-1.989-11.875-1.175z"/></g></g><path d="m77.472 277.534v164.11l-28.66 5.85v-165.68z" fill="#fed2a4"/><path d="m91.802 275.394v163.33l-28.66 5.85v-164.9z" fill="#f8a5af"/><path d="m77.472 277.534v164.115l14.33-2.925v-163.33z" fill="#f58a97"/></g><g><path d="m509.996 358.989c-3.667-9.685-11.75-16.555-21.133-19.179 3.338-7.282 3.653-16.111.725-23.656-6.043-15.994-23.974-24.089-39.979-18.044l-2.914 1.102c-3.073-7.085-8.592-12.694-15.679-15.89-7.552-3.407-15.979-3.666-23.728-.732l-60.589 22.92c-.858-.192-3.242-.566-48.092-2.442-7.714-.322-15.204-2.076-22.264-5.211 0 0-82.521-36.641-83.337-36.981-13.506-5.617-28.045-8.246-42.684-7.893v-108.438h164.929c4.143 0 7.5-3.358 7.5-7.5s-3.357-7.5-7.5-7.5h-179.227c-2.206 0-4.001-1.794-4.001-4v-39.228c0-2.206 1.795-4 4.001-4h239.957c2.206 0 4 1.794 4 4v39.227c0 2.206-1.794 4-4 4h-24.63c-4.143 0-7.5 3.358-7.5 7.5s3.357 7.5 7.5 7.5h10.331v116.439c0 2.206-1.794 4-4 4h-107.833c-4.143 0-7.5 3.358-7.5 7.5s3.357 7.5 7.5 7.5h107.833c10.477 0 19-8.523 19-19v-116.474c10.15-.373 18.299-8.725 18.299-18.965v-39.227c0-10.477-8.523-19-19-19h-37.368v-20.601c0-11.63-9.462-21.092-21.093-21.092h-7.414c-3.156-9.572-12.178-16.503-22.793-16.503h-62.621c-10.616 0-19.638 6.931-22.794 16.503h-7.414c-11.63 0-21.092 9.462-21.092 21.092v20.601h-37.368c-10.478 0-19.001 8.523-19.001 19v39.227c0 10.24 8.149 18.592 18.3 18.965v109.892c-5.771.951-11.595 2.11-17.154 4.241-28.479 10.913-111.774 21.925-111.774 21.925-3.674.548-6.393 3.703-6.393 7.417v167.94c-.12 4.603 4.527 8.384 8.999 7.349l19.241-3.926-9.892 20.795c-1.803 3.605-.122 8.336 3.552 9.995l25.319 12.04c3.608 1.803 8.335.12 9.994-3.552l23.038-48.451 23.047 48.452c1.784 3.778 6.338 5.315 9.993 3.551l25.319-12.04c3.673-1.659 5.354-6.39 3.553-9.995l-19.092-40.142 18.318-3.737c4.059-.828 6.678-4.789 5.85-8.848-.828-4.06-4.789-6.676-8.848-5.85l-39.091 7.975v-148.751l23.636-7.926c21.362-7.164 44.202-6.503 64.305 1.859.703.293 83.013 36.841 83.013 36.841 8.79 3.904 18.118 6.087 27.725 6.489 20.372.852 41.195 1.724 44.256 1.855 9.237 1.507 12.281 8.661 12.07 14.388-.113 5.896-4.358 13.051-14.156 13.491l-50.416 6.592-81.582.89c-4.142.045-7.463 3.439-7.418 7.582.045 4.114 3.395 7.418 7.498 7.418h.084l80.858-.882 74.39 22.916c1.537.474 3.188.441 4.704-.095l106.413-37.558.291-.104c8.419-2.972 17.833 1.401 20.989 9.739 3.21 8.054-1.178 17.661-9.291 20.625-24.927 9.423-73.074 28.174-109.076 42.245-25.347 9.907-51.97 15.845-79.13 17.651l-51.521 3.425c-12.373.26-24.578-1.594-36.301-5.514l-31.432-11.203c-3.899-1.391-8.191.645-9.582 4.546s.645 8.192 4.547 9.583l31.499 11.227c.044.016.089.032.134.047 13.443 4.505 27.449 6.626 41.634 6.307.109-.002.219-.007.327-.015l51.69-3.436c28.692-1.908 56.818-8.182 83.596-18.647 35.966-14.057 84.058-32.786 108.924-42.186 15.71-5.729 24.2-24.368 18.016-39.95zm-285.304-334.868h62.621c4.962 0 8.998 4.037 8.998 8.999s-4.036 8.999-8.998 8.999h-62.621c-4.962 0-8.999-4.037-8.999-8.999s4.037-8.999 8.999-8.999zm-36.3 22.595c0-3.359 2.732-6.092 6.092-6.092h7.417c3.158 9.568 12.178 16.495 22.791 16.495h62.621c10.612 0 19.631-6.927 22.79-16.495h7.417c3.359 0 6.093 2.733 6.093 6.092v20.601h-135.221zm-173.39 247.731 40.64-6.07v150.071l-40.64 8.291zm31.887 190.963-11.771-5.598 11.52-24.218 15.979-3.26zm78.509-5.598-11.773 5.599-18.855-39.637 13.161-2.685zm-54.756-44.424v-149.251l13.66-2.04v148.503zm341.955-138.77c7.467-2.998 16.645.644 20.033 7.912l-63.767 24.116c-.813-4.665-2.747-9.307-5.902-13.252zm-46.985 80.619-40.227-12.392 16.502-2.158c13.053-1.008 21.258-8.505 25.015-17.263l88.011-33.285c8.264-3.122 17.523 1.057 20.648 9.325 2.772 7.017-.164 15.468-6.613 19.299z"/><path d="m241.767 247.787h28.471c4.143 0 7.5-3.358 7.5-7.5v-12.2h12.2c4.143 0 7.5-3.358 7.5-7.5v-28.471c0-4.142-3.357-7.5-7.5-7.5h-12.2v-12.201c0-4.142-3.357-7.5-7.5-7.5h-28.471c-4.143 0-7.5 3.358-7.5 7.5v12.201h-12.2c-4.143 0-7.5 3.358-7.5 7.5v28.471c0 4.142 3.357 7.5 7.5 7.5h12.2v12.2c0 4.142 3.357 7.5 7.5 7.5zm-12.2-34.701v-13.471h12.2c4.143 0 7.5-3.358 7.5-7.5v-12.201h13.471v12.201c0 4.142 3.357 7.5 7.5 7.5h12.2v13.471h-12.2c-4.143 0-7.5 3.358-7.5 7.5v12.2h-13.471v-12.2c0-4.142-3.357-7.5-7.5-7.5z"/><path d="m427.819 160.143h6.333v6.333c0 4.142 3.357 7.5 7.5 7.5s7.5-3.358 7.5-7.5v-6.333h6.334c4.143 0 7.5-3.358 7.5-7.5s-3.357-7.5-7.5-7.5h-6.334v-6.333c0-4.142-3.357-7.5-7.5-7.5s-7.5 3.358-7.5 7.5v6.333h-6.333c-4.143 0-7.5 3.358-7.5 7.5s3.357 7.5 7.5 7.5z"/><path d="m415.231 239.435c4.104 0 7.431-3.327 7.431-7.431s-3.327-7.431-7.431-7.431-7.432 3.327-7.432 7.431 3.327 7.431 7.432 7.431z"/></g></g></svg>