<?xml version="1.0" encoding="UTF-8" standalone="no"?>
<svg
   height="512"
   viewBox="0 0 64 64"
   width="512"
   version="1.1"
   id="svg3278"
   sodipodi:docname="add_medicine.svg"
   inkscape:version="1.1 (c68e22c387, 2021-05-23)"
   xmlns:inkscape="http://www.inkscape.org/namespaces/inkscape"
   xmlns:sodipodi="http://sodipodi.sourceforge.net/DTD/sodipodi-0.dtd"
   xmlns="http://www.w3.org/2000/svg"
   xmlns:svg="http://www.w3.org/2000/svg">
  <defs
     id="defs3282" />
  <sodipodi:namedview
     id="namedview3280"
     pagecolor="#ffffff"
     bordercolor="#666666"
     borderopacity="1.0"
     inkscape:pageshadow="2"
     inkscape:pageopacity="0.0"
     inkscape:pagecheckerboard="0"
     showgrid="false"
     inkscape:zoom="1.4643003"
     inkscape:cx="248.92435"
     inkscape:cy="202.48579"
     inkscape:window-width="1366"
     inkscape:window-height="705"
     inkscape:window-x="-8"
     inkscape:window-y="-8"
     inkscape:window-maximized="1"
     inkscape:current-layer="svg3278" />
  <g
     id="Medicine">
    <path
       d="m39 19v37a4 4 0 0 1 -4 4h-28a4 4 0 0 1 -4-4v-37a3.995 3.995 0 0 1 4-4h6v-4h16v4h6a3.995 3.995 0 0 1 4 4z"
       fill="#00d7df"
       id="path3219" />
    <path
       d="m39 19v37a4 4 0 0 1 -4 4h-4a4 4 0 0 0 4-4v-37a3.995 3.995 0 0 0 -4-4h4a3.995 3.995 0 0 1 4 4z"
       fill="#009698"
       id="path3221" />
    <path
       d="m43 3h18v16h-18z"
       fill="#00d7df"
       id="path3223"
       style="fill:#7bacdf;fill-opacity:1" />
    <path
       d="m56 34a5 5 0 1 1 -5 5 .57.57 0 0 1 .01-.13 4.986 4.986 0 0 1 4.99-4.87z"
       fill="#c6c5ca"
       id="path3225" />
    <path
       d="m56 31v3a4.986 4.986 0 0 0 -4.99 4.87 3.992 3.992 0 0 1 -3.01-3.87v-4z"
       fill="#ffd422"
       id="path3227" />
    <path
       d="m56 27v4h-8v-4a4 4 0 1 1 8 0z"
       fill="#57a4ff"
       id="path3229"
       style="fill:#7bacdf;fill-opacity:1" />
    <circle
       cx="39"
       cy="51"
       fill="#ff3051"
       r="10"
       id="circle3231"
       style="fill:#ff826e;fill-opacity:1" />
    <path
       d="m49 51a10 10 0 0 1 -18.78 4.78 9.9 9.9 0 0 0 4.78 1.22 10 10 0 0 0 10-10 9.9 9.9 0 0 0 -1.22-4.78 9.984 9.984 0 0 1 5.22 8.78z"
       fill="#b02109"
       id="path3233"
       style="fill:#fa5f57;fill-opacity:1" />
    <circle
       cx="39"
       cy="51"
       fill="#cd2a00"
       r="4"
       id="circle3235"
       style="fill:#ff826e;fill-opacity:1" />
    <path
       d="m39 39v2a10 10 0 0 0 -10 10 9.881 9.881 0 0 0 .84 4h-26.84v-16z"
       fill="#c0ab91"
       id="path3237" />
    <circle
       cx="21"
       cy="26"
       fill="#ebe5dd"
       r="9"
       id="circle3239" />
    <path
       d="m26 24v4h-3v3h-4v-3h-3v-4h3v-3h4v3z"
       fill="#57a4ff"
       id="path3241"
       style="fill:#7bacdf;fill-opacity:1" />
    <rect
       fill="#ebe5dd"
       height="8"
       rx="2"
       width="22"
       x="10"
       y="3"
       id="rect3243" />
    <path
       d="m32 5v4a2.006 2.006 0 0 1 -2 2h-4a2.006 2.006 0 0 0 2-2v-4a2.006 2.006 0 0 0 -2-2h4a2.006 2.006 0 0 1 2 2z"
       fill="#c0ab91"
       id="path3245" />
    <path
       d="m18 29v2a1 1 0 0 0 1 1h4a1 1 0 0 0 1-1v-2h2a1 1 0 0 0 1-1v-4a1 1 0 0 0 -1-1h-2v-2a1 1 0 0 0 -1-1h-4a1 1 0 0 0 -1 1v2h-2a1 1 0 0 0 -1 1v4a1 1 0 0 0 1 1zm-1-4h2a1 1 0 0 0 1-1v-2h2v2a1 1 0 0 0 1 1h2v2h-2a1 1 0 0 0 -1 1v2h-2v-2a1 1 0 0 0 -1-1h-2z"
       id="path3247"
       style="fill:#4d4d4d;fill-opacity:1" />
    <path
       d="m6 42h23v2h-23z"
       id="path3249"
       style="fill:#4d4d4d;fill-opacity:1" />
    <path
       d="m6 46h20v2h-20z"
       id="path3251"
       style="fill:#4d4d4d;fill-opacity:1" />
    <path
       d="m6 50h19v2h-19z"
       id="path3253"
       style="fill:#4d4d4d;fill-opacity:1" />
    <path
       d="m43.167 48.247 1.49-1.49-1.414-1.414-1.49 1.49a4.961 4.961 0 0 0 -1.753-.733v-2.1h-2v2.1a4.961 4.961 0 0 0 -1.753.732l-1.49-1.49-1.414 1.414 1.49 1.49a4.969 4.969 0 0 0 -.733 1.754h-2.1v2h2.1a4.969 4.969 0 0 0 .732 1.753l-1.49 1.49 1.414 1.414 1.49-1.49a4.961 4.961 0 0 0 1.754.733v2.1h2v-2.1a4.961 4.961 0 0 0 1.753-.732l1.49 1.49 1.414-1.414-1.49-1.49a4.969 4.969 0 0 0 .733-1.754h2.1v-2h-2.1a4.969 4.969 0 0 0 -.733-1.753zm-4.167 5.753a3 3 0 1 1 3-3 3 3 0 0 1 -3 3z"
       id="path3255"
       style="stroke:none;stroke-opacity:1;fill:#4d4d4d;fill-opacity:1" />
    <path
       d="m38 50h2v2h-2z"
       id="path3257"
       style="fill:#4d4d4d;fill-opacity:1" />
    <path
       d="m40 40.051v-21.051a4.995 4.995 0 0 0 -5-5h-5v-2a3 3 0 0 0 3-3v-4a3 3 0 0 0 -3-3h-18a3 3 0 0 0 -3 3v4a3 3 0 0 0 3 3v2h-5a5.006 5.006 0 0 0 -5 5v38a5.006 5.006 0 0 0 5 5h32a11 11 0 0 0 1-21.949zm-11.574 13.949h-24.426v-14h34v.051a10.965 10.965 0 0 0 -9.574 13.949zm-12.426-44v-6h2v6zm4-6h2v6h-2zm4 0h2v6h-2zm7 1v4a1 1 0 0 1 -1 1h-2v-6h2a1 1 0 0 1 1 1zm-20 4v-4a1 1 0 0 1 1-1h2v6h-2a1 1 0 0 1 -1-1zm-4 7h6a1 1 0 0 0 1-1v-3h14v3a1 1 0 0 0 1 1h6a2.994 2.994 0 0 1 3 3v19h-34v-19a3 3 0 0 1 3-3zm0 44a3 3 0 0 1 -3-3v-1h25.214a11.063 11.063 0 0 0 3.486 4zm32 0a9 9 0 1 1 9-9 9.01 9.01 0 0 1 -9 9z"
       id="path3259"
       style="fill:#4d4d4d;fill-opacity:1" />
    <path
       d="m21 36a10 10 0 1 0 -10-10 10.011 10.011 0 0 0 10 10zm0-18a8 8 0 1 1 -8 8 8.009 8.009 0 0 1 8-8z"
       id="path3261"
       style="fill:#4d4d4d;fill-opacity:1" />
    <path
       d="m57 33.09v-6.09a5 5 0 0 0 -10 0v8a4.985 4.985 0 0 0 3.03 4.585 6 6 0 1 0 6.97-6.495zm-5-9.09a2.994 2.994 0 0 1 3 3v3h-6v-3a3 3 0 0 1 3-3zm-1.778 13.4a2.984 2.984 0 0 1 -1.222-2.4v-3h6v1.09a6.01 6.01 0 0 0 -4.778 4.31zm5.778 5.6a4 4 0 1 1 4-4 4 4 0 0 1 -4 4z"
       id="path3263"
       style="fill:#4d4d4d;fill-opacity:1" />
    <path
       d="m53 38h6v2h-6z"
       id="path3265"
       style="fill:#4d4d4d;fill-opacity:1" />
    <path
       d="m61 2h-18a1 1 0 0 0 -1 1v16a1 1 0 0 0 1 1h18a1 1 0 0 0 1-1v-16a1 1 0 0 0 -1-1zm-1 16h-16v-14h16z"
       id="path3267"
       style="fill:#4d4d4d;fill-opacity:1" />
    <path
       d="m46 6h2v2h-2z"
       id="path3269"
       style="fill:#4d4d4d;fill-opacity:1" />
    <path
       d="m50 6h8v2h-8z"
       id="path3271"
       style="fill:#4d4d4d;fill-opacity:1" />
    <path
       d="m46 14h12v2h-12z"
       id="path3273"
       style="fill:#4d4d4d;fill-opacity:1" />
    <path
       d="m46 10h12v2h-12z"
       id="path3275"
       style="fill:#4d4d4d;fill-opacity:1" />
  </g>
  <path
     style="fill:#7bacdf;stroke:#ff5b62;stroke-width:0;stroke-miterlimit:0;fill-opacity:1"
     d="m 32.492308,226.32962 c 0,-57.9108 0.301785,-78.44564 1.197407,-81.47692 1.597941,-5.40834 9.75465,-13.56504 15.162982,-15.16299 2.753955,-0.81368 12.78647,-1.1974 31.306293,-1.1974 h 27.2536 l 2.41678,-2.41679 c 2.33654,-2.33654 2.41678,-2.87593 2.41678,-16.24615 V 96 h 55.63077 55.63077 v 12.75367 c 0,12.93375 0.83632,16.96696 3.82568,18.44946 0.87433,0.4336 10.89432,1.01182 22.26663,1.28493 l 20.67692,0.49656 3.19083,4.77445 c 6.33757,9.48298 6.16302,6.86628 6.16302,92.38887 v 77.60591 H 156.06154 32.492308 Z m 152.935062,60.2124 c 30.58348,-6.48012 54.96359,-31.37917 61.28829,-62.59285 2.25266,-11.11735 1.53239,-29.11371 -1.55455,-38.84148 -10.4989,-33.08473 -37.79018,-54.80297 -71.95764,-57.26346 -41.29728,-2.97392 -78.038133,26.49646 -84.633087,67.88545 -6.464414,40.56974 20.052547,80.45556 60.027667,90.29136 9.28139,2.28367 27.30673,2.53865 36.82932,0.52098 z"
     id="path3378"
     transform="scale(0.125)" />
  <path
     style="fill:#21d0c3;fill-opacity:1;stroke:#ff5b62;stroke-width:0;stroke-miterlimit:0"
     d="m 367.59907,120.12308 c 0.004,-4.33231 0.17669,-5.98214 0.38468,-3.66628 0.208,2.31585 0.20507,5.86046 -0.006,7.87692 -0.21157,2.01645 -0.38175,0.12166 -0.37818,-4.21064 z"
     id="path3454"
     transform="scale(0.125)" />
  <path
     style="fill:#7bacdf;fill-opacity:1;stroke:#ff5b62;stroke-width:0;stroke-miterlimit:0"
     d="m 52.64686,479.11654 c -5.964087,-1.00454 -11.417738,-4.22586 -14.945907,-8.82812 -3.731626,-4.86765 -5.195632,-9.54594 -5.203154,-16.62688 l -0.0055,-5.16923 H 132.68885 232.8854 l 5.08846,7.69352 c 2.79866,4.23143 8.24826,10.83458 12.11024,14.67365 5.16417,5.13356 6.68012,7.20078 5.73037,7.81418 -1.5308,0.98865 -197.392379,1.41561 -203.16761,0.44288 z"
     id="path3493"
     transform="scale(0.125)" />
  <path
     style="fill:#589ad6;fill-opacity:1;stroke:#15bdb2;stroke-width:0;stroke-miterlimit:0;stroke-opacity:1"
     d="m 34.894873,28.257119 c 0,-9.25707 -0.01186,-9.747956 -0.2534,-10.477161 -0.13937,-0.420778 -0.443177,-0.986953 -0.675125,-1.258167 l -0.421725,-0.493116 1.125373,0.0555 c 0.959123,0.0473 1.217982,0.109302 1.75225,0.419685 0.383396,0.222732 0.78084,0.598161 1.02328,0.966599 l 0.396402,0.602417 0.03501,9.948175 0.03501,9.948176 h -1.508543 -1.508543 z"
     id="path3532" />
  <path
     style="fill:#fed298;fill-opacity:1;stroke:#15bdb2;stroke-width:0;stroke-miterlimit:0;stroke-opacity:1"
     d="m 398.53593,295.16202 c -4.80162,-5.013 -5.67439,-8.75995 -5.67439,-24.36116 V 256.49231 H 416 439.13846 v 3.90051 c 0,3.75202 -0.15836,3.94315 -4.15977,5.02062 -12.74076,3.43073 -24.81965,13.52019 -30.49948,25.47614 l -3.32719,7.00368 z"
     id="path7232"
     transform="scale(0.125)" />
</svg>
