<?xml version="1.0" encoding="UTF-8" standalone="no"?>
<svg
   height="512pt"
   viewBox="0 -56 512.002 512"
   width="512pt"
   version="1.1"
   id="svg964"
   sodipodi:docname="ambulance.svg"
   inkscape:version="1.1 (c68e22c387, 2021-05-23)"
   xmlns:inkscape="http://www.inkscape.org/namespaces/inkscape"
   xmlns:sodipodi="http://sodipodi.sourceforge.net/DTD/sodipodi-0.dtd"
   xmlns="http://www.w3.org/2000/svg"
   xmlns:svg="http://www.w3.org/2000/svg">
  <defs
     id="defs968" />
  <sodipodi:namedview
     id="namedview966"
     pagecolor="#ffffff"
     bordercolor="#666666"
     borderopacity="1.0"
     inkscape:pageshadow="2"
     inkscape:pageopacity="0.0"
     inkscape:pagecheckerboard="0"
     inkscape:document-units="pt"
     showgrid="false"
     inkscape:zoom="0.76171874"
     inkscape:cx="366.93334"
     inkscape:cy="285.53846"
     inkscape:window-width="1366"
     inkscape:window-height="705"
     inkscape:window-x="-8"
     inkscape:window-y="-8"
     inkscape:window-maximized="1"
     inkscape:current-layer="svg964" />
  <path
     d="m30.574219 24.6875c-12.742188 0-23.074219 10.328125-23.074219 23.074219v256.316406c0 12.742187 10.332031 23.074219 23.074219 23.074219h56.601562c4.101563-27.589844 27.886719-48.757813 56.617188-48.757813 28.734375 0 52.515625 21.167969 56.621093 48.757813h79.675782v-279.390625c0-12.746094-10.332032-23.074219-23.074219-23.074219zm0 0"
     fill="#fff"
     id="path916" />
  <path
     d="m257.015625 24.6875h-43.589844c12.746094 0 23.074219 10.328125 23.074219 23.074219v279.386719h43.589844v-279.386719c0-12.746094-10.332032-23.074219-23.074219-23.074219zm0 0"
     fill="#e8e8e8"
     id="path918"
     style="fill:#eef3f7;fill-opacity:1" />
  <path
     d="m496.160156 168.769531c5.371094 6.003907 8.339844 13.777344 8.339844 21.835938v113.46875c0 12.746093-10.332031 23.074219-23.074219 23.074219h-41.160156c-4.101563-27.589844-27.886719-48.753907-56.617187-48.753907-28.734376 0-52.515626 21.164063-56.621094 48.753907h-46.9375v-244.644532h124.261718c9.320313 0 18.199219 3.96875 24.414063 10.917969zm0 0"
     fill="#fff"
     id="path920" />
  <path
     d="m496.160156 168.769531-32.734375-36.601562-21.167969-23.664063-13.492187-15.082031c-6.214844-6.949219-15.089844-10.917969-24.410156-10.917969h-37.984375c9.320312 0 18.199218 3.96875 24.414062 10.917969l13.492188 15.082031 21.167968 23.664063 32.734376 36.601562c5.371093 6.003907 8.339843 13.777344 8.339843 21.835938v113.46875c0 12.746093-10.332031 23.074219-23.074219 23.074219h37.980469c12.746094 0 23.074219-10.328126 23.074219-23.074219v-113.46875c0-8.058594-2.96875-15.832031-8.339844-21.835938zm0 0"
     fill="#e8e8e8"
     id="path922"
     style="fill:#eef3f7;fill-opacity:1" />
  <path
     d="m423.601562 204.824219h-91.628906v-85.480469h52.007813l39.621093 46.058594zm0 0"
     fill="#5b9ed6"
     id="path924"
     style="fill:#7bacdf;fill-opacity:1" />
  <path
     d="m316.332031 60.835938h75.960938v21.667968h-75.960938zm0 0"
     fill="#8a8a8a"
     id="path926" />
  <path
     d="m383.648438 60.835938h-58.667969v-24c0-16.199219 13.132812-29.332032 29.332031-29.332032s29.332031 13.132813 29.332031 29.332032v24zm0 0"
     fill="#ef2d57"
     id="path928"
     style="fill:#ff826e;fill-opacity:1" />
  <path
     d="m354.3125 7.503906c-3.953125 0-7.726562.785156-11.167969 2.207032 10.65625 4.394531 18.160157 14.878906 18.160157 27.125v24h22.34375v-24c0-16.199219-13.132813-29.332032-29.335938-29.332032zm0 0"
     fill="#c72549"
     id="path930"
     style="fill:#fa5f57;fill-opacity:1" />
  <path
     d="m201.046875 335.644531c0 31.617188-25.632813 57.25-57.25 57.25-31.621094 0-57.25-25.632812-57.25-57.25 0-31.617187 25.628906-57.25 57.25-57.25 31.617187 0 57.25 25.632813 57.25 57.25zm0 0"
     fill="#8a8a8a"
     id="path932" />
  <path
     d="m176.296875 287.421875c5.707031 8.898437 9.027344 19.476563 9.027344 30.835937 0 31.617188-25.632813 57.25-57.25 57.25-11.359375 0-21.933594-3.320312-30.835938-9.027343 10.175781 15.878906 27.960938 26.414062 48.222657 26.414062 31.617187 0 57.25-25.632812 57.25-57.25 0-20.261719-10.535157-38.050781-26.414063-48.222656zm0 0"
     fill="#737373"
     id="path934" />
  <path
     d="m168.128906 335.644531c0 13.4375-10.894531 24.332031-24.332031 24.332031-13.441406 0-24.335937-10.894531-24.335937-24.332031 0-13.441406 10.894531-24.335937 24.335937-24.335937 13.4375 0 24.332031 10.894531 24.332031 24.335937zm0 0"
     fill="#cfcfcf"
     id="path936" />
  <path
     d="m440.898438 335.644531c0 31.617188-25.632813 57.25-57.25 57.25-31.621094 0-57.25-25.632812-57.25-57.25 0-31.617187 25.628906-57.25 57.25-57.25 31.617187 0 57.25 25.632813 57.25 57.25zm0 0"
     fill="#8a8a8a"
     id="path938" />
  <path
     d="m414.484375 287.421875c5.703125 8.898437 9.027344 19.476563 9.027344 30.835937 0 31.617188-25.632813 57.25-57.25 57.25-11.359375 0-21.9375-3.320312-30.835938-9.027343 10.175781 15.878906 27.960938 26.414062 48.222657 26.414062 31.617187 0 57.25-25.632812 57.25-57.25 0-20.261719-10.535157-38.050781-26.414063-48.222656zm0 0"
     fill="#737373"
     id="path940" />
  <path
     d="m407.980469 335.644531c0 13.4375-10.894531 24.332031-24.332031 24.332031-13.441407 0-24.335938-10.894531-24.335938-24.332031 0-13.441406 10.894531-24.335937 24.335938-24.335937 13.4375 0 24.332031 10.894531 24.332031 24.335937zm0 0"
     fill="#cfcfcf"
     id="path942" />
  <path
     d="m194.796875 118.371094h-30.335937v-30.335938c0-6.441406-5.222657-11.664062-11.664063-11.664062h-18c-6.445313 0-11.667969 5.222656-11.667969 11.664062v30.335938h-30.332031c-6.445313 0-11.667969 5.222656-11.667969 11.664062v18c0 6.445313 5.222656 11.667969 11.667969 11.667969h30.332031v30.332031c0 6.445313 5.222656 11.667969 11.667969 11.667969h18c6.441406 0 11.664063-5.222656 11.664063-11.667969v-30.332031h30.335937c6.441406 0 11.664063-5.222656 11.664063-11.667969v-18c0-6.441406-5.222657-11.664062-11.664063-11.664062zm0 0"
     fill="#ef2d57"
     id="path944"
     style="fill:#ff826e;fill-opacity:1" />
  <path
     d="m383.648438 278.394531c28.730468 0 52.511718 21.167969 56.617187 48.757813h41.160156c12.742188 0 23.074219-10.332032 23.074219-23.074219v-49.574219h-224.410156v72.648438h46.9375c4.105468-27.589844 27.886718-48.757813 56.621094-48.757813zm0 0"
     fill="#ef2d57"
     id="path946"
     style="fill:#ff826e;fill-opacity:1" />
  <path
     d="m466.519531 254.503906v49.570313c0 12.746093-10.332031 23.074219-23.074219 23.074219h37.980469c12.746094 0 23.074219-10.328126 23.074219-23.074219v-49.570313zm0 0"
     fill="#c72549"
     id="path948"
     style="fill:#fa5f57;fill-opacity:1" />
  <path
     d="m30.574219 327.152344h56.601562c4.101563-27.589844 27.886719-48.757813 56.617188-48.757813 28.734375 0 52.515625 21.167969 56.621093 48.757813h79.675782v-72.648438h-272.589844v49.574219c0 12.742187 10.332031 23.074219 23.074219 23.074219zm0 0"
     fill="#ef2d57"
     id="path950"
     style="fill:#ff826e;fill-opacity:1" />
  <path
     d="m236.5 254.503906h43.589844v72.644532h-43.589844zm0 0"
     fill="#c72549"
     id="path952"
     style="fill:#fa5f57;fill-opacity:1" />
  <path
     d="m383.980469 111.84375h-52.007813c-4.144531 0-7.5 3.355469-7.5 7.5v85.484375c0 4.140625 3.355469 7.5 7.5 7.5h91.628906c4.144532 0 7.5-3.359375 7.5-7.5v-39.421875c0-4.941406-.667968-2.59375-41.4375-50.957031-1.425781-1.65625-3.5-2.605469-5.683593-2.605469zm32.121093 85.480469h-76.628906v-70.484375h41.0625l35.566406 41.347656zm0 0"
     id="path954"
     style="fill:#4d4d4d;fill-opacity:1" />
  <path
     d="m143.792969 303.808594c-17.554688 0-31.832031 14.28125-31.832031 31.835937 0 17.550781 14.28125 31.832031 31.832031 31.832031 17.554687 0 31.835937-14.28125 31.835937-31.832031 0-17.554687-14.28125-31.835937-31.835937-31.835937zm0 48.671875c-9.28125 0-16.832031-7.554688-16.832031-16.835938 0-9.285156 7.550781-16.835937 16.832031-16.835937s16.835937 7.554687 16.835937 16.835937-7.550781 16.835938-16.835937 16.835938zm0 0"
     id="path956"
     style="fill:#4d4d4d;fill-opacity:1" />
  <path
     d="m383.648438 303.808594c-17.554688 0-31.835938 14.28125-31.835938 31.835937 0 17.550781 14.28125 31.832031 31.835938 31.832031 17.550781 0 31.832031-14.28125 31.832031-31.832031 0-17.554687-14.28125-31.835937-31.832031-31.835937zm0 48.671875c-9.285157 0-16.835938-7.554688-16.835938-16.835938 0-9.285156 7.550781-16.835937 16.835938-16.835937 9.28125 0 16.832031 7.554687 16.832031 16.835937s-7.550781 16.835938-16.832031 16.835938zm0 0"
     id="path958"
     style="fill:#4d4d4d;fill-opacity:1" />
  <path
     d="m92.792969 167.203125h22.835937v22.832031c0 10.570313 8.597656 19.167969 19.164063 19.167969h18c10.570312 0 19.167969-8.597656 19.167969-19.167969v-22.832031h22.832031c10.570312 0 19.167969-8.597656 19.167969-19.167969v-18c0-10.566406-8.597657-19.164062-19.167969-19.164062h-22.832031v-22.835938c0-10.566406-8.597657-19.164062-19.167969-19.164062h-18c-10.566407 0-19.164063 8.597656-19.164063 19.164062v22.835938h-22.835937c-10.566407 0-19.164063 8.597656-19.164063 19.164062v18c0 10.570313 8.597656 19.167969 19.164063 19.167969zm-4.164063-37.167969c0-2.296875 1.867188-4.164062 4.167969-4.164062h30.332031c4.140625 0 7.5-3.359375 7.5-7.5v-30.335938c0-2.296875 1.867188-4.164062 4.167969-4.164062h18c2.296875 0 4.164063 1.867187 4.164063 4.164062v30.335938c0 4.140625 3.359374 7.5 7.5 7.5h30.335937c2.296875 0 4.164063 1.867187 4.164063 4.164062v18c0 2.300782-1.867188 4.167969-4.164063 4.167969h-30.335937c-4.140626 0-7.5 3.359375-7.5 7.5v30.332031c0 2.300782-1.867188 4.167969-4.164063 4.167969h-18c-2.300781 0-4.167969-1.867187-4.167969-4.167969v-30.332031c0-4.140625-3.359375-7.5-7.5-7.5h-30.335937c-2.296875 0-4.164063-1.867187-4.164063-4.167969zm0 0"
     id="path960"
     style="fill:#4d4d4d;fill-opacity:1" />
  <path
     d="m512 190.605469c0-9.914063-3.640625-19.445313-10.25-26.835938l-27.589844-30.847656c-2.761718-3.085937-7.503906-3.351563-10.589844-.589844-3.089843 2.761719-3.351562 7.503907-.589843 10.589844l27.589843 30.847656c4.144532 4.636719 6.429688 10.613281 6.429688 16.832031v56.398438h-209.410156v-157h116.761718c7.179688 0 14.039063 3.070312 18.824219 8.417969l13.488281 15.082031c2.761719 3.085938 7.503907 3.351562 10.589844.589844 3.089844-2.761719 3.351563-7.5.589844-10.589844l-13.488281-15.082031c-14.175781-15.847657-32.960938-13.128907-34.558594-13.417969v-14.164062c0-4.144532-3.359375-7.5-7.5-7.5h-1.148437v-16.5c0-20.3125-16.523438-36.835938-36.835938-36.835938-20.308594 0-36.832031 16.523438-36.832031 36.835938v16.5h-1.144531c-4.144532 0-7.5 3.355468-7.5 7.5v14.164062h-21.246094v-27.242188c0-16.859374-13.714844-30.574218-30.574219-30.574218h-154.015625c-4.140625 0-7.5 3.359375-7.5 7.5 0 4.144531 3.359375 7.5 7.5 7.5h154.015625c8.585937 0 15.574219 6.988281 15.574219 15.574218v199.242188h-257.589844v-199.238281c0-8.589844 6.984375-15.574219 15.574219-15.574219h35.089843c4.144532 0 7.5-3.359375 7.5-7.5s-3.355468-7.5-7.5-7.5h-35.089843c-16.859375 0-30.574219 13.714844-30.574219 30.574219v256.316406c0 16.859375 13.714844 30.574219 30.574219 30.574219h48.570312c-.574219 37.070312 29.40625 65.742187 64.652344 65.742187 35.242187 0 65.222656-28.671875 64.648437-65.742187h110.554688c-.574219 37.070312 29.40625 65.742187 64.648438 65.742187 35.074218 0 65.214843-28.484375 64.652343-65.742187h33.128907c16.855468 0 30.574218-13.714844 30.574218-30.574219v-113.472656zm-179.519531-153.769531c0-12.039063 9.792969-21.832032 21.832031-21.832032s21.835938 9.792969 21.835938 21.832032v16.5h-43.667969zm-8.648438 31.5h60.964844v6.667968h-60.964844zm-180.039062 317.058593c-27.429688 0-49.75-22.320312-49.75-49.75 0-26.675781 22.621093-49.75 49.75-49.75 27.238281 0 49.75 23.160157 49.75 49.75 0 27.429688-22.316407 49.75-49.75 49.75zm-61.851563-67.859375c-.21875.738282-.707031 1.367188-.898437 2.117188h-50.46875c-8.589844 0-15.574219-6.988282-15.574219-15.574219v-42.074219h257.589844v57.648438h-66.042969c-.191406-.75-.683594-1.378906-.902344-2.121094-18.492187-62.914062-105.792969-60.929688-123.703125.003906zm301.707032 67.859375c-27.433594 0-49.75-22.320312-49.75-49.75 0-26.90625 22.796874-49.75 49.75-49.75 27.59375 0 49.75 23.382813 49.75 49.75 0 27.429688-22.320313 49.75-49.75 49.75zm113.351562-81.320312c0 8.589843-6.984375 15.574219-15.574219 15.574219h-35.027343c-.191407-.75-.679688-1.378907-.898438-2.121094-8.441406-28.703125-34.765625-46.632813-61.851562-46.632813-26.75 0-53.226563 17.296875-61.851563 46.632813-.21875.742187-.707031 1.371094-.898437 2.121094h-33.308594v-57.648438h209.410156zm0 0"
     id="path962"
     style="fill:#4d4d4d;fill-opacity:1" />
</svg>
