<?xml version="1.0" encoding="UTF-8" standalone="no"?>
<svg
   id="icons"
   enable-background="new 0 0 64 64"
   height="512"
   viewBox="0 0 64 64"
   width="512"
   version="1.1"
   sodipodi:docname="doctor (1).svg"
   inkscape:version="1.1 (c68e22c387, 2021-05-23)"
   xmlns:inkscape="http://www.inkscape.org/namespaces/inkscape"
   xmlns:sodipodi="http://sodipodi.sourceforge.net/DTD/sodipodi-0.dtd"
   xmlns="http://www.w3.org/2000/svg"
   xmlns:svg="http://www.w3.org/2000/svg">
  <defs
     id="defs2943" />
  <sodipodi:namedview
     id="namedview2941"
     pagecolor="#ffffff"
     bordercolor="#666666"
     borderopacity="1.0"
     inkscape:pageshadow="2"
     inkscape:pageopacity="0.0"
     inkscape:pagecheckerboard="0"
     showgrid="false"
     inkscape:zoom="0.5"
     inkscape:cx="-73"
     inkscape:cy="259"
     inkscape:window-width="1366"
     inkscape:window-height="705"
     inkscape:window-x="-8"
     inkscape:window-y="-8"
     inkscape:window-maximized="1"
     inkscape:current-layer="icons" />
  <path
     d="m 8.029,8.029 c 9.37,-9.37 24.569,-9.37 33.939,0 8.891,8.89 9.351,23.04 1.351,32.46 -0.42,0.51 -0.87,1 -1.351,1.479 -0.479,0.48 -0.97,0.931 -1.479,1.351 -9.42,8 -23.57,7.54 -32.46,-1.351 -9.37,-9.369 -9.37,-24.569 0,-33.939 z"
     fill="#e6e9ed"
     id="path2858"
     style="fill:#ebe5dd;fill-opacity:1" />
  <path
     d="m 12.999,42.239 c 3.02,2.109 6.48,3.33 10,3.66 1.33,0.13 2.67,0.13 4,0 3.52,-0.33 6.98,-1.551 10,-3.66 v -0.01 c 1,-0.69 1.96,-1.49 2.85,-2.381 8.2,-8.199 8.2,-21.5 0,-29.699 -8.199,-8.2 -21.5,-8.2 -29.699,0 -8.2,8.199 -8.2,21.5 0,29.699 0.89,0.891 1.85,1.69 2.85,2.381 v 0.01 z"
     fill="#5d9cec"
     id="path2860"
     style="fill:#69d6f4;fill-opacity:1" />
  <path
     d="m 33.999,21.289 h -17.99 v -8.04 c 0,-1.1 0.9,-2 2,-2 h 14.01 c 1.101,0 2,0.9 2,2 v 8.04 z"
     fill="#f5f7fa"
     id="path2862" />
  <path
     d="m 32.019,11.499 h -3.003 c 1.101,0 2,0.9 2,2 v 8.04 h 2.983 0.02 v -8.04 c 0,-1.1 -0.9,-2 -2,-2 z"
     fill="#e6e9ed"
     id="path2864" />
  <path
     d="m 22.999,45.899 -2,-8.9 2,1 2,-1 2,1 2,-1 -2,8.9 c -1.33,0.13 -2.67,0.13 -4,0 z"
     fill="#5d9cec"
     id="path2866"
     style="fill:#69d6f4;fill-opacity:1" />
  <path
     d="m 36.999,42.229 v 0.01 c -3.02,2.109 -6.48,3.33 -10,3.66 l 2,-8.9 h 3 c 2.77,0 5,2.24 5,5 z"
     fill="#f5f7fa"
     id="path2868" />
  <path
     d="m 31.999,36.249 h -3 c 2.769,0.002 4.997,2.241 4.997,5 v 1.971 c 1.036,-0.49 2.044,-1.061 3.003,-1.73 v -0.01 -0.23 c 0,-2.761 -2.23,-5.001 -5,-5.001 z"
     fill="#e6e9ed"
     id="path2870" />
  <path
     d="m 24.999,33.999 c 1.43,0 2.8,-0.34 4,-0.94 v 3.94 l -2,1 -2,-1 -2,1 -2,-1 v -3.94 c 1.2,0.6 2.57,0.94 4,0.94 z"
     fill="#87bcf4"
     id="path2872"
     style="fill:#69d6f4;fill-opacity:1" />
  <path
     d="m 20.999,36.249 2,8.9 c -3.52,-0.33 -6.98,-1.551 -10,-3.66 v -0.01 -0.23 c 0,-2.76 2.24,-5 5,-5 z"
     fill="#f5f7fa"
     id="path2874" />
  <path
     d="m44.589 50.249 1.42-1.42 2.82-2.82 1.42-1.42 11.58 11.58c1.56 1.561 1.56 4.1 0 5.66-1.561 1.56-4.1 1.56-5.66 0z"
     fill="#656d78"
     id="path2876"
     style="fill:#c0ab91;fill-opacity:1" />
  <path
     d="m 41.969,41.969 c 0.48,-0.479 0.931,-0.97 1.351,-1.479 l 5.51,5.52 -2.82,2.82 -5.51,-5.5 -0.01,-0.01 c 0.509,-0.421 0.999,-0.871 1.479,-1.351 z"
     fill="#ccd1d9"
     id="path2878" />
  <path
     d="m 16.009,21.289 h 17.99 v 2.96 c 0,3.53 -2.04,6.59 -5,8.06 -1.2,0.601 -2.57,0.94 -4,0.94 -1.43,0 -2.8,-0.34 -4,-0.94 -2.95,-1.46 -4.98,-4.5 -5,-8.01 v -0.05 -2.96 z"
     fill="#eac6bb"
     id="path2880" />
  <path
     d="m 30.996,22.039 v 2.96 c 0,3.53 -2.04,6.59 -5,8.06 -0.771,0.386 -1.616,0.649 -2.498,0.8 0.49,0.083 0.989,0.141 1.501,0.141 1.43,0 2.8,-0.34 4,-0.94 2.96,-1.47 5,-4.529 5,-8.06 v -2.96 h -3.003 z"
     fill="#d3b1a9"
     id="path2882" />
  <path
     d="m 13,41.25 c -0.553,0 -1,-0.447 -1,-1 0,-3.309 2.691,-6 6,-6 0.553,0 1,0.447 1,1 0,0.553 -0.447,1 -1,1 -2.206,0 -4,1.794 -4,4 0,0.553 -0.447,1 -1,1 z"
     id="path2884"
     style="fill:#4d4d4d;fill-opacity:1" />
  <path
     d="m 21,37.25 h -3 c -0.553,0 -1,-0.447 -1,-1 0,-0.553 0.447,-1 1,-1 h 3 c 0.553,0 1,0.447 1,1 0,0.553 -0.447,1 -1,1 z"
     id="path2886"
     style="fill:#4d4d4d;fill-opacity:1" />
  <path
     d="m 13,42.236 c -0.553,0 -1,-0.447 -1,-1 V 41 c 0,-0.553 0.447,-1 1,-1 0.553,0 1,0.447 1,1 v 0.236 c 0,0.553 -0.447,1 -1,1 z"
     id="path2888"
     style="fill:#4d4d4d;fill-opacity:1" />
  <path
     d="m 37,41.5 c -0.553,0 -1,-0.447 -1,-1 0,-2.206 -1.794,-4 -4,-4 -0.553,0 -1,-0.447 -1,-1 0,-0.553 0.447,-1 1,-1 3.309,0 6,2.691 6,6 0,0.553 -0.447,1 -1,1 z"
     id="path2890"
     style="fill:#4d4d4d;fill-opacity:1" />
  <path
     d="m 32,37.25 h -3 c -0.553,0 -1,-0.447 -1,-1 0,-0.553 0.447,-1 1,-1 h 3 c 0.553,0 1,0.447 1,1 0,0.553 -0.447,1 -1,1 z"
     id="path2892"
     style="fill:#4d4d4d;fill-opacity:1" />
  <path
     d="m 37,42.236 c -0.553,0 -1,-0.447 -1,-1 V 41 c 0,-0.553 0.447,-1 1,-1 0.553,0 1,0.447 1,1 v 0.236 c 0,0.553 -0.447,1 -1,1 z"
     id="path2894"
     style="fill:#4d4d4d;fill-opacity:1" />
  <path
     d="m 21,37.25 c -0.553,0 -1,-0.447 -1,-1 v -3.936 c 0,-0.553 0.447,-1 1,-1 0.553,0 1,0.447 1,1 v 3.936 c 0,0.553 -0.447,1 -1,1 z"
     id="path2896"
     style="fill:#4d4d4d;fill-opacity:1" />
  <path
     d="m 29,37.25 c -0.553,0 -1,-0.447 -1,-1 v -3.936 c 0,-0.553 0.447,-1 1,-1 0.553,0 1,0.447 1,1 v 3.936 c 0,0.553 -0.447,1 -1,1 z"
     id="path2898"
     style="fill:#4d4d4d;fill-opacity:1" />
  <path
     d="m 25,34 c -5.514,0 -10,-4.485 -10,-9.998 0,-0.553 0.447,-1 1,-1 0.553,0 1,0.447 1,1 0,4.41 3.589,7.998 8,7.998 4.411,0 8,-3.588 8,-7.998 0,-0.553 0.447,-1 1,-1 0.553,0 1,0.447 1,1 C 35,29.515 30.514,34 25,34 Z"
     id="path2900"
     style="fill:#4d4d4d;fill-opacity:1" />
  <path
     d="m 16,26.051 c -0.553,0 -1,-0.447 -1,-1 v -4.049 c 0,-0.553 0.447,-1 1,-1 0.553,0 1,0.447 1,1 v 4.049 c 0,0.553 -0.447,1 -1,1 z"
     id="path2902"
     style="fill:#4d4d4d;fill-opacity:1" />
  <path
     d="m 34,26.002 c -0.553,0 -1,-0.447 -1,-1 v -4 c 0,-0.553 0.447,-1 1,-1 0.553,0 1,0.447 1,1 v 4 c 0,0.553 -0.447,1 -1,1 z"
     id="path2904"
     style="fill:#4d4d4d;fill-opacity:1" />
  <path
     d="m 22.999,38.25 c -0.15,0 -0.303,-0.034 -0.446,-0.105 l -2,-1 c -0.494,-0.247 -0.694,-0.848 -0.447,-1.342 0.248,-0.495 0.849,-0.692 1.342,-0.447 l 2,1 c 0.494,0.247 0.694,0.848 0.447,1.342 -0.176,0.35 -0.529,0.552 -0.896,0.552 z"
     id="path2906"
     style="fill:#4d4d4d;fill-opacity:1" />
  <path
     d="m 23.001,38.25 c -0.367,0 -0.72,-0.202 -0.896,-0.553 -0.247,-0.494 -0.047,-1.095 0.447,-1.342 l 2,-1 c 0.495,-0.245 1.094,-0.048 1.342,0.447 0.247,0.494 0.047,1.095 -0.447,1.342 l -2,1 c -0.143,0.072 -0.296,0.106 -0.446,0.106 z"
     id="path2908"
     style="fill:#4d4d4d;fill-opacity:1" />
  <path
     d="m 27.001,38.25 c -0.367,0 -0.72,-0.202 -0.896,-0.553 -0.247,-0.494 -0.047,-1.095 0.447,-1.342 l 2,-1 c 0.494,-0.245 1.095,-0.048 1.342,0.447 0.247,0.494 0.047,1.095 -0.447,1.342 l -2,1 c -0.143,0.072 -0.296,0.106 -0.446,0.106 z"
     id="path2910"
     style="fill:#4d4d4d;fill-opacity:1" />
  <path
     d="m 26.999,38.25 c -0.15,0 -0.303,-0.034 -0.446,-0.105 l -2,-1 c -0.494,-0.247 -0.694,-0.848 -0.447,-1.342 0.247,-0.495 0.848,-0.692 1.342,-0.447 l 2,1 c 0.494,0.247 0.694,0.848 0.447,1.342 -0.176,0.35 -0.529,0.552 -0.896,0.552 z"
     id="path2912"
     style="fill:#4d4d4d;fill-opacity:1" />
  <path
     d="m 24.984386,46.248 c -5.613912,0 -10.890626,-2.211196 -14.86058,-6.226722 C 6.154807,36.00672 3.9692308,30.66815 3.9692308,24.987462 c 0,-5.679722 2.1855762,-11.018292 6.1545752,-15.033818 3.969954,-4.0155244 9.246668,-6.226721 14.86058,-6.226721 5.613912,0 10.890626,2.2111966 14.86058,6.226721 8.193046,8.289088 8.193046,21.77758 0,30.066668 C 35.875012,44.036804 30.598298,46.248 24.984386,46.248 Z m 0,-40.5882128 c -5.103818,0 -9.901004,2.0101786 -13.50988,5.6603928 -3.6079192,3.650214 -5.5948066,8.503636 -5.5948066,13.667282 0,5.163646 1.9868874,10.017068 5.5948066,13.667282 3.60792,3.650214 8.406062,5.660392 13.50988,5.660392 5.103816,0 9.901004,-2.010178 13.50988,-5.660392 7.448916,-7.536238 7.448916,-19.79736 0,-27.333598 C 34.88539,7.6699658 30.088202,5.6597872 24.984386,5.6597872 Z"
     id="path2914"
     style="stroke-width:0.960817;fill:#4d4d4d;fill-opacity:1" />
  <path
     d="m25 49.998c-6.678 0-12.956-2.6-17.678-7.321s-7.321-11-7.322-17.678c0-6.678 2.601-12.956 7.322-17.677 4.723-4.721 11.001-7.322 17.678-7.322 6.678 0 12.956 2.601 17.678 7.322 9.747 9.747 9.747 25.606 0 35.354-4.723 4.722-11.001 7.322-17.678 7.322zm0-47.998c-6.143 0-11.919 2.393-16.264 6.736-4.343 4.344-6.736 10.119-6.736 16.263.001 6.144 2.393 11.92 6.736 16.264s10.12 6.735 16.264 6.735c6.143 0 11.919-2.392 16.264-6.735 8.967-8.968 8.967-23.56 0-32.526-4.344-4.344-10.12-6.737-16.264-6.737z"
     id="path2916"
     style="fill:#4d4d4d;fill-opacity:1" />
  <path
     d="m 46.006,49.834 c -0.256,0 -0.512,-0.098 -0.707,-0.293 l -5.508,-5.509 c -0.391,-0.391 -0.391,-1.023 0,-1.414 0.391,-0.391 1.023,-0.391 1.414,0 l 5.508,5.509 c 0.391,0.391 0.391,1.023 0,1.414 -0.195,0.195 -0.451,0.293 -0.707,0.293 z"
     id="path2918"
     style="fill:#4d4d4d;fill-opacity:1" />
  <path
     d="m 48.834,47.006 c -0.256,0 -0.512,-0.098 -0.707,-0.293 l -5.514,-5.515 c -0.391,-0.391 -0.391,-1.023 0,-1.414 0.391,-0.391 1.023,-0.391 1.414,0 l 5.514,5.515 c 0.391,0.391 0.391,1.023 0,1.414 -0.195,0.195 -0.451,0.293 -0.707,0.293 z"
     id="path2920"
     style="fill:#4d4d4d;fill-opacity:1" />
  <path
     d="m44.592 51.248c-.256 0-.512-.098-.707-.293-.391-.391-.391-1.023 0-1.414l5.656-5.658c.391-.391 1.023-.391 1.414 0s.391 1.023 0 1.414l-5.656 5.658c-.195.195-.451.293-.707.293z"
     id="path2922"
     style="fill:#4d4d4d;fill-opacity:1" />
  <path
     d="m56.172 62.828c-.256 0-.512-.098-.707-.293l-11.58-11.58c-.391-.391-.391-1.023 0-1.414s1.023-.391 1.414 0l11.58 11.58c.391.391.391 1.023 0 1.414-.195.195-.451.293-.707.293z"
     id="path2924"
     style="fill:#4d4d4d;fill-opacity:1" />
  <path
     d="m61.828 57.173c-.256 0-.512-.098-.707-.293l-11.58-11.583c-.391-.391-.391-1.023 0-1.414s1.023-.391 1.414 0l11.58 11.583c.391.391.391 1.023 0 1.414-.195.195-.451.293-.707.293z"
     id="path2926"
     style="fill:#4d4d4d;fill-opacity:1" />
  <path
     d="m59.001 64c-1.336 0-2.592-.521-3.536-1.465-.391-.391-.391-1.023 0-1.414s1.023-.391 1.414 0c1.133 1.132 3.11 1.136 4.241 0 .567-.566.88-1.32.88-2.122 0-.801-.312-1.553-.878-2.118-.392-.391-.392-1.023-.002-1.414.391-.393 1.025-.391 1.414-.002.945.943 1.466 2.198 1.466 3.534s-.521 2.592-1.465 3.536c-.943.944-2.198 1.465-3.534 1.465z"
     id="path2928"
     style="fill:#4d4d4d;fill-opacity:1" />
  <path
     d="m 22.999,46.153 c -0.457,0 -0.87,-0.315 -0.975,-0.781 l -2,-8.903 c -0.121,-0.538 0.218,-1.073 0.757,-1.194 0.537,-0.121 1.073,0.218 1.194,0.757 l 2,8.903 c 0.121,0.538 -0.218,1.073 -0.757,1.194 -0.072,0.017 -0.147,0.024 -0.219,0.024 z"
     id="path2930"
     style="fill:#4d4d4d;fill-opacity:1" />
  <path
     d="m 26.999,46.153 c -0.072,0 -0.146,-0.008 -0.221,-0.024 -0.538,-0.121 -0.877,-0.656 -0.756,-1.195 l 2.002,-8.903 c 0.121,-0.538 0.651,-0.876 1.195,-0.756 0.538,0.121 0.877,0.656 0.756,1.195 l -2.002,8.903 c -0.104,0.465 -0.517,0.78 -0.974,0.78 z"
     id="path2932"
     style="fill:#4d4d4d;fill-opacity:1" />
  <path
     d="M 34.021,21.788 H 16.014 c -0.553,0 -1,-0.447 -1,-1 v -8.04 c 0,-1.654 1.346,-3 3,-3 h 14.007 c 1.654,0 3,1.346 3,3 v 8.04 c 0,0.553 -0.448,1 -1,1 z m -17.007,-2 h 16.007 v -7.04 c 0,-0.552 -0.448,-1 -1,-1 H 18.014 c -0.552,0 -1,0.448 -1,1 z"
     id="path2934"
     style="fill:#4d4d4d;fill-opacity:1" />
  <path
     d="m 25.003,18.761 c -0.553,0 -1,-0.447 -1,-1 v -4.012 c 0,-0.553 0.447,-1 1,-1 0.553,0 1,0.447 1,1 v 4.012 c 0,0.552 -0.447,1 -1,1 z"
     id="path2936"
     style="fill:#4d4d4d;fill-opacity:1" />
  <path
     d="m 27.004,16.768 h -4.002 c -0.553,0 -1,-0.447 -1,-1 0,-0.553 0.447,-1 1,-1 h 4.002 c 0.553,0 1,0.447 1,1 0,0.553 -0.447,1 -1,1 z"
     id="path2938"
     style="fill:#4d4d4d;fill-opacity:1" />
</svg>
