<?xml version="1.0" encoding="UTF-8" standalone="no"?>
<!-- Generator: Adobe Illustrator 19.0.0, SVG Export Plug-In . SVG Version: 6.00 Build 0)  -->

<svg
   version="1.1"
   id="Layer_1"
   x="0px"
   y="0px"
   viewBox="0 0 511.999 511.999"
   style="enable-background:new 0 0 511.999 511.999;"
   xml:space="preserve"
   sodipodi:docname="doctor_icon.svg"
   inkscape:version="1.1 (c68e22c387, 2021-05-23)"
   xmlns:inkscape="http://www.inkscape.org/namespaces/inkscape"
   xmlns:sodipodi="http://sodipodi.sourceforge.net/DTD/sodipodi-0.dtd"
   xmlns="http://www.w3.org/2000/svg"
   xmlns:svg="http://www.w3.org/2000/svg"><defs
   id="defs8197" /><sodipodi:namedview
   id="namedview8195"
   pagecolor="#ffffff"
   bordercolor="#666666"
   borderopacity="1.0"
   inkscape:pageshadow="2"
   inkscape:pageopacity="0.0"
   inkscape:pagecheckerboard="0"
   showgrid="false"
   inkscape:zoom="2.031254"
   inkscape:cx="248.36874"
   inkscape:cy="375.38388"
   inkscape:window-width="1366"
   inkscape:window-height="705"
   inkscape:window-x="-8"
   inkscape:window-y="-8"
   inkscape:window-maximized="1"
   inkscape:current-layer="Layer_1" />
<ellipse
   style="fill:#ff826e;stroke:#4d4d4d;stroke-width:11.7119;stroke-miterlimit:4;stroke-dasharray:none;stroke-opacity:1;fill-opacity:1"
   cx="256.98926"
   cy="257.34421"
   id="circle8096"
   rx="249.7592"
   ry="249.94357" />
<path
   style="fill:#b3b3b3;stroke-width:0.975989"
   d="m 222.17685,245.07247 c 23.20534,0 46.41069,0 69.61409,0 l 0.38049,4.76166 -34.0202,51.61278 -36.54513,-52.12244 0.56977,-4.24908 z"
   id="path8098" />
<path
   style="fill:#f0ba7d;stroke-width:0.975989"
   d="m 222.62563,232.12608 -0.60293,29.11376 -49.3571,27.00974 v 99.00675 h 83.08851 83.07778 v -99.00772 l -45.87019,-28.53187 -2.51908,-29.10889 -67.81601,1.51725 h -9.8e-4 z"
   id="path8100" />
<path
   style="fill:#fed298;stroke-width:0.975989"
   d="m 199.81834,147.22563 c 0,0 -2.83029,-6.22326 -10.42849,-3.13897 -7.60016,3.08039 0.34146,33.8315 3.24591,38.12158 2.90152,4.28813 7.57381,1.56508 9.27531,1.3952 2.41956,18.33195 2.63517,30.96688 9.968,38.69665 6.94551,7.31871 22.84633,22.23441 31.22308,27.4364 5.67328,1.19896 9.90556,1.90291 13.88711,2.1138 3.97959,-0.21089 8.21578,-0.91679 13.88711,-2.1138 8.37578,-5.19906 24.27952,-20.11769 31.22307,-27.4364 7.33088,-7.72977 7.54845,-20.36177 9.968,-38.69665 1.7015,0.17086 6.3738,2.89293 9.27532,-1.3952 2.90347,-4.29008 10.84607,-35.04217 3.24591,-38.12158 -7.60014,-3.08526 -10.4285,3.13897 -10.4285,3.13897 0,0 7.51137,-24.14806 -5.84011,-47.917293 -9.14946,-16.291371 -30.0172,-24.740702 -51.32983,-25.360684 -21.31262,0.619982 -42.18036,9.069313 -51.32981,25.360684 -13.35149,23.770213 -5.84012,47.917293 -5.84012,47.917293 h -0.002 z"
   id="path8102" />
<path
   style="fill:#71ce9e;stroke-width:0.975989;fill-opacity:1"
   d="m 197.8183,269.80438 11.81975,-4.65914 9.52507,-8.56551 33.63191,25.52666 h 8.37578 l 33.64263,-25.55693 21.34092,13.25786 37.08465,63.08195 -29.36937,159.46037 c -21.28922,5.90886 -43.71699,9.08004 -66.88721,9.08004 -18.89697,0 -37.29831,-2.11379 -54.99428,-6.09242 l -52.6401,-157.40807 48.46733,-68.12383 z"
   id="path8104" />
<g
   id="g8110"
   transform="matrix(0.9756295,0,0,0.97634972,7.2281051,1.5425347)">
	<path
   style="fill:#b3e59f;fill-opacity:1"
   d="m 305.588,266.591 -13.917,-17.162 -31.381,37.932 26.936,29.93 z"
   id="path8106" />
	<path
   style="fill:#b3e59f;fill-opacity:1"
   d="m 206.384,266.289 13.935,-16.86 31.383,37.932 -28.006,29.622 z"
   id="path8108" />
</g>
<path
   style="fill:#ffffff;stroke-width:0.975989"
   d="m 208.58438,261.53373 -89.99597,29.28756 c -3.65959,1.18822 -5.95817,4.30277 -6.70355,8.0832 L 85.420908,433.11156 c 17.821822,16.86645 38.127602,31.12408 60.306582,42.18808 l 13.15637,-42.96818 c 0.15317,-0.49306 0.62148,-0.80061 1.13368,-0.7391 0.51025,0.0605 0.89855,0.46963 0.92685,0.98612 l 1.89955,50.46556 c 29.05523,11.84801 60.83537,18.38564 94.14727,18.38564 V 484.67357 L 208.58633,261.53471 Z"
   id="path8112" />
<g
   id="g8118"
   transform="matrix(0.9756295,0,0,0.97634972,7.2281051,1.5425347)">
	<path
   style="fill:#eef3f7"
   d="m 206.386,266.289 -10.565,3.246 -27.99,47.759 35.335,1.107 -21.693,12.351 74.53,164.084 -49.614,-228.545 z"
   id="path8114" />
	<path
   style="fill:#eef3f7"
   d="m 305.588,266.591 92.272,29.695 c 3.757,1.209 6.105,4.407 6.869,8.279 l 27.126,137.46 c -18.269,17.275 -39.083,31.879 -61.817,43.212 l -13.487,-44.011 c -0.155,-0.505 -0.64,-0.82 -1.162,-0.757 -0.523,0.062 -0.917,0.483 -0.948,1.01 l -1.942,51.688 c -29.781,12.135 -62.355,18.831 -96.497,18.831 H 256 v -17.162 l 49.587,-228.242 z"
   id="path8116" />
</g>
<path
   style="fill:#ffffff;stroke-width:0.975989"
   d="m 305.36877,261.82858 5.72208,1.74181 31.89625,48.05593 -34.47388,1.08278 21.16629,12.05987 -72.69025,159.90656 48.37854,-222.84402 v -0.002 h 9.7e-4 z"
   id="path8120" />
<path
   style="fill:#d9dada;stroke-width:0.975989"
   d="m 267.18946,483.62693 c -3.03518,0 -5.49572,2.45649 -5.49572,5.48317 0,3.03157 2.46249,5.48709 5.49572,5.48709 3.03324,0 5.49573,-2.4565 5.49573,-5.48709 0,-3.02863 -2.46249,-5.48317 -5.49573,-5.48317 z"
   id="path8122" />
<path
   style="fill:#666666;stroke-width:0.975989"
   d="m 307.60199,154.41547 5.29572,-0.18551 1.70443,-6.04751 4.98838,-4.98134 c 3.29471,-24.82661 4.26545,-63.465656 -20.35846,-62.350664 0,0 -2.22053,-28.173547 -46.63606,-22.651314 -44.41846,5.524187 -64.48716,34.219106 -62.09589,58.159198 2.38932,23.9401 1.42637,26.83985 1.42637,26.83985 l 4.98839,4.9833 0.75221,6.87935 4.35619,-0.27532 c 0,0 1.36587,-9.20796 2.73274,-13.25786 1.36783,-4.04892 0.93953,-12.24635 0.93953,-12.24635 0,0 52.4635,3.34497 66.64135,-14.70285 8.75627,-11.14503 28.86595,-30.456256 29.87865,-3.71209 0.30049,7.93089 -2.64591,19.81795 2.99225,28.46938 5.64012,8.65242 2.39225,15.07778 2.39225,15.07778 h 0.002 z"
   id="path8124" />
<path
   style="fill:#538da4;stroke-width:0.975989;fill-opacity:1"
   d="m 256.98926,484.67357 14.18175,-65.3217 -9.63727,-128.761 5.25084,-2.24267 -5.61279,-6.23986 H 252.796 l -5.75621,6.09437 5.40304,2.38913 -9.39629,129.80278 13.94369,64.27993 z"
   id="path8126" />
<path
   style="fill:#ffffff;stroke-width:0.975989"
   d="m 266.70067,483.62693 c -2.76395,0 -5.0079,2.23583 -5.0079,4.99402 0,2.76112 2.24297,4.99892 5.0079,4.99892 2.76201,0 5.00791,-2.23683 5.00791,-4.99892 0,-2.75721 -2.2459,-4.99402 -5.00791,-4.99402 z"
   id="path8128" />
<path
   style="fill:#fefefe;stroke-width:0.975989"
   d="m 345.18129,400.93401 c -9.74654,-1.68421 -16.28326,-10.95758 -14.60225,-20.70837 1.68296,-9.75179 10.94949,-16.29822 20.6931,-14.61499 9.74654,1.68421 16.28326,10.95953 14.60225,20.71326 -1.68296,9.75081 -10.94949,16.29528 -20.69506,14.61107 l 0.002,-9.7e-4 z"
   id="path8130" />
<path
   style="fill:#538da4;stroke-width:0.975989;fill-opacity:1"
   d="m 345.35788,399.90494 c -9.17872,-1.58657 -15.33494,-10.31514 -13.74955,-19.50357 1.5854,-9.18647 10.31045,-15.34821 19.49113,-13.7636 9.17872,1.58657 15.33494,10.32002 13.74954,19.50551 -1.5854,9.18843 -10.31044,15.34628 -19.49112,13.7597 z"
   id="path8132" />
<path
   style="fill:#ebecec;stroke-width:0.975989"
   d="m 346.63985,392.47785 c -5.07717,-0.87579 -8.48407,-5.71165 -7.60893,-10.79355 0.87514,-5.08288 5.70743,-8.49034 10.78363,-7.61456 5.07913,0.87774 8.48603,5.70677 7.60894,10.7916 -0.87515,5.08092 -5.70548,8.49034 -10.78364,7.61455 z"
   id="path8134" />
<path
   style="fill:#fefefe;stroke-width:0.975989"
   d="m 347.73744,375.07148 4.10057,0.70883 2.20492,-12.78042 -4.10057,-0.70882 z"
   id="path8136" />
<path
   style="fill:#71ce9e;stroke-width:0.975989;fill-opacity:1"
   d="m 210.3932,404.47913 7.68405,-1.52603 c 3.26544,-0.65025 5.96891,-2.57269 7.69479,-5.15415 1.72101,-2.58147 2.46932,-5.81612 1.81955,-9.08494 l -9.03726,-45.5633 c -3.41177,-17.19353 -16.85205,-25.96114 -32.2104,-27.90506 -5.885,-0.74495 -12.05489,-0.47353 -18.03257,0.71078 -5.98255,1.18431 -11.7817,3.28932 -16.93399,6.22521 -13.41881,7.64873 -22.46193,20.87241 -19.04624,38.09327 l 9.03725,45.56526 c 0.64977,3.26784 2.57469,5.97135 5.1523,7.69852 l 0.007,-0.002 c 2.57957,1.72716 5.80792,2.47114 9.07335,1.82284 l 7.68016,-1.52603 -0.62831,-3.16923 -7.68211,1.52603 c -2.39418,0.47549 -4.76594,-0.0732 -6.65574,-1.33467 l 0.002,-0.002 c -1.89077,-1.2673 -3.30347,-3.25026 -3.77959,-5.64428 l -9.03726,-45.56526 c -3.09956,-15.62647 5.18646,-27.67073 17.46475,-34.66432 4.85279,-2.76796 10.32509,-4.75287 15.97398,-5.8747 5.64889,-1.11987 11.46561,-1.37274 17.00913,-0.67173 14.05784,1.77794 26.35077,9.74495 29.44255,25.34116 l 9.03921,45.56527 c 0.47317,2.394 -0.0751,4.76556 -1.3376,6.66066 -1.26636,1.89021 -3.24786,3.30396 -5.64303,3.77749 l -7.68406,1.52604 0.62831,3.16923 v 0.005 0 z"
   id="path8138" />
<path
   style="fill:#4d4d4d;stroke-width:0.975989"
   d="m 220.99243,349.90314 -1.38051,-6.95942 c -3.51519,-17.72661 -17.34376,-26.76175 -33.13336,-28.76229 -5.99914,-0.75764 -12.28219,-0.48622 -18.37207,0.72348 -6.08988,1.20579 -12.00123,3.35376 -17.25109,6.34334 -13.80125,7.86548 -23.09705,21.48164 -19.57503,39.2395 l 1.38247,6.95942 5.27425,-1.05056 -1.38051,-6.95942 c -2.99226,-15.09241 5.04205,-26.74514 16.9379,-33.52394 4.75521,-2.7084 10.11728,-4.65231 15.65593,-5.75168 5.53669,-1.10035 11.23925,-1.34736 16.67058,-0.66099 13.62076,1.72229 25.5293,9.42178 28.5196,24.48881 l 1.38052,6.95942 5.2762,-1.04861 z"
   id="path8140" />
<g
   id="g8146"
   transform="matrix(0.9756295,0,0,0.97634972,7.2281051,1.5425347)">
	<path
   style="fill:#538da4;fill-opacity:1"
   d="m 153.704,424.235 4.214,-0.837 c 1.058,1.187 2.695,1.796 4.363,1.466 2.507,-0.498 4.136,-2.932 3.638,-5.441 -0.496,-2.505 -2.932,-4.134 -5.439,-3.636 -1.672,0.33 -2.95,1.521 -3.472,3.021 l -4.211,0.835 0.91,4.59 z"
   id="path8142" />
	<path
   style="fill:#538da4;fill-opacity:1"
   d="m 211.588,412.746 -4.209,0.837 c -0.523,1.499 -1.801,2.688 -3.47,3.021 -2.507,0.496 -4.941,-1.131 -5.439,-3.64 -0.496,-2.505 1.131,-4.941 3.636,-5.437 1.669,-0.33 3.308,0.282 4.361,1.466 l 4.211,-0.837 z"
   id="path8144" />
</g>
<path
   style="fill:#666666;stroke-width:0.975989"
   d="m 170.60507,314.49386 -1.56783,-7.90452 -3.11715,0.61998 -3.11323,0.61803 1.5854,7.98263 c 1.18734,-0.3466 2.38932,-0.64146 3.60301,-0.88262 0.86537,-0.17281 1.73369,-0.31438 2.6098,-0.4335 z"
   id="path8148" />
<g
   id="g8154"
   transform="matrix(0.9756295,0,0,0.97634972,7.2281051,1.5425347)">
	<path
   style="fill:#538da4;fill-opacity:1"
   d="m 160.566,419.73 c 0.758,-0.15 1.251,-0.89 1.1,-1.645 -0.15,-0.759 -0.884,-1.253 -1.645,-1.103 -0.759,0.15 -1.251,0.888 -1.1,1.645 0.151,0.757 0.886,1.253 1.645,1.1 z"
   id="path8150" />
	<path
   style="fill:#5361a4;fill-opacity:1"
   d="m 202.219,411.446 c 0.757,-0.15 1.248,-0.888 1.098,-1.643 -0.15,-0.761 -0.884,-1.253 -1.645,-1.103 -0.759,0.15 -1.251,0.888 -1.1,1.647 0.148,0.758 0.886,1.25 1.647,1.099 z"
   id="path8152" />
</g>
<path
   style="fill:#fefefe;stroke-width:0.975989"
   d="m 346.1413,392.39193 c -4.80302,-0.82893 -8.02356,-5.39922 -7.19624,-10.20872 0.82832,-4.80462 5.39231,-8.0295 10.19631,-7.19862 4.80302,0.82892 8.02552,5.39921 7.19624,10.20383 -0.83026,4.80656 -5.39718,8.03145 -10.19826,7.20351 z"
   id="path8156" />
<g
   id="g8162"
   transform="matrix(0.9756295,0,0,0.97634972,7.2281051,1.5425347)">
	<path
   style="fill:#4d4d4d"
   d="m 206.431,268.717 c -0.141,0.002 -49.86,0.414 -41.462,43.912 l -4.624,0.884 c -9.467,-49.038 45.874,-49.49 46.031,-49.492 z"
   id="path8158" />
	<path
   style="fill:#4d4d4d"
   d="m 305.643,264.243 c 8.112,0.219 23.792,2.43 35.862,17.111 11.811,14.367 20.091,40.752 13.9,89.128 l -4.661,-0.589 c 5.993,-46.822 -1.751,-72.032 -12.865,-85.554 -10.859,-13.211 -25.018,-15.202 -32.343,-15.399 l 0.11,-4.697 z"
   id="path8160" />
</g>
<g
   id="g8164"
   transform="matrix(0.9756295,0,0,0.97634972,7.2281051,1.5425347)">
</g>
<g
   id="g8166"
   transform="matrix(0.9756295,0,0,0.97634972,7.2281051,1.5425347)">
</g>
<g
   id="g8168"
   transform="matrix(0.9756295,0,0,0.97634972,7.2281051,1.5425347)">
</g>
<g
   id="g8170"
   transform="matrix(0.9756295,0,0,0.97634972,7.2281051,1.5425347)">
</g>
<g
   id="g8172"
   transform="matrix(0.9756295,0,0,0.97634972,7.2281051,1.5425347)">
</g>
<g
   id="g8174"
   transform="matrix(0.9756295,0,0,0.97634972,7.2281051,1.5425347)">
</g>
<g
   id="g8176"
   transform="matrix(0.9756295,0,0,0.97634972,7.2281051,1.5425347)">
</g>
<g
   id="g8178"
   transform="matrix(0.9756295,0,0,0.97634972,7.2281051,1.5425347)">
</g>
<g
   id="g8180"
   transform="matrix(0.9756295,0,0,0.97634972,7.2281051,1.5425347)">
</g>
<g
   id="g8182"
   transform="matrix(0.9756295,0,0,0.97634972,7.2281051,1.5425347)">
</g>
<g
   id="g8184"
   transform="matrix(0.9756295,0,0,0.97634972,7.2281051,1.5425347)">
</g>
<g
   id="g8186"
   transform="matrix(0.9756295,0,0,0.97634972,7.2281051,1.5425347)">
</g>
<g
   id="g8188"
   transform="matrix(0.9756295,0,0,0.97634972,7.2281051,1.5425347)">
</g>
<g
   id="g8190"
   transform="matrix(0.9756295,0,0,0.97634972,7.2281051,1.5425347)">
</g>
<g
   id="g8192"
   transform="matrix(0.9756295,0,0,0.97634972,7.2281051,1.5425347)">
</g>
</svg>
