<?xml version="1.0" encoding="UTF-8" standalone="no"?>
<svg
   id="Capa_1"
   enable-background="new 0 0 512 512"
   height="512"
   viewBox="0 0 512 512"
   width="512"
   version="1.1"
   sodipodi:docname="drugs.svg"
   inkscape:version="1.1 (c68e22c387, 2021-05-23)"
   xmlns:inkscape="http://www.inkscape.org/namespaces/inkscape"
   xmlns:sodipodi="http://sodipodi.sourceforge.net/DTD/sodipodi-0.dtd"
   xmlns="http://www.w3.org/2000/svg"
   xmlns:svg="http://www.w3.org/2000/svg">
  <defs
     id="defs2734" />
  <sodipodi:namedview
     id="namedview2732"
     pagecolor="#ffffff"
     bordercolor="#666666"
     borderopacity="1.0"
     inkscape:pageshadow="2"
     inkscape:pageopacity="0.0"
     inkscape:pagecheckerboard="0"
     showgrid="false"
     inkscape:zoom="0.5078125"
     inkscape:cx="-89.6"
     inkscape:cy="463.75385"
     inkscape:window-width="1366"
     inkscape:window-height="705"
     inkscape:window-x="-8"
     inkscape:window-y="-8"
     inkscape:window-maximized="1"
     inkscape:current-layer="Capa_1" />
  <g
     id="g2729">
    <g
       id="g2675">
      <path
         clip-rule="evenodd"
         d="m243.832 215.38 58.667 16.271 118.868 32.967 32.132-115.344c16.506-59.245-18.58-121.211-77.957-137.681-59.405-16.47-121.482 18.511-138.016 77.784l-19.035 68.401c-.001 41.785 11.079 53.662 25.341 57.602z"
         fill="#eb5468"
         fill-rule="evenodd"
         id="path2673"
         style="fill:#f96f5b;fill-opacity:1" />
    </g>
    <g
       id="g2679" />
    <g
       id="g2683">
      <path
         clip-rule="evenodd"
         d="m421.366 264.619-50.456-14.003-32.132 115.344c-8.608 30.927-29.632 55.248-56.224 69.081-2.5 6.095-5.455 11.821-8.864 17.207-1.904 3.033-3.949 5.953-6.137 8.759 54.064 6.605 106.68-27.213 121.68-81.044z"
         fill="#dddaec"
         fill-rule="evenodd"
         id="path2681" />
    </g>
    <g
       id="g2687">
      <path
         clip-rule="evenodd"
         d="m149.226 127.788c-52.388 0-94.833 42.379-94.833 94.65 0 36.879 21.109 68.798 51.962 84.445 35.314 15.704 78.696 15.307 111.68-19.304 16.137-16.951 26.052-39.912 26.052-65.141 0-2.381-.085-4.734-.256-7.058-1.648-22.224-10.966-42.294-25.342-57.601-17.301-18.454-41.932-29.991-69.263-29.991z"
         fill="#ffd772"
         fill-rule="evenodd"
         id="path2685" />
    </g>
    <g
       id="g2691">
      <path
         clip-rule="evenodd"
         d="m178.716 392.52 110.146 21.799c10.398-51.988-17.472-105.564-68.61-125.889-.739-.283-1.477-.567-2.216-.85-11.108-4.139-22.501-6.435-33.78-6.973-28.495-1.417-56.366 8.164-77.9 26.278-8.722 7.285-16.364 15.988-22.614 25.937z"
         fill="#b1e4f9"
         fill-rule="evenodd"
         id="path2689" />
    </g>
    <g
       id="g2695">
      <path
         clip-rule="evenodd"
         d="m273.691 452.247-95.089-47.424-110.004-34.045c-10.341 51.932 17.529 105.479 68.61 125.775 13.58 5.386 27.615 7.965 41.393 7.965h.199c34.461-.028 67.474-16.016 88.753-43.513 2.189-2.805 4.234-5.725 6.138-8.758z"
         fill="#b1e4f9"
         fill-rule="evenodd"
         id="path2693" />
    </g>
    <g
       id="g2699">
      <path
         clip-rule="evenodd"
         d="m172.608 130.708c21.734 23.188 49.632 107.747-4.688 150.295 5.398-.539 10.853-.68 16.336-.397 11.279.539 22.671 2.835 33.78 6.973 16.137-16.951 26.052-39.912 26.052-65.141 0-2.381-.085-4.734-.256-7.058-1.648-22.224-10.966-42.294-25.342-57.601-12.216-13.011-28.041-22.564-45.882-27.071z"
         fill="#fbba58"
         fill-rule="evenodd"
         id="path2697" />
    </g>
    <g
       id="g2703">
      <path
         clip-rule="evenodd"
         d="m273.691 452.247-52.985-21.062c-1.08 3.6-2.244 7.087-3.551 10.545-9.631 25.739-25.228 47.509-44.632 62.618 2.017.113 4.063.17 6.08.17h.199c34.461-.028 67.474-16.016 88.753-43.513 2.187-2.805 4.232-5.725 6.136-8.758z"
         fill="#75cef8"
         fill-rule="evenodd"
         id="path2701" />
    </g>
    <g
       id="g2707">
      <path
         clip-rule="evenodd"
         d="m227.723 390.026 61.139 24.293c10.398-51.988-17.472-105.564-68.61-125.889-.739-.283-1.477-.567-2.216-.85-7.188-2.693-14.489-4.592-21.791-5.726 3.779 4.989 7.273 10.29 10.455 15.903 13.41 23.613 21.251 52.3 21.251 83.227-.001 3.032-.057 6.037-.228 9.042z"
         fill="#75cef8"
         fill-rule="evenodd"
         id="path2705" />
    </g>
    <g
       id="g2711">
      <path
         clip-rule="evenodd"
         d="m288.862 414.319-118.272-46.999-86.85-34.498c-3.58 5.669-6.705 11.764-9.29 18.227-2.585 6.52-4.517 13.096-5.852 19.729l126.084 50.089 79.008 31.38c3.608-5.698 6.733-11.821 9.318-18.312 2.587-6.463 4.518-13.04 5.854-19.616z"
         fill="#75cef8"
         fill-rule="evenodd"
         id="path2709" />
    </g>
    <g
       id="g2715">
      <path
         clip-rule="evenodd"
         d="m220.706 431.185 52.985 21.062c3.608-5.698 6.733-11.821 9.318-18.312 2.585-6.463 4.517-13.04 5.852-19.616l-61.139-24.293c-.709 14.371-3.124 28.205-7.016 41.159z"
         fill="#60b7ff"
         fill-rule="evenodd"
         id="path2713" />
    </g>
    <g
       id="g2727">
      <path
         d="m449.559 60.798c-15.747-27.873-41.315-47.912-71.996-56.426-.007-.002-.013-.003-.019-.005-63.508-17.607-129.565 19.623-147.245 83l-15.725 56.507c-17.741-14.721-40.526-23.587-65.348-23.587-24.462 0-48.151 8.766-66.704 24.684-3.144 2.697-3.505 7.432-.809 10.576 2.698 3.144 7.432 3.505 10.576.808 15.836-13.586 36.056-21.068 56.937-21.068 48.171 0 87.361 39.096 87.361 87.15 0 20.83-7.359 40.681-20.799 56.421-38.631-12.573-79.717-4.35-110.213 19.063-27.058-15.582-43.681-44.079-43.681-75.484 0-14.118 3.282-27.605 9.755-40.088 1.907-3.677.472-8.204-3.206-10.111s-8.204-.472-10.111 3.206c-7.59 14.638-11.439 30.449-11.439 46.994 0 35.114 17.714 67.132 46.862 85.858-11.065 11.092-20.111 24.538-26.27 39.974-11.822 29.642-11.382 62.107 1.236 91.413 12.64 29.354 35.979 52.027 65.719 63.84 14.482 5.752 29.43 8.477 44.144 8.477 35.414 0 69.443-15.794 92.236-43.123 3.399.294 6.8.447 10.197.447 23.319 0 46.375-6.876 66.157-19.914 24.088-15.877 41.591-39.826 49.286-67.436l12.16-43.682c1.11-3.99-1.224-8.126-5.214-9.236-3.988-1.111-8.126 1.223-9.237 5.214l-12.159 43.681c-12.598 45.21-54.632 76.26-100.797 76.351 3.344-5.529 6.291-11.392 8.762-17.584 11.83-29.624 11.405-62.07-1.195-91.362-11.571-26.899-32.14-48.19-58.392-60.674 13.156-17.032 20.557-37.693 21.157-59.378l160.582 44.537-8.496 30.497c-1.112 3.99 1.222 8.126 5.212 9.238.674.188 1.351.277 2.017.277 3.283 0 6.297-2.172 7.221-5.489l42.644-153.074c8.509-30.548 4.544-62.685-11.166-90.492zm-173.515 370.358c-1.628 4.079-3.488 7.997-5.555 11.749l-193.144-76.722c1.094-4.166 2.451-8.291 4.071-12.355 1.616-4.051 3.468-7.938 5.518-11.667l193.158 76.744c-1.09 4.13-2.439 8.22-4.048 12.251zm-136.066 58.427c-26.013-10.333-46.426-30.161-57.48-55.832-7.241-16.815-9.895-34.82-7.943-52.536l187.579 74.512c-27.76 36.425-77.507 51.591-122.156 33.856zm135.022-138.301c7.242 16.835 9.882 34.862 7.903 52.598l-187.639-74.551c19.879-26.136 51.068-41.347 83.59-41.347 12.873 0 25.958 2.385 38.628 7.418h-.001c26.043 10.353 46.471 30.199 57.519 55.882zm171.274-204.02-30.123 108.127-165.379-45.867c-2.583-20.343-11.188-38.838-23.967-53.649l17.943-64.479c15.46-55.418 73.252-87.969 128.784-72.572h.003c26.824 7.44 49.185 24.968 62.963 49.355 13.739 24.315 17.209 52.402 9.776 79.085z"
         id="path2717"
         style="fill:#4d4d4d;fill-opacity:1" />
      <path
         d="m173.431 220.698c4.142 0 7.5-3.358 7.5-7.5s-3.358-7.5-7.5-7.5h-.199c-4.142 0-7.5 3.358-7.5 7.5s3.358 7.5 7.5 7.5z"
         id="path2719"
         style="fill:#4d4d4d;fill-opacity:1" />
      <path
         d="m152.209 261.489h.199c4.142 0 7.5-3.358 7.5-7.5s-3.358-7.5-7.5-7.5h-.199c-4.142 0-7.5 3.358-7.5 7.5s3.358 7.5 7.5 7.5z"
         id="path2721"
         style="fill:#4d4d4d;fill-opacity:1" />
      <path
         d="m112.151 231.554c4.142 0 7.5-3.358 7.5-7.5s-3.358-7.5-7.5-7.5h-.228c-4.142 0-7.5 3.358-7.5 7.5s3.358 7.5 7.5 7.5z"
         id="path2723"
         style="fill:#4d4d4d;fill-opacity:1" />
      <path
         d="m139.623 167.826h-.199c-4.142 0-7.5 3.358-7.5 7.5s3.358 7.5 7.5 7.5h.199c4.142 0 7.5-3.358 7.5-7.5s-3.357-7.5-7.5-7.5z"
         id="path2725"
         style="fill:#4d4d4d;fill-opacity:1" />
    </g>
  </g>
  <path
     style="fill:#ff826e;fill-opacity:1;stroke:#fed298;stroke-width:0;stroke-linecap:round;stroke-linejoin:round;stroke-miterlimit:0;stroke-dasharray:none"
     d="m 312.12308,226.05927 c -32.22154,-9.03079 -59.04312,-16.62238 -59.60351,-16.87021 -0.5604,-0.24783 -2.1726,-5.15388 -3.58268,-10.90233 -3.64382,-14.85474 -9.30876,-26.36913 -20.26837,-41.19684 -1.0369,-1.40287 0.36124,-7.39496 8.56561,-36.71 5.39263,-19.2684 10.96413,-37.787971 12.38112,-41.154585 5.18214,-12.312217 14.27463,-25.481794 23.87723,-34.583801 21.6236,-20.496359 53.28924,-31.746327 80.733,-28.682312 8.90568,0.994294 9.08867,1.068997 14.85496,6.064421 16.24656,14.074636 29.09838,35.757205 34.6666,58.486733 2.82814,11.544514 3.54721,30.334494 1.59128,41.581964 -2.1325,12.26283 -32.36817,120.64203 -33.61741,120.50098 -0.55727,-0.0629 -27.37629,-7.50323 -59.59783,-16.53402 z"
     id="path3284" />
  <path
     style="fill:#fed298;fill-opacity:1;stroke:#fed298;stroke-width:0;stroke-linecap:round;stroke-linejoin:round;stroke-miterlimit:0;stroke-dasharray:none"
     d="M 100.90549,294.23807 C 88.306129,285.80781 78.366684,274.3193 71.419269,260.15643 59.820473,236.51132 59.459708,209.91495 70.418473,186.3756 c 2.825877,-6.06997 3.053149,-9.31257 0.871064,-12.42793 -1.477491,-2.10942 -1.418368,-2.46297 0.983397,-5.88063 1.40547,-1.99995 4.050092,-5.39473 5.876938,-7.54396 3.133131,-3.68603 3.474722,-3.83789 6.022052,-2.67725 3.565552,1.62458 5.642038,0.87187 13.4436,-4.87316 21.775036,-16.03503 51.293726,-21.26122 76.359466,-13.5192 l 6.23071,1.92447 3.98776,7.93127 c 5.66912,11.27533 10.42904,26.22982 12.84505,40.35596 3.5232,20.59974 1.82329,41.46137 -4.70896,57.78944 -3.24655,8.11509 -8.03786,16.31532 -12.30535,21.06035 -3.19271,3.55 -3.5645,3.684 -13.13189,4.73282 -19.42201,2.12914 -36.94838,8.17915 -52.80582,18.22833 -4.67397,2.96198 -8.66958,5.38543 -8.87913,5.38543 -0.20955,0 -2.1454,-1.18057 -4.30187,-2.62347 z m 57.37143,-35.4187 c 2.85095,-3.13597 2.8111,-6.44777 -0.11855,-9.8537 -4.887,-5.68148 -13.61683,-2.47301 -13.61683,5.00458 0,7.86319 8.32375,10.8018 13.73538,4.84912 z m -40.57063,-29.35923 c 7.11861,-7.11861 -2.79769,-17.54595 -10.74274,-11.29637 -1.94743,1.53185 -2.59432,2.92773 -2.59432,5.59808 0,7.42255 8.13648,10.89888 13.33706,5.69829 z m 60.86862,-10.45468 c 2.00109,-1.57406 2.59432,-2.9086 2.59432,-5.83623 0,-7.07636 -8.31622,-10.48098 -13.33706,-5.46014 -7.11861,7.11861 2.79769,17.54595 10.74274,11.29637 z m -33.76071,-38.2528 c 3.47898,-3.47898 3.68499,-6.90479 0.62886,-10.45775 -2.97412,-3.45762 -9.11149,-3.68663 -11.74196,-0.43814 -2.295,2.83422 -2.31729,9.04715 -0.0396,11.03138 4.04468,3.52349 7.53611,3.48107 11.15267,-0.13549 z"
     id="path8960" />
  <path
     style="fill:#ecc07d;fill-opacity:1;stroke:#fed298;stroke-width:0;stroke-linecap:round;stroke-linejoin:round;stroke-miterlimit:0;stroke-dasharray:none"
     d="m 207.26154,276.08283 c -3.79077,-1.00179 -11.83896,-2.33592 -17.88488,-2.96473 l -10.99257,-1.14331 3.90887,-4.94509 c 5.53153,-6.99791 12.21667,-21.31603 14.80384,-31.70662 3.09007,-12.41032 3.09638,-35.86414 0.0135,-50.27904 -2.72292,-12.73192 -6.23562,-23.43917 -11.08727,-33.79572 -2.12806,-4.54265 -3.86919,-8.42515 -3.86919,-8.62776 0,-0.20262 2.99098,1.13784 6.64662,2.97879 25.44304,12.81291 42.83358,37.97942 46.6139,67.45674 2.09305,16.32079 -1.13543,33.05248 -9.52121,49.34391 -4.1546,8.07133 -9.69199,15.88744 -11.07254,15.62905 -0.36672,-0.0686 -3.76831,-0.94445 -7.55908,-1.94622 z"
     id="path9036" />
  <path
     style="fill:#fffffe;fill-opacity:1;stroke:#000000;stroke-width:0;stroke-linecap:round;stroke-linejoin:round;stroke-miterlimit:0;stroke-dasharray:none"
     d="m 296.70244,422.10508 c 3.96374,-15.55092 4.52244,-33.53256 1.56137,-50.25255 -5.8197,-32.86145 -25.18475,-61.70898 -53.75143,-80.07189 -6.18115,-3.97329 -11.41556,-7.39856 -11.63202,-7.61171 -0.21646,-0.21314 1.84401,-4.04648 4.57883,-8.51853 7.90328,-12.92367 14.77502,-34.00158 14.84905,-45.54697 0.0135,-2.10609 0.18364,-3.81938 0.37808,-3.80732 1.87567,0.11641 115.93038,31.86185 116.50468,32.42735 1.40089,1.37944 -30.88775,112.877 -35.70172,123.28343 -6.24242,13.49432 -15.4466,25.98914 -26.20966,35.57996 -9.59531,8.55027 -11.85044,9.51359 -10.57718,4.51823 z"
     id="path942" />
</svg>
