<?xml version="1.0" encoding="UTF-8" standalone="no"?>
<svg
   id="Capa_1"
   enable-background="new 0 0 512 512"
   height="512"
   viewBox="0 0 512 512"
   width="512"
   version="1.1"
   sodipodi:docname="first-aid-kit.svg"
   inkscape:version="1.1 (c68e22c387, 2021-05-23)"
   xmlns:inkscape="http://www.inkscape.org/namespaces/inkscape"
   xmlns:sodipodi="http://sodipodi.sourceforge.net/DTD/sodipodi-0.dtd"
   xmlns="http://www.w3.org/2000/svg"
   xmlns:svg="http://www.w3.org/2000/svg">
  <defs
     id="defs37" />
  <sodipodi:namedview
     id="namedview35"
     pagecolor="#ffffff"
     bordercolor="#666666"
     borderopacity="1.0"
     inkscape:pageshadow="2"
     inkscape:pageopacity="0.0"
     inkscape:pagecheckerboard="0"
     showgrid="false"
     inkscape:zoom="0.5078125"
     inkscape:cx="-105.35385"
     inkscape:cy="174.27692"
     inkscape:window-width="1366"
     inkscape:window-height="705"
     inkscape:window-x="-8"
     inkscape:window-y="-8"
     inkscape:window-maximized="1"
     inkscape:current-layer="Capa_1" />
  <g
     clip-rule="evenodd"
     fill-rule="evenodd"
     id="g32"
     transform="matrix(0.97765273,0,0,1,5.8455655,0)">
    <path
       d="m 134.364,103.069 h 24.747 c 10.46,0 19.021,8.561 19.021,19.021 v 21.629 H 115.344 V 122.09 c -10e-4,-10.46 8.56,-19.021 19.02,-19.021 z m 291.093,0 h 24.718 c 10.46,0 19.021,8.561 19.021,19.021 v 21.629 H 406.437 V 122.09 c -0.001,-10.46 8.56,-19.021 19.02,-19.021 z"
       fill="#e7daec"
       id="path2"
       style="stroke:#4d4d4d;stroke-width:10;stroke-miterlimit:4;stroke-dasharray:none;stroke-opacity:1" />
    <path
       d="m 130.364,106.94592 h 24.747 c 10.46,0 19.021,6.66997 19.021,14.81946 V 134.729 H 149.13 v -12.96362 c 0,-8.1269 -8.476,-14.77505 -18.879,-14.81946 z m 291.093,0 h 24.718 c 10.46,0 19.021,6.66997 19.021,14.81946 V 134.729 h -25.001 v -12.96362 c 0,-8.1269 -8.475,-14.77505 -18.879,-14.81946 z"
       fill="#beb9dd"
       id="path4"
       style="stroke-width:0.882672" />
    <path
       d="m 244.236,85.466 h 96.067 c 2.636,0 4.762,2.126 4.762,4.762 v 53.49 h 28.545 v -53.49 c 0,-18.312 -14.995,-33.308 -33.307,-33.308 h -96.067 c -18.312,0 -33.279,14.996 -33.279,33.308 v 53.49 h 28.517 v -53.49 c 0,-2.636 2.154,-4.762 4.762,-4.762 z"
       fill="#365e7d"
       id="path6"
       style="stroke:#4d4d4d;stroke-width:11;stroke-miterlimit:4;stroke-dasharray:none;stroke-opacity:1;fill:#5f99d7;fill-opacity:1" />
    <path
       d="m 101.085,428.858 h 382.398 c 15.676,0 28.517,-12.841 28.517,-28.545 V 167.274 c 0,-15.704 -12.841,-28.545 -28.517,-28.545 H 101.085 c -15.704,0 -28.545,12.842 -28.545,28.545 v 233.039 c 0,15.705 12.841,28.545 28.545,28.545 z"
       fill="#f9f7f8"
       id="path10"
       style="stroke:#4d4d4d;stroke-width:11;stroke-miterlimit:4;stroke-dasharray:none;stroke-opacity:1" />
    <path
       d="m 454.48,422.75859 h 25.003 c 15.676,0 28.517,-12.35452 28.517,-27.46355 V 171.08486 C 508,155.97582 495.159,143.6213 479.483,143.6213 H 454.48 c 15.677,0 28.517,12.35549 28.517,27.46356 v 224.21018 c 10e-4,15.10999 -12.84,27.46355 -28.517,27.46355 z"
       fill="#e7daec"
       id="path12"
       style="stroke-width:0.980874" />
    <path
       d="m 111.035,201.518 h 362.5 c 4.166,0 7.597,3.43 7.597,7.597 v 183.602 c 0,4.167 -3.431,7.597 -7.597,7.597 h -362.5 c -4.196,0 -7.625,-3.43 -7.625,-7.597 V 209.115 c -10e-4,-4.196 3.429,-7.597 7.625,-7.597 z"
       fill="#ff6270"
       id="path14"
       style="stroke:#4d4d4d;stroke-width:11;stroke-miterlimit:4;stroke-dasharray:none;stroke-opacity:1" />
    <path
       d="m 442.531,207.01825 h 25.003 c 4.166,0 7.597,3.23317 7.597,7.16105 v 173.06596 c 0,3.92788 -3.431,7.16105 -7.597,7.16105 h -25.003 c 4.167,0 7.597,-3.23317 7.597,-7.16105 V 214.1793 c 0,-3.92788 -3.43,-7.16105 -7.597,-7.16105 z"
       fill="#f64b51"
       id="path16"
       style="stroke-width:0.970883" />
    <path
       d="m 224.719,314.706 v -27.581 c 0,-7.852 6.407,-14.287 14.259,-14.287 h 24.974 v -24.945 c 0,-7.852 6.406,-14.287 14.258,-14.287 h 27.581 c 7.852,0 14.286,6.435 14.286,14.287 v 24.945 h 24.975 c 7.823,0 14.258,6.435 14.258,14.287 v 27.581 c 0,7.853 -6.435,14.259 -14.258,14.259 h -24.975 v 24.973 c 0,7.852 -6.435,14.259 -14.286,14.259 H 278.21 c -7.852,0 -14.258,-6.407 -14.258,-14.259 v -24.973 h -24.974 c -7.852,0 -14.259,-6.406 -14.259,-14.259 z"
       fill="#f8f6f7"
       id="path18"
       style="stroke:#4d4d4d;stroke-width:11;stroke-miterlimit:4;stroke-dasharray:none;stroke-opacity:1" />
    <path
       d="m 46.007,224.648 h 75.544 v 64.404 H 46.007 Z"
       fill="#9ce59e"
       id="path20"
       style="stroke:#4d4d4d;stroke-width:11;stroke-miterlimit:4;stroke-dasharray:none;stroke-opacity:1" />
    <path
       d="m 90.549,239.105 h 25.002 v 46.291 H 90.549 Z"
       fill="#78c2a4"
       id="path22" />
    <path
       d="m 35.235,239.105 h 97.087 c 8.362,0 15.222,-6.86 15.222,-15.223 v -29.31 c 0,-8.363 -6.86,-15.223 -15.222,-15.223 H 35.235 c -8.391,0 -15.223,6.86 -15.223,15.223 v 29.31 c 0.001,8.363 6.833,15.223 15.223,15.223 z M 20.013,455.08 h 127.532 c 10.999,0 20.013,-9.015 20.013,-20.013 v -10.488 l -12.501,-59.754 12.501,-59.727 V 294.61 c 0,-10.999 -9.014,-20.013 -20.013,-20.013 H 20.013 C 9.015,274.595 0,283.61 0,294.608 v 140.458 c 0,10.999 9.015,20.014 20.013,20.014 z"
       fill="#b3e59f"
       id="path24"
       style="stroke:#4d4d4d;stroke-width:11;stroke-miterlimit:4;stroke-dasharray:none;stroke-opacity:1;paint-order:markers fill stroke" />
    <path
       d="m 167.558,424.578 c -32.996,0 -59.755,-26.759 -59.755,-59.754 0,-32.996 26.759,-59.727 59.755,-59.727 z"
       fill="#ffe07d"
       id="path28"
       style="stroke:#4d4d4d;stroke-width:11;stroke-miterlimit:4;stroke-dasharray:none;stroke-opacity:1" />
  </g>
  <path
     style="fill:#ffffff;fill-opacity:1;stroke:none;stroke-width:10.7091;stroke-linecap:round;stroke-linejoin:round;stroke-miterlimit:4;stroke-dasharray:none;stroke-opacity:1;paint-order:normal"
     d="m 474.15626,196.79528 c -2.30565,-1.00623 -34.66581,-1.26926 -160.51554,-1.30472 -149.46123,-0.0421 -157.62797,-0.13368 -157.63306,-1.76748 -0.0211,-6.75436 -5.09692,-14.60396 -11.65714,-18.02724 -3.38492,-1.76633 -5.85481,-1.91122 -32.57929,-1.91122 H 82.85452 v -5.71437 c 0,-11.57217 7.4638,-20.7848 18.53528,-22.87825 3.2583,-0.6161 68.99278,-0.87366 181.23865,-0.71013 l 176.12602,0.25659 3.89372,2.1324 c 5.22976,2.86407 11.32482,9.80204 13.3148,15.15612 1.33065,3.58014 1.57601,7.24279 1.35323,20.20082 l -0.27212,15.82779 z"
     id="path6648" />
  <path
     style="fill:#ffffff;fill-opacity:1;stroke:none;stroke-width:10.7091;stroke-linecap:round;stroke-linejoin:round;stroke-miterlimit:4;stroke-dasharray:none;stroke-opacity:1;paint-order:normal"
     d="m 273.36826,360.58407 c -3.2659,-2.56479 -3.76703,-5.40091 -3.76703,-21.31934 v -15.81858 h -14.9514 c -23.59697,0 -23.86127,-0.2705 -23.38185,-23.92973 0.29638,-14.62599 0.41319,-15.41423 2.64375,-17.84002 l 2.33367,-2.53794 h 16.67792 16.67791 v -16.66292 c 0,-16.48984 0.0259,-16.69438 2.4921,-19.6923 l 2.4921,-3.02939 16.51948,0.0313 c 11.46575,0.0217 16.98675,0.39826 18.04683,1.23077 3.28166,2.57718 3.76703,5.3875 3.76703,21.81165 v 16.31088 l 16.60505,0.0313 c 11.53304,0.0217 17.07159,0.39769 18.1324,1.23077 3.23363,2.53946 3.76703,5.42571 3.76703,20.38363 0,22.43276 -0.23938,22.66198 -23.66559,22.66198 h -14.71479 l -0.30271,17.31983 c -0.39407,22.54778 1.08287,21.09143 -21.34615,21.04886 -11.44918,-0.0218 -16.96585,-0.3984 -18.02575,-1.23077 z"
     id="path6835" />
  <path
     style="fill:#ff826e;fill-opacity:1;stroke:none;stroke-width:10.8308;stroke-linecap:round;stroke-linejoin:round;stroke-miterlimit:4;stroke-dasharray:none;stroke-opacity:1;paint-order:normal"
     d="m 175.25192,341.41538 -0.01,-52.92307 -2.2959,-4.93025 c -2.5313,-5.43575 -7.9467,-10.73763 -13.3671,-13.08688 -2.32426,-1.00735 -7.77701,-1.67318 -16.07161,-1.96248 l -12.55384,-0.43786 v -11.58061 -11.58062 l 5.91279,-0.4277 c 7.32619,-0.52993 13.07225,-4.22317 16.41161,-10.54847 2.00887,-3.8051 2.29098,-5.71595 2.29098,-15.51747 v -11.17799 l 143.34098,0.25593 c 140.60169,0.25105 143.36769,0.29246 144.73846,2.1672 1.18259,1.61737 1.39748,15.64935 1.39748,91.25162 v 89.34034 l -2.59432,2.0407 -2.59432,2.04069 H 307.55952 175.26154 l -0.01,-52.92308 z m 139.08911,29.97943 c 2.98365,-1.74854 5.57754,-4.33916 7.31765,-7.30844 2.45589,-4.19066 2.73149,-5.67699 3.09887,-16.71229 l 0.40325,-12.11254 9.48114,-0.006 c 14.78919,-0.009 21.14949,-2.69421 25.72729,-10.86338 2.39226,-4.26904 2.46154,-4.93525 2.46154,-23.67073 v -19.27807 l -2.95385,-4.76857 c -4.71292,-7.60792 -9.03465,-9.3518 -23.1769,-9.3518 h -11.54409 l -0.41983,-12.55385 c -0.45153,-13.50149 -1.24423,-16.15651 -6.36776,-21.32754 -4.92071,-4.96635 -7.54714,-5.50323 -26.92219,-5.50323 -23.06514,0 -26.39559,1.2108 -31.14532,11.32308 -2.01378,4.28739 -2.3136,6.41694 -2.32198,16.49231 l -0.01,11.56923 h -11.85461 c -15.90614,0 -20.03819,1.99568 -24.5004,11.83309 -1.75845,3.8767 -2.0037,6.44744 -2.01787,21.15152 -0.009,9.20616 0.47076,18.51077 1.06585,20.67693 1.48963,5.42233 8.13169,11.66949 13.97024,13.13965 2.48407,0.62549 8.75106,1.13727 13.92664,1.13727 h 9.41015 l 0.006,10.58461 c 0.006,12.13739 0.99858,16.67111 4.5804,20.92787 5.57169,6.62158 10.57673,7.82464 31.38131,7.54307 15.25687,-0.2065 15.93655,-0.30384 20.40459,-2.92228 z"
     id="path14286" />
  <path
     style="fill:#e5786e;fill-opacity:1;stroke:none;stroke-width:10.8308;stroke-linecap:round;stroke-linejoin:round;stroke-miterlimit:4;stroke-dasharray:none;stroke-opacity:1;paint-order:normal"
     d="m 444.06154,392.36923 c 1.94031,-1.9403 1.96923,-3.28205 1.96923,-91.35015 0,-79.30314 -0.17282,-89.62765 -1.53276,-91.56923 l -1.53275,-2.18831 h 10.75382 c 9.38844,0 11.0832,0.2591 13.34814,2.04069 l 2.59432,2.0407 V 300.8 390.25707 l -2.59432,2.0407 c -2.27896,1.79263 -3.9546,2.04069 -13.78462,2.04069 h -11.19029 z"
     id="path14362" />
  <path
     style="fill:#7bacdf;fill-opacity:1;stroke:none;stroke-width:10.9452;stroke-linecap:round;stroke-linejoin:round;stroke-miterlimit:4;stroke-dasharray:none;stroke-opacity:1;paint-order:normal"
     d="m 217.7859,109.02679 c 0.28277,-20.856269 0.61171,-25.511899 2.03103,-28.746263 2.87674,-6.555526 7.41587,-11.471218 13.3322,-14.438234 l 5.6201,-2.818455 42.5995,-0.291713 c 39.93094,-0.273439 42.8607,-0.173169 46.76922,1.600638 5.37185,2.437902 10.14034,6.583367 13.12279,11.408226 1.30351,2.108763 2.3702,3.956228 2.3704,4.105477 2.1e-4,0.149251 -22.46687,0.142136 -49.92685,-0.01581 -53.16206,-0.305787 -53.69896,-0.262961 -57.42997,4.580998 -1.79928,2.336 -1.93586,4.170894 -1.93586,26.007646 v 23.49433 h -8.44498 -8.44499 z"
     id="path18389" />
  <path
     style="fill:none;fill-opacity:1;stroke:none;stroke-width:10.8308;stroke-linecap:round;stroke-linejoin:round;stroke-miterlimit:4;stroke-dasharray:none;stroke-opacity:1;paint-order:normal"
     d="M 348.4706,130.70769 C 348.4248,129.76 348.06755,118.79385 347.67667,106.33846 347.07672,87.220423 346.68505,83.155421 345.16265,80.246154 341.72657,73.679899 337.3196,68.348932 332.8549,65.357877 l -4.48567,-3.005105 8.86154,0.680523 c 10.38179,0.797272 15.51064,2.758369 20.64697,7.894698 6.65372,6.653719 8.5621,12.48364 9.46246,28.906889 0.4336,7.909278 0.81483,18.478968 0.84716,23.488198 l 0.0588,9.10769 H 358.4 c -8.68917,0 -9.85594,-0.20247 -9.9294,-1.72308 z"
     id="path18541" />
  <path
     style="fill:none;fill-opacity:1;stroke:none;stroke-width:10.8308;stroke-linecap:round;stroke-linejoin:round;stroke-miterlimit:4;stroke-dasharray:none;stroke-opacity:1;paint-order:normal"
     d="m 154.58462,416.1125 c -9.1078,-2.94462 -13.97117,-5.99769 -21.43901,-13.45875 -10.59484,-10.58522 -15.97638,-23.54643 -15.97638,-38.47843 0,-22.1502 16.12663,-44.08036 37.20193,-50.58985 3.48072,-1.07509 6.94652,-1.9547 7.70179,-1.9547 1.15758,0 1.3732,8.34887 1.3732,53.16923 0,60.32356 1.00528,54.50251 -8.86153,51.3125 z"
     id="path18757" />
  <path
     style="fill:#ffe07d;fill-opacity:1;stroke:none;stroke-width:10.8308;stroke-linecap:round;stroke-linejoin:round;stroke-miterlimit:4;stroke-dasharray:none;stroke-opacity:1;paint-order:normal"
     d="m 154.58462,416.1125 c -9.1078,-2.94462 -13.97117,-5.99769 -21.43901,-13.45875 -10.59484,-10.58522 -15.97638,-23.54643 -15.97638,-38.47843 0,-22.1502 16.12663,-44.08036 37.20193,-50.58985 3.48072,-1.07509 6.94652,-1.9547 7.70179,-1.9547 1.15758,0 1.3732,8.34887 1.3732,53.16923 0,60.32356 1.00528,54.50251 -8.86153,51.3125 z"
     id="path18796" />
  <path
     style="fill:#fed298;fill-opacity:1;stroke:none;stroke-width:10.8308;stroke-linecap:round;stroke-linejoin:round;stroke-miterlimit:4;stroke-dasharray:none;stroke-opacity:1;paint-order:normal"
     d="m 154.0808,416.06777 c -9.08126,-3.2345 -13.72375,-6.20913 -20.93519,-13.41402 -10.53758,-10.52801 -15.97638,-23.41447 -15.97638,-37.85375 0,-22.79825 15.85115,-44.61995 37.20193,-51.21453 3.48072,-1.07509 6.94652,-1.9547 7.70179,-1.9547 1.15758,0 1.3732,8.34887 1.3732,53.16923 v 53.16923 l -2.21538,-0.072 c -1.21846,-0.0396 -4.43595,-0.86285 -7.14997,-1.82952 z"
     id="path18872" />
</svg>
