<?xml version="1.0" encoding="UTF-8" standalone="no"?>
<svg
   id="_x33_0"
   enable-background="new 0 0 64 64"
   height="512"
   viewBox="0 0 64 64"
   width="512"
   version="1.1"
   sodipodi:docname="healthcare.svg"
   inkscape:version="1.1 (c68e22c387, 2021-05-23)"
   xmlns:inkscape="http://www.inkscape.org/namespaces/inkscape"
   xmlns:sodipodi="http://sodipodi.sourceforge.net/DTD/sodipodi-0.dtd"
   xmlns="http://www.w3.org/2000/svg"
   xmlns:svg="http://www.w3.org/2000/svg">
  <defs
     id="defs1829" />
  <sodipodi:namedview
     id="namedview1827"
     pagecolor="#ffffff"
     bordercolor="#666666"
     borderopacity="1.0"
     inkscape:pageshadow="2"
     inkscape:pageopacity="0.0"
     inkscape:pagecheckerboard="0"
     showgrid="false"
     inkscape:zoom="1.015625"
     inkscape:cx="255.50769"
     inkscape:cy="255.50769"
     inkscape:window-width="1366"
     inkscape:window-height="705"
     inkscape:window-x="-8"
     inkscape:window-y="-8"
     inkscape:window-maximized="1"
     inkscape:current-layer="_x33_0" />
  <g
     id="g1824">
    <g
       id="g1810">
      <g
         id="g1748">
        <path
           d="m22.29 32.18-1.08.27-2.21.55-.24.06c-4.16 1.04-7.18 4.54-7.69 8.71l-2.16-2.09c-4.27-4.13-6.74-9.76-6.89-15.68h3.98l3 8 2-16 3 6h2.67l.27.82c-.58.55-.94 1.32-.94 2.18 0 .83.34 1.58.88 2.12s1.29.88 2.12.88h1.07.01c.21 1.54.92 2.9 1.97 3.95.08.08.16.16.25.22z"
           fill="#ff826e"
           id="path1746" />
      </g>
      <g
         id="g1752">
        <path
           d="m31.7 32.17c1.18-1.05 1.99-2.52 2.22-4.17h.01 1.07c.83 0 1.58-.34 2.12-.88.31-.31.56-.69.7-1.12h.01 3.17l2 5 4-18 3 11h11.98c-.14 5.75-2.47 11.22-6.52 15.31-1.64-.84-3.49-1.31-5.46-1.31-2.75 0-5.29.92-7.31 2.48-.91-3.59-3.73-6.49-7.45-7.42l-2.24-.56-.21-.05-1.08-.27z"
           fill="#ff826e"
           id="path1750" />
      </g>
      <g
         id="g1756">
        <path
           d="m55.4 7.4c4.23 4.23 6.6 9.95 6.6 15.93v.06c0 .2 0 .41-.02.61h-11.98l-3-11-4 18-2-5h-3.17-.01c.12-.31.18-.65.18-1 0-.86-.36-1.63-.94-2.18l.5-1.5c.29-.87.44-1.79.44-2.72 0-4.75-3.85-8.6-8.6-8.6h-4.8c-2.38 0-4.52.96-6.08 2.52s-2.52 3.7-2.52 6.08c0 .93.15 1.85.44 2.72l.23.68h-2.67l-3-6-2 16-3-8h-3.98c-.02-.2-.02-.41-.02-.61v-.06c0-2.99.59-5.91 1.71-8.62 1.13-2.71 2.77-5.19 4.89-7.31 1.73-1.73 3.77-3.08 5.98-4 2.22-.92 4.62-1.4 7.06-1.4 2.87 0 5.69.67 8.26 1.95l2.1 1.05 2.1-1.05c2.57-1.28 5.39-1.95 8.26-1.95 2.44 0 4.84.48 7.06 1.4 2.21.92 4.25 2.27 5.98 4z"
           fill="#ff826e"
           id="path1754" />
      </g>
      <g
         id="g1760">
        <path
           d="m24 18-1.24.62c-1.36.67-2.32 1.93-2.64 3.38h-1.12c-.8 0-1.53.31-2.06.82l-.27-.82-.23-.68c-.29-.87-.44-1.79-.44-2.72 0-2.38.96-4.52 2.52-6.08s3.7-2.52 6.08-2.52h4.8c4.75 0 8.6 3.85 8.6 8.6 0 .93-.15 1.85-.44 2.72l-.5 1.5c-.53-.5-1.26-.82-2.06-.82h-1-.34c-1.82 0-3.59-.36-5.23-1.04s-3.15-1.68-4.43-2.96z"
           fill="#656d78"
           id="path1758" />
      </g>
      <g
         id="g1764">
        <path
           d="m27 34 2.87 4.78-2.87 6.22-2.87-6.22z"
           fill="#b4dd7f"
           id="path1762" />
      </g>
      <g
         id="g1768">
        <path
           d="m33 32.5 2.24.56c3.72.93 6.54 3.83 7.45 7.42-2.85 2.19-4.69 5.64-4.69 9.52 0 1.83.41 3.56 1.13 5.11l-7.13 6.89-5-4.83v-12.17l2.87-6.22 2.92-6.33z"
           fill="#e6e9ed"
           id="path1766" />
      </g>
      <g
         id="g1772">
        <path
           d="m21.21 32.45 2.92 6.33 2.87 6.22v12.17l-12-11.6v-.57c0-2.21 1.79-4 4-4v-8z"
           fill="#e6e9ed"
           id="path1770" />
      </g>
      <g
         id="g1776">
        <path
           d="m19 33v8c-2.21 0-4 1.79-4 4v.57l-3.93-3.8c.51-4.17 3.53-7.67 7.69-8.71z"
           fill="#e6e9ed"
           id="path1774" />
      </g>
      <g
         id="g1780">
        <path
           d="m22.3 32.17c1.7 1.32 3.14 1.83 4.7 1.83l-2.87 4.78-2.92-6.33 1.08-.27z"
           fill="#ccd1d9"
           id="path1778" />
      </g>
      <g
         id="g1784">
        <path
           d="m32.79 32.45-2.92 6.33-2.87-4.78c1.81 0 3.46-.69 4.7-1.83l.01.01z"
           fill="#ccd1d9"
           id="path1782" />
      </g>
      <g
         id="g1788">
        <path
           d="m39.13 55.11c-.72-1.55-1.13-3.28-1.13-5.11 0-3.88 1.84-7.33 4.69-9.52 2.02-1.56 4.56-2.48 7.31-2.48 1.97 0 3.82.47 5.46 1.31 3.88 1.98 6.54 6.02 6.54 10.69 0 6.63-5.37 12-12 12-4.8 0-8.95-2.82-10.87-6.89z"
           fill="#f0d0b4"
           id="path1786" />
      </g>
      <g
         id="g1792">
        <circle
           cx="33"
           cy="45"
           fill="#fcd770"
           r="2"
           id="circle1790" />
      </g>
      <g
         id="g1796">
        <path
           d="m56 49v2c0 .55-.45 1-1 1h-3v3c0 .55-.45 1-1 1h-2c-.55 0-1-.45-1-1v-3h-3c-.55 0-1-.45-1-1v-2c0-.55.45-1 1-1h3v-3c0-.55.45-1 1-1h2c.55 0 1 .45 1 1v3h3c.55 0 1 .45 1 1z"
           fill="#fcd770"
           id="path1794" />
      </g>
      <g
         id="g1800">
        <path
           d="m35 22c.8 0 1.53.32 2.06.82.58.55.94 1.32.94 2.18 0 .35-.06.69-.18 1-.14.43-.39.81-.7 1.12-.54.54-1.29.88-2.12.88h-1.07-.01c.06-.33.08-.66.08-1v-5z"
           fill="#f0d0b4"
           id="path1798" />
      </g>
      <g
         id="g1804">
        <path
           d="m34 22v5c0 .34-.02.67-.08 1-.23 1.65-1.04 3.12-2.22 4.17-1.24 1.14-2.89 1.83-4.7 1.83-1.56 0-3-.51-4.7-1.83-.09-.06-.17-.14-.25-.22-1.05-1.05-1.76-2.41-1.97-3.95-.06-.33-.08-.66-.08-1v-3.91c0-.37.04-.74.12-1.09.32-1.45 1.28-2.71 2.64-3.38l1.24-.62c1.28 1.28 2.79 2.28 4.43 2.96s3.41 1.04 5.23 1.04z"
           fill="#f0d0b4"
           id="path1802" />
      </g>
      <g
         id="g1808">
        <path
           d="m20 27c0 .34.02.67.08 1h-.01-1.07c-.83 0-1.58-.34-2.12-.88s-.88-1.29-.88-2.12c0-.86.36-1.63.94-2.18.53-.51 1.26-.82 2.06-.82h1.12c-.08.35-.12.72-.12 1.09z"
           fill="#f0d0b4"
           id="path1806" />
      </g>
    </g>
    <g
       id="g1822">
      <path
         d="m55 47h-2v-2c0-1.103-.897-2-2-2h-2c-1.103 0-2 .897-2 2v2h-2c-1.103 0-2 .897-2 2v2c0 1.103.897 2 2 2h2v2c0 1.103.897 2 2 2h2c1.103 0 2-.897 2-2v-2h2c1.103 0 2-.897 2-2v-2c0-1.103-.897-2-2-2zm0 4h-4v4h-2v-4h-4v-2h4v-4h2v4l4-.002z"
         id="path1812"
         style="fill:#4d4d4d;fill-opacity:1" />
      <path
         d="m57.04 39.088c3.851-4.335 5.96-9.865 5.96-15.761 0-6.282-2.446-12.188-6.888-16.629-3.674-3.675-8.559-5.698-13.756-5.698-3.005 0-6.013.71-8.7 2.054l-1.656.828-1.656-.828c-2.688-1.344-5.696-2.054-8.7-2.054-5.197 0-10.081 2.023-13.756 5.698-4.442 4.441-6.888 10.347-6.888 16.689 0 6.378 2.63 12.58 7.216 17.013l23.784 22.991 6.896-6.666c2.282 3.754 6.399 6.275 11.104 6.275 7.168 0 13-5.832 13-13 0-4.573-2.38-8.594-5.96-10.912zm-7.04-2.088c-2.483 0-4.797.712-6.772 1.925-1.311-3.376-4.173-5.942-7.746-6.835l-1.949-.487c.549-.777.959-1.656 1.204-2.602h.263c1.474 0 2.75-.81 3.444-2h1.88l2.95 7.377 3.825-17.213 2.137 7.835h11.686c-.36 4.901-2.352 9.476-5.713 13.097-1.597-.701-3.356-1.097-5.209-1.097zm-16 8c0 .552-.448 1-1 1s-1-.448-1-1 .448-1 1-1 1 .448 1 1zm-21.841-3.57c.558-3.22 2.804-5.916 5.841-7.065v5.736c-1.771.361-3.183 1.671-3.734 3.366zm3.841 3.57c0-1.654 1.346-3 3-3s3 1.346 3 3v3h2v-3c0-2.414-1.721-4.434-4-4.899v-6.321l.646-.161 5.354 11.601v9.59l-10-9.666zm3-21.91v3.91c-1.103 0-2-.897-2-2s.897-2 2-2h.006c0 .03-.006.06-.006.09zm.386-2.09h-.386c-.536 0-1.045.11-1.512.301l-.097-.292c-.26-.778-.391-1.587-.391-2.405 0-4.193 3.411-7.604 7.604-7.604h4.793c4.192 0 7.603 3.411 7.603 7.604 0 .818-.131 1.627-.39 2.405l-.098.293c-.467-.192-.976-.302-1.512-.302h-1-.343c-3.248 0-6.302-1.226-8.657-3.441v-2.559h-2v2.382l-.684.342c-1.392.696-2.412 1.876-2.93 3.276zm15.614 2c1.103 0 2 .897 2 2s-.897 2-2 2zm-2 4c0 3.309-2.691 6-6 6s-6-2.691-6-6v-3.91c0-1.525.847-2.896 2.211-3.578l.608-.304c2.539 2.304 5.754 3.627 9.181 3.777zm-10.018 6.906c.723.422 1.514.739 2.358.918l-1.093 1.822zm4.018 8.707-1.74-3.77 1.74-2.9 1.74 2.9zm2.754-5.967-1.093-1.822c.844-.179 1.635-.495 2.358-.918zm-20.452-28.534c3.297-3.297 7.679-5.112 12.342-5.112 2.695 0 5.395.637 7.806 1.843l2.55 1.275 2.551-1.275c2.411-1.206 5.11-1.843 7.805-1.843 4.662 0 9.045 1.815 12.342 5.112 3.972 3.973 6.185 9.229 6.283 14.888h-10.217l-3.863-14.164-4.175 18.787-1.049-2.623h-2.677c0-.901-.31-1.724-.815-2.393l.323-.966c.326-.983.492-2.004.492-3.037 0-5.296-4.309-9.604-9.604-9.604h-4.793c-5.294 0-9.603 4.308-9.603 9.604 0 .81.106 1.613.308 2.396h-.69l-4.201-8.401-1.906 15.25-1.818-4.849h-3.677c.084-5.624 2.3-10.902 6.286-14.888zm-6.217 16.888h2.222l4.183 11.151 2.094-16.75 1.798 3.599h2.174c-.344.591-.556 1.268-.556 2 0 2.206 1.794 4 4 4h.263c.245.946.655 1.825 1.204 2.602l-1.949.487c-3.874.969-6.923 3.96-8.047 7.71l-.865-.836c-3.799-3.674-6.112-8.674-6.521-13.963zm28.915 35.609-4-3.867v-11.522l4-8.667v5.631c-1.161.414-2 1.514-2 2.816 0 1.654 1.346 3 3 3s3-1.346 3-3c0-1.302-.839-2.402-2-2.816v-8.404l.997.249c3.112.779 5.557 3.105 6.534 6.129-2.768 2.386-4.531 5.909-4.531 9.842 0 1.718.343 3.355.951 4.857zm18 .391c-6.065 0-11-4.935-11-11s4.935-11 11-11 11 4.935 11 11-4.935 11-11 11z"
         id="path1814"
         style="fill:#4d4d4d;fill-opacity:1" />
      <circle
         cx="24"
         cy="25"
         r="1"
         id="circle1816"
         style="fill:#4d4d4d;fill-opacity:1" />
      <circle
         cx="30"
         cy="25"
         r="1"
         id="circle1818"
         style="fill:#4d4d4d;fill-opacity:1" />
      <path
         d="m24.895 27.553-1.789.895.105.21c.722 1.445 2.174 2.342 3.789 2.342s3.067-.897 3.789-2.342l.105-.211-1.789-.895-.105.212c-.381.762-1.147 1.236-2 1.236s-1.619-.474-2-1.236z"
         id="path1820"
         style="fill:#4d4d4d;fill-opacity:1" />
    </g>
  </g>
  <path
     style="fill:#fed298;stroke:#4d4d4d;stroke-width:0;stroke-linecap:round;stroke-linejoin:round;stroke-miterlimit:0;stroke-dasharray:none;fill-opacity:1"
     d="m 389.13819,486.84038 c -9.44752,-1.16734 -23.53664,-5.93666 -32.70742,-11.07181 -10.15498,-5.68626 -26.51308,-22.04436 -32.19934,-32.19934 -23.53649,-42.03338 -9.94343,-93.70421 31.1928,-118.57214 28.77673,-17.39628 65.52345,-16.33419 93.56039,2.70418 6.54362,4.44342 17.35361,15.10193 22.14753,21.83719 27.0229,37.966 19.60605,89.70642 -17.03281,118.82198 -17.82505,14.1649 -42.67374,21.23378 -64.96115,18.47994 z m 27.96352,-32.99353 c 5.89439,-4.40723 6.74844,-6.59669 7.10849,-18.22322 l 0.33326,-10.76209 8.03597,-0.006 c 10.20141,-0.007 15.00979,-1.35603 18.97846,-5.3247 4.36523,-4.36523 5.60954,-9.81119 5.10096,-22.3253 -0.4912,-12.08575 -2.12506,-15.81513 -8.49811,-19.39698 -3.28886,-1.84845 -5.38134,-2.17788 -13.83326,-2.17788 h -9.95825 v -9.53529 c 0,-11.36842 -2.00766,-16.68003 -7.61436,-20.14517 -2.9079,-1.79718 -5.38841,-2.26076 -13.96092,-2.60916 -12.51411,-0.50858 -17.96006,0.73573 -22.32529,5.10096 -3.96867,3.96867 -5.31774,8.77706 -5.32471,18.97847 l -0.005,8.03596 -10.76209,0.33327 c -11.62653,0.36004 -13.81598,1.21409 -18.22322,7.10849 -1.76776,2.36425 -2.07168,4.42085 -2.35209,15.91627 -0.29901,12.25807 -0.161,13.48768 1.93173,17.21119 3.61438,6.43093 7.33021,8.11211 19.08533,8.63492 l 10.0732,0.448 0.44801,10.0732 c 0.52965,11.90911 2.36832,15.85497 8.9309,19.16612 3.72675,1.88033 5.51364,2.06947 17.13847,1.81406 11.30477,-0.24837 13.32796,-0.54686 15.69301,-2.31521 z"
     id="path2168"
     transform="scale(0.125)" />
  <path
     style="fill:#fed298;fill-opacity:1;stroke:#4d4d4d;stroke-width:0;stroke-linecap:round;stroke-linejoin:round;stroke-miterlimit:0;stroke-dasharray:none"
     d="m 280.61538,199.87692 c 0,-14.19894 0.12698,-15.26154 1.82363,-15.26154 2.66847,0 8.1334,3.98116 10.70679,7.79981 4.46677,6.62824 1.3397,17.63556 -5.99949,21.11823 -6.61166,3.13744 -6.53093,3.30626 -6.53093,-13.6565 z"
     id="path2283"
     transform="scale(0.125)" />
  <path
     style="fill:#fed298;fill-opacity:1;stroke:#fed298;stroke-width:0;stroke-linecap:round;stroke-linejoin:round;stroke-miterlimit:0;stroke-dasharray:none;stroke-opacity:1"
     d="m 143.50078,212.64869 c -4.56693,-3.10331 -6.63924,-7.00248 -6.63924,-12.49208 0,-5.65185 2.79431,-10.61922 7.48711,-13.30964 7.29267,-4.18095 7.28212,-4.19982 7.28212,13.02995 0,15.206 -0.008,15.26154 -2.23298,15.26154 -1.22813,0 -3.88179,-1.1204 -5.89701,-2.48977 z"
     id="path2322"
     transform="scale(0.125)" />
  <path
     style="fill:#fed298;fill-opacity:1;stroke:#fed298;stroke-width:0;stroke-linecap:round;stroke-linejoin:round;stroke-miterlimit:0;stroke-dasharray:none;stroke-opacity:1"
     d="m 385.05224,485.88723 c -2.39972,-0.50733 -7.27357,-1.88867 -10.83076,-3.06963 -16.14012,-5.35842 -25.17402,-11.1634 -37.39571,-24.02966 -11.53024,-12.13835 -16.86803,-21.80714 -21.4474,-38.84948 -2.60495,-9.69444 -2.3306,-31.39129 0.52913,-41.84615 5.80192,-21.21121 18.95153,-39.22371 37.29897,-51.09261 26.05606,-16.85558 59.51438,-18.33261 87.13979,-3.84682 10.27035,5.38541 23.59517,17.23305 30.90901,27.48248 23.14552,32.43554 20.03896,78.31276 -7.3031,107.85113 -16.44005,17.76063 -37.49121,27.21768 -62.22909,27.95589 -6.76923,0.202 -14.27111,-0.0479 -16.67084,-0.55515 z m 33.05204,-32.32871 c 4.55694,-3.42027 5.59759,-6.41566 6.20702,-17.86621 l 0.55024,-10.33846 9.84615,-0.52525 c 13.52564,-0.72152 18.58548,-3.755 21.28339,-12.7598 1.62836,-5.43497 0.70825,-24.3249 -1.3754,-28.23733 -3.30188,-6.19986 -6.80741,-7.67 -19.16953,-8.03928 l -11.07692,-0.33088 v -9.55279 c 0,-12.1777 -2.15179,-17.19006 -8.82401,-20.55467 -3.7485,-1.89026 -5.95678,-2.21539 -15.04701,-2.21539 -19.54903,0 -25.29335,5.16596 -25.33812,22.78697 -0.0254,9.98612 0.29034,9.70534 -10.913,9.70534 -9.14795,0 -14.13305,1.7441 -17.66247,6.17945 -2.37944,2.99018 -2.46154,3.58735 -2.46154,17.90311 0,13.93009 0.13619,15.0007 2.29301,18.0246 3.41751,4.79144 7.37065,6.37492 17.56666,7.03655 4.9659,0.32224 9.3952,0.95219 9.84289,1.39988 0.44769,0.44769 1.08073,4.94282 1.40675,9.98918 0.69446,10.74926 2.49418,14.6431 8.33017,18.02301 3.61804,2.09538 4.82615,2.23007 17.66821,1.96978 12.71356,-0.2577 14.02461,-0.45954 16.87351,-2.59781 z"
     id="path2398"
     transform="scale(0.125)" />
  <path
     style="fill:#fed298;fill-opacity:1;stroke:#fed298;stroke-width:0;stroke-linecap:round;stroke-linejoin:round;stroke-miterlimit:0;stroke-dasharray:none;stroke-opacity:1"
     d="m 281.82673,213.4453 c -0.89413,-2.17987 -0.95841,-27.44199 -0.0721,-28.32823 1.06918,-1.06906 6.23949,2.11712 9.54534,5.88228 2.63102,2.99656 3.09945,4.30757 3.09633,8.66568 -0.005,6.47278 -2.50232,10.76416 -7.85404,13.4944 -3.77997,1.9284 -4.03547,1.94389 -4.71555,0.28587 z"
     id="path2437"
     transform="scale(0.125)" />
  <path
     style="fill:#fed298;fill-opacity:1;stroke:#fed298;stroke-width:0;stroke-linecap:round;stroke-linejoin:round;stroke-miterlimit:0;stroke-dasharray:none;stroke-opacity:1"
     d="m 146.70769,214.03498 c -9.04456,-3.59596 -12.16509,-15.01891 -6.35934,-23.27893 2.10529,-2.99527 8.97807,-6.49485 9.88219,-5.03196 1.88974,3.05766 1.53463,29.53223 -0.3937,29.35196 -0.36718,-0.0343 -1.7753,-0.50281 -3.12915,-1.04107 z"
     id="path2515"
     transform="scale(0.125)" />
</svg>
