<?xml version="1.0" encoding="UTF-8" standalone="no"?>
<svg
   height="512pt"
   viewBox="0 0 512.001 512"
   width="512pt"
   version="1.1"
   id="svg6230"
   sodipodi:docname="search.svg"
   inkscape:version="1.1 (c68e22c387, 2021-05-23)"
   xmlns:inkscape="http://www.inkscape.org/namespaces/inkscape"
   xmlns:sodipodi="http://sodipodi.sourceforge.net/DTD/sodipodi-0.dtd"
   xmlns="http://www.w3.org/2000/svg"
   xmlns:svg="http://www.w3.org/2000/svg">
  <defs
     id="defs6234" />
  <sodipodi:namedview
     id="namedview6232"
     pagecolor="#ffffff"
     bordercolor="#666666"
     borderopacity="1.0"
     inkscape:pageshadow="2"
     inkscape:pageopacity="0.0"
     inkscape:pagecheckerboard="0"
     inkscape:document-units="pt"
     showgrid="false"
     inkscape:zoom="0.26930825"
     inkscape:cx="488.28805"
     inkscape:cy="365.75189"
     inkscape:window-width="1366"
     inkscape:window-height="705"
     inkscape:window-x="-8"
     inkscape:window-y="-8"
     inkscape:window-maximized="1"
     inkscape:current-layer="svg6230" />
  <path
     d="m470 191.828125c0 82.757813-67.070312 149.828125-149.824219 149.828125-82.761719 0-149.828125-67.070312-149.828125-149.828125s67.070313-149.828125 149.828125-149.828125c82.753907 0 149.824219 67.070312 149.824219 149.828125zm-149.824219 181.828125c100.417969 0 181.824219-81.40625 181.824219-181.828125s-81.40625-181.828125-181.824219-181.828125c-100.421875 0-181.828125 81.40625-181.828125 181.828125 0 42.5 14.582032 81.597656 39.015625 112.554687 8.863281 11.230469 19.023438 21.390626 30.25 30.253907 30.960938 24.433593 70.058594 39.019531 112.5625 39.019531zm0 0"
     fill="#808080"
     id="path6208" />
  <path
     d="m 170.34375,191.82812 c 0,82.75782 67.07031,149.82813 149.82812,149.82813 C 402.92969,341.65625 470,274.58594 470,191.82812 470,109.07031 402.92969,42 320.17578,42 237.41406,42 170.34766,109.07031 170.34375,191.82812 Z m 0,0"
     fill="#8ae7d3"
     id="path6210"
     style="fill:#75cef8;fill-opacity:1" />
  <path
     d="m146.222656 335.523438 30.25 30.253906 31.140625-31.140625c-11.230469-8.863281-21.386719-19.023438-30.25-30.253907zm0 0"
     fill="#b3b3b3"
     id="path6212" />
  <path
     d="m138.660156 327.960938-119.300781 119.304687c-12.476563 12.476563-12.480469 32.898437 0 45.375 12.480469 12.480469 32.898437 12.480469 45.378906 0l119.300781-119.300781-7.566406-7.5625-30.25-30.253906zm0 0"
     fill="#808080"
     id="path6214" />
  <path
     d="m340.6875 171.316406-41.027344 41.023438 41.027344 41.027344c11.28125 11.28125 29.742188 11.28125 41.023438 0 11.285156-11.28125 11.285156-29.742188 0-41.027344zm0 0"
     fill="#ff836c"
     id="path6216"
     style="fill:#ff826e;fill-opacity:1" />
  <path
     d="m299.660156 130.289062c-11.28125-11.28125-29.742187-11.28125-41.023437 0-11.285157 11.28125-11.285157 29.742188 0 41.023438l41.023437 41.027344 41.027344-41.023438zm0 0"
     fill="#e6e6e6"
     id="path6218"
     style="fill:#eef3f7;fill-opacity:1" />
  <path
     d="m0 469.953125c0 11.265625 4.363281 21.832031 12.285156 29.757813 7.929688 7.925781 18.496094 12.289062 29.765625 12.289062 11.265625 0 21.835938-4.363281 29.757813-12.289062l119.300781-119.300782c3.90625-3.90625 3.90625-10.238281 0-14.144531l-.492187-.492187 17.992187-17.988282c31.457031 22.566406 69.984375 35.871094 111.566406 35.871094 105.773438 0 191.824219-86.054688 191.824219-191.828125 0-33.625-8.886719-66.792969-25.699219-95.914063-2.761719-4.785156-8.875-6.421874-13.660156-3.660156-4.785156 2.761719-6.421875 8.878906-3.660156 13.660156 15.058593 26.085938 23.019531 55.792969 23.019531 85.914063 0 94.746094-77.082031 171.828125-171.824219 171.828125-94.746093 0-171.828125-77.082031-171.828125-171.828125s77.082032-171.828125 171.828125-171.828125c36.796875 0 73.300781 12.125 102.789063 34.140625 4.425781 3.300781 10.691406 2.390625 13.992187-2.03125 3.308594-4.425781 2.398438-10.695313-2.027343-13.996094-32.917969-24.578125-73.671876-38.113281-114.753907-38.113281-105.777343 0-191.828125 86.054688-191.832031 191.828125 0 41.578125 13.304688 80.105469 35.871094 111.5625l-17.992188 17.988281-.488281-.488281c-1.878906-1.875-4.421875-2.929687-7.074219-2.929687s-5.195312 1.054687-7.070312 2.929687l-119.300782 119.300781c-7.921874 7.925782-12.28515575 18.492188-12.289062 29.761719zm176.476562-118.320313-16.109374-16.113281 16.417968-16.417969c5.046875 5.683594 10.425782 11.0625 16.109375 16.109376zm-156.476562 118.320313c0-5.925781 2.285156-11.472656 6.433594-15.617187l112.226562-112.230469.472656.46875c.003907.007812.011719.011719.019532.019531l30.25 30.253906c.011718.007813.019531.015625.03125.027344l.464844.464844-112.230469 112.230468c-4.148438 4.148438-9.691407 6.429688-15.617188 6.429688s-11.472656-2.28125-15.617187-6.429688c-4.148438-4.148437-6.433594-9.695312-6.433594-15.617187zm0 0"
     id="path6220"
     style="fill:#4d4d4d;fill-opacity:1" />
  <path
     d="m 462.68359,62.906235 -0.0781,-0.09375 c -3.46094,-4.296875 -9.75391,-4.992188 -14.0586,-1.539062 -4.30468,3.453124 -5.0039,9.726562 -1.55859,14.035156 l 0.26562,0.328125 c 1.98047,2.394531 4.83985,3.632812 7.72266,3.632812 2.23828,0 4.49219,-0.746093 6.35547,-2.285156 4.26172,-3.515625 4.86328,-9.820313 1.35156,-14.078125 z m 0,0"
     id="path6222"
     style="fill:#4d4d4d;fill-opacity:1" />
  <path
     d="m279.148438 111.828125c-10.445313 0-20.238282 4.042969-27.585938 11.390625-7.34375 7.34375-11.390625 17.140625-11.390625 27.582031 0 10.441407 4.046875 20.238281 11.390625 27.585938l82.054688 82.050781c7.601562 7.605469 17.59375 11.40625 27.582031 11.40625s19.976562-3.800781 27.585937-11.40625c15.207032-15.210938 15.207032-39.957031 0-55.167969l-82.054687-82.050781c-7.34375-7.347656-17.140625-11.390625-27.582031-11.390625zm34.65625 100.511719 26.882812-26.882813 33.953125 33.957031c7.410156 7.410157 7.410156 19.46875 0 26.882813-3.566406 3.566406-8.339844 5.53125-13.441406 5.53125-5.101563 0-9.875-1.964844-13.441407-5.53125zm-48.097657-74.980469c3.566407-3.566406 8.339844-5.53125 13.441407-5.53125 5.101562 0 9.875 1.964844 13.441406 5.53125l33.953125 33.957031-26.882813 26.882813-33.953125-33.957031c-3.570312-3.566407-5.535156-8.339844-5.535156-13.441407 0-5.097656 1.964844-9.871093 5.535156-13.441406zm0 0"
     id="path6228"
     style="fill:#4d4d4d;fill-opacity:1" />
</svg>
