<?xml version="1.0" encoding="UTF-8" standalone="no"?>
<svg
   height="371pt"
   version="1.1"
   viewBox="1 -2 371.6 371"
   width="371pt"
   id="svg19"
   sodipodi:docname="wallet.svg"
   inkscape:version="1.1 (c68e22c387, 2021-05-23)"
   xmlns:inkscape="http://www.inkscape.org/namespaces/inkscape"
   xmlns:sodipodi="http://sodipodi.sourceforge.net/DTD/sodipodi-0.dtd"
   xmlns="http://www.w3.org/2000/svg"
   xmlns:svg="http://www.w3.org/2000/svg">
  <defs
     id="defs23" />
  <sodipodi:namedview
     id="namedview21"
     pagecolor="#ffffff"
     bordercolor="#666666"
     borderopacity="1.0"
     inkscape:pageshadow="2"
     inkscape:pageopacity="0.0"
     inkscape:pagecheckerboard="0"
     inkscape:document-units="pt"
     showgrid="false"
     inkscape:zoom="0.74331977"
     inkscape:cx="94.84478"
     inkscape:cy="193.05285"
     inkscape:window-width="1366"
     inkscape:window-height="705"
     inkscape:window-x="-8"
     inkscape:window-y="-8"
     inkscape:window-maximized="1"
     inkscape:current-layer="svg19" />
  <g
     id="surface1">
    <path
       d="M 18.621094 6.609375 L 353.378906 6.609375 C 360.1875 6.609375 365.792969 12.117188 365.792969 19.023438 L 365.792969 236.054688 C 365.792969 242.863281 360.289062 248.46875 353.378906 248.46875 L 18.621094 248.46875 C 11.8125 248.46875 6.207031 242.964844 6.207031 236.054688 L 6.207031 18.921875 C 6.207031 12.117188 11.710938 6.609375 18.621094 6.609375 Z M 18.621094 6.609375 "
       style="stroke:none;fill-rule:nonzero;fill:#b1e4f9;fill-opacity:1"
       id="path2" />
    <path
       d="M 105.414062 167.78125 C 112.21875 167.78125 117.828125 162.277344 117.828125 155.371094 L 117.828125 105.816406 C 117.828125 99.007812 112.320312 93.402344 105.414062 93.402344 L 6.207031 93.402344 L 6.207031 167.78125 Z M 80.585938 111.921875 C 90.898438 111.921875 99.207031 120.230469 99.207031 130.542969 C 99.207031 140.855469 90.898438 149.164062 80.585938 149.164062 C 70.277344 149.164062 61.964844 140.855469 61.964844 130.542969 C 61.964844 120.230469 70.375 111.921875 80.585938 111.921875 Z M 80.585938 111.921875 "
       style=" stroke:none;fill-rule:nonzero;fill:rgb(100%,92.156863%,60%);fill-opacity:1;"
       id="path4" />
    <path
       d="M 99.207031 130.542969 C 99.207031 140.828125 90.871094 149.164062 80.585938 149.164062 C 70.304688 149.164062 61.964844 140.828125 61.964844 130.542969 C 61.964844 120.257812 70.304688 111.921875 80.585938 111.921875 C 90.871094 111.921875 99.207031 120.257812 99.207031 130.542969 Z M 99.207031 130.542969 "
       style="stroke:none;fill-rule:nonzero;fill:#75cef8;fill-opacity:1"
       id="path6" />
    <path
       d="M 279 186.402344 C 231.046875 186.402344 192.207031 225.246094 192.207031 273.195312 C 192.207031 321.148438 231.046875 359.988281 279 359.988281 C 326.953125 359.988281 365.792969 321.148438 365.792969 273.195312 C 365.792969 225.246094 326.953125 186.402344 279 186.402344 Z M 279 273.195312 Z M 279 273.195312 "
       style="stroke:none;fill-rule:nonzero;fill:#ff826e;fill-opacity:1"
       id="path8" />
    <path
       d="M 285.207031 211.128906 L 272.792969 211.128906 L 272.792969 266.988281 L 217.035156 266.988281 L 217.035156 279.402344 L 272.792969 279.402344 L 272.792969 328.957031 L 285.207031 328.957031 L 285.207031 279.402344 L 340.964844 279.402344 L 340.964844 266.988281 L 285.207031 266.988281 Z M 285.207031 211.128906 "
       style="stroke:none;fill-rule:nonzero;fill:#4d4d4d;fill-opacity:1"
       id="path10" />
    <path
       d="M 372 18.921875 C 372 8.613281 363.691406 0.304688 353.378906 0.304688 L 18.621094 0.304688 C 8.308594 0.402344 0 8.710938 0 18.921875 L 0 242.164062 C 0 252.472656 8.308594 260.78125 18.621094 260.78125 L 186.902344 260.78125 C 179.792969 311.636719 215.230469 358.6875 266.085938 365.796875 C 316.941406 372.902344 363.992188 337.464844 371.097656 286.609375 C 372.699219 275 372.101562 263.085938 369.398438 251.671875 C 371.097656 248.769531 372 245.566406 372 242.164062 Z M 12.414062 99.609375 L 105.414062 99.609375 C 108.816406 99.609375 111.621094 102.414062 111.621094 105.816406 L 111.621094 155.371094 C 111.621094 158.773438 108.816406 161.578125 105.414062 161.578125 L 12.414062 161.578125 Z M 279 353.78125 C 234.453125 353.78125 198.414062 317.746094 198.414062 273.195312 C 198.414062 228.648438 234.453125 192.609375 279 192.609375 C 323.546875 192.609375 359.585938 228.648438 359.585938 273.195312 C 359.585938 317.644531 323.546875 353.683594 279 353.78125 Z M 279 180.195312 C 237.253906 180.296875 200.617188 208.125 189.503906 248.371094 L 18.621094 248.371094 C 15.214844 248.371094 12.414062 245.566406 12.414062 242.164062 L 12.414062 173.988281 L 105.414062 173.988281 C 115.722656 173.988281 124.035156 165.679688 124.035156 155.371094 L 124.035156 105.816406 C 124.035156 95.503906 115.722656 87.195312 105.414062 87.195312 L 12.414062 87.195312 L 12.414062 18.921875 C 12.414062 15.519531 15.214844 12.714844 18.621094 12.714844 L 353.378906 12.714844 C 356.785156 12.714844 359.585938 15.519531 359.585938 18.921875 L 359.585938 226.945312 C 343.070312 198.117188 312.335938 180.195312 279 180.195312 Z M 279 180.195312 "
       style="stroke:none;fill-rule:nonzero;fill:#4d4d4d;fill-opacity:1"
       id="path12" />
    <path
       d="M 80.585938 105.816406 C 66.871094 105.816406 55.761719 116.929688 55.761719 130.644531 C 55.761719 144.359375 66.871094 155.46875 80.585938 155.46875 C 94.300781 155.46875 105.414062 144.359375 105.414062 130.644531 C 105.414062 116.828125 94.300781 105.816406 80.585938 105.816406 Z M 80.585938 142.957031 C 73.78125 142.957031 68.171875 137.449219 68.171875 130.542969 C 68.171875 123.734375 73.679688 118.128906 80.585938 118.128906 C 87.492188 118.128906 93 123.636719 93 130.542969 C 93 137.449219 87.492188 142.957031 80.585938 142.957031 Z M 80.585938 142.957031 "
       style="stroke:none;fill-rule:nonzero;fill:#4d4d4d;fill-opacity:1"
       id="path14" />
  </g>
  <path
     style="fill:#fed298;fill-opacity:1;stroke-width:0.951282"
     d="m 15.220513,176.9064 v -40.46156 l 63.702453,0.26989 c 59.662614,0.25277 63.810154,0.37754 65.400634,1.96752 1.56004,1.55952 1.72103,4.63579 1.97882,37.81389 l 0.28063,36.11626 -2.37777,2.37777 -2.37777,2.37778 H 78.52401 15.220513 Z m 104.496347,30.4519 c 13.86296,-6.32611 21.77996,-21.26056 19.10134,-36.03228 -4.85433,-26.77002 -37.06846,-37.10994 -56.3606,-18.09032 -21.904372,21.59496 -4.823957,59.28064 25.84387,57.0211 3.63939,-0.26814 8.17493,-1.41977 11.41539,-2.8985 z"
     id="path2228"
     transform="matrix(0.75121295,0,0,0.75121295,1,-2.3)" />
</svg>
